<?xml version="1.0" encoding="UTF-8"?>
<svg width="478px" height="458px" viewBox="0 0 478 458" version="1.1" xmlns="http://www.w3.org/2000/svg" xmlns:xlink="http://www.w3.org/1999/xlink">
    <!-- Generator: Sketch 47.1 (45422) - http://www.bohemiancoding.com/sketch -->
    <title>Logo-Unikum-Realblack</title>
    <desc>Created with Sketch.</desc>
    <defs></defs>
    <g id="Page-1" stroke="none" stroke-width="1" fill="none" fill-rule="evenodd">
        <g id="Logo-Unikum-Realblack">
            <polygon id="Fill-1" fill="#292724" points="0 457.568 477.715 457.568 477.715 0 0 0"></polygon>
            <g id="Group-20" transform="translate(69.000000, 117.568000)" fill="#FFFFFF">
                <path d="M0.022,172.1436 L0.022,132.8646 C0.022,132.2906 0.399,131.8266 0.98,131.7016 L16.035,128.5016 C16.617,128.3766 17.002,128.6836 17.002,129.2576 L17.002,169.5906 C17.002,176.1596 20.672,179.1446 26.172,177.9666 C31.861,176.7556 35.24,172.2786 35.24,165.7166 L35.24,125.3816 C35.24,124.8006 35.625,124.3386 36.206,124.2116 L51.254,121.0146 C51.835,120.8896 52.229,121.1946 52.229,121.7686 L52.229,161.0496 C52.229,178.5156 41.801,189.8016 26.172,193.1236 C10.245,196.5106 0.022,189.6126 0.022,172.1436" id="Fill-2"></path>
                <path d="M62.6797,119.5518 C62.6797,118.9708 63.0637,118.5008 63.6457,118.3808 L77.8287,115.3648 C78.5047,115.2248 79.1797,115.3648 79.4717,115.9778 L99.2477,148.9248 L99.6417,148.8458 L99.6417,111.6948 C99.6417,111.1138 100.0267,110.6508 100.5997,110.5248 L114.1157,107.6568 C114.6977,107.5308 115.0747,107.8288 115.0747,108.4108 L115.0747,172.1068 C115.0747,172.6858 114.6977,173.1498 114.1157,173.2668 L99.9247,176.2838 C99.2477,176.4268 98.5737,176.2838 98.2897,175.6728 L78.6927,142.7808 L78.1187,142.9058 L78.1187,179.9628 C78.1187,180.5448 77.7347,181.0088 77.1527,181.1258 L63.6457,184.0008 C63.0637,184.1258 62.6797,183.8218 62.6797,183.2398 L62.6797,119.5518 Z" id="Fill-4"></path>
                <path d="M125.729,106.1479 C125.729,105.5659 126.113,105.1029 126.695,104.9759 L141.742,101.7789 C142.324,101.6529 142.718,101.9589 142.718,102.5329 L142.718,166.2269 C142.718,166.8109 142.324,167.2789 141.742,167.3989 L126.695,170.5969 C126.113,170.7209 125.729,170.4239 125.729,169.8429 L125.729,106.1479 Z" id="Fill-6"></path>
                <path d="M153.3398,100.2778 C153.3398,99.7038 153.7338,99.2338 154.3148,99.1078 L169.3628,95.9088 C169.9448,95.7918 170.3288,96.0898 170.3288,96.6718 L170.3288,122.3348 L189.1478,92.5698 C189.6268,91.8928 190.0218,91.5168 190.7898,91.3598 L207.7718,87.7448 C208.5498,87.5808 208.7368,88.2168 208.3528,88.8768 L188.7638,118.4208 L209.5088,151.9358 C209.7978,152.3598 209.6008,152.9788 208.9268,153.1208 L191.6528,156.7888 C190.7898,156.9718 190.3978,156.7668 190.1158,156.2478 L177.3698,134.2548 L170.3288,145.1138 L170.3288,160.3588 C170.3288,160.9408 169.9448,161.4018 169.3628,161.5288 L154.3148,164.7268 C153.7338,164.8538 153.3398,164.5468 153.3398,163.9648 L153.3398,100.2778 Z" id="Fill-8"></path>
                <path d="M213.1523,126.8447 L213.1523,87.5647 C213.1523,86.9907 213.5473,86.5197 214.1213,86.3937 L229.1753,83.1957 C229.7563,83.0777 230.1413,83.3757 230.1413,83.9577 L230.1413,124.2907 C230.1413,130.8527 233.8023,133.8377 239.3033,132.6667 C245.0013,131.4567 248.3783,126.9697 248.3783,120.4177 L248.3783,80.0757 C248.3783,79.4937 248.7653,79.0317 249.3463,78.9127 L264.4013,75.7067 C264.9833,75.5817 265.3603,75.8877 265.3603,76.4697 L265.3603,115.7407 C265.3603,133.2087 254.9393,144.4917 239.3033,147.8237 C223.3853,151.2037 213.1523,144.3057 213.1523,126.8447" id="Fill-10"></path>
                <path d="M275.8174,74.2451 C275.8174,73.6631 276.2044,73.2011 276.7864,73.0751 L291.0694,70.0421 C291.7464,69.8921 292.4214,69.9471 292.7044,70.6551 L307.8534,101.6921 L308.2484,101.6141 L323.0034,64.2201 C323.3024,63.3861 323.9764,63.0481 324.6534,62.8991 L338.7344,59.9131 C339.3164,59.7871 339.7004,60.0861 339.7004,60.6681 L339.7004,124.3611 C339.7004,124.9421 339.3164,125.4071 338.7344,125.5241 L325.3224,128.3771 C324.7484,128.5021 324.3564,128.1971 324.3564,127.6161 L324.3564,93.8421 L323.8774,93.9521 L313.3544,120.6921 C312.8754,121.7611 312.0964,122.2181 311.5224,122.3351 L303.9954,123.9371 C303.4214,124.0641 302.7474,123.9141 302.1664,123.0731 L291.6434,100.8051 L291.1644,100.8981 L291.1644,134.6721 C291.1644,135.2531 290.7724,135.7241 290.1984,135.8491 L276.7864,138.6941 C276.2044,138.8191 275.8174,138.5221 275.8174,137.9381 L275.8174,74.2451 Z" id="Fill-12"></path>
                <path d="M74.5649,97.9829 C74.4399,87.1239 78.9249,76.1349 83.2629,66.6429 C85.8189,61.0489 88.2319,55.7639 89.6669,50.4289 L90.6439,46.7859 L99.8919,48.6219 C122.4479,53.0099 146.2909,58.4979 153.8069,81.5209 L145.7309,83.1509 C139.6789,64.6279 119.5609,60.6479 98.3569,56.5189 L96.3409,56.1219 C94.7529,60.8479 92.6409,65.4799 90.5819,69.9859 C86.4289,79.0749 82.5069,87.2149 82.6129,96.2749 L74.5649,97.9829 Z" id="Fill-14"></path>
                <path d="M172.6914,77.415 L164.4594,79.348 C170.1284,54.348 198.6964,31.471 222.9514,16.277 L227.4164,13.388 L228.9384,18.375 C230.3614,23.059 232.5624,27.985 234.9034,33.229 C239.6724,43.947 244.4294,53.488 243.9764,63.035 L235.9414,64.589 C236.4984,55.411 231.9334,46.315 227.5474,36.48 C225.9534,32.897 224.3184,29.421 222.9434,25.811 C201.0454,39.856 177.3984,56.415 172.6914,77.415" id="Fill-16"></path>
                <path d="M135.8618,53.6992 L128.2948,50.9572 C133.2798,37.1832 142.6928,22.0152 156.2638,3.8952 L158.9198,0.3552 L162.1928,3.3302 C175.1038,15.0652 183.0058,24.9092 188.2868,36.0942 L182.3288,41.3102 C177.9448,32.0262 170.4588,22.2862 160.0388,12.3262 C148.3788,28.3332 140.2498,41.5742 135.8618,53.6992" id="Fill-18"></path>
            </g>
        </g>
    </g>
</svg>