<?xml version="1.0" standalone="no"?>
<!DOCTYPE svg PUBLIC "-//W3C//DTD SVG 1.1//EN" "http://www.w3.org/Graphics/SVG/1.1/DTD/svg11.dtd" >
<svg xmlns="http://www.w3.org/2000/svg" xmlns:xlink="http://www.w3.org/1999/xlink" version="1.1">
<metadata>
Created by FontForge 20170731 at Fri Mar 18 18:42:28 2022
 By Aleksey,,,
Copyright 2010 by Stefanie Preis. All rights reserved. |DCNT
</metadata>
<defs>
<font id="BrezelGrotesk-Regular" horiz-adv-x="1153" >
  <font-face 
    font-family="Brezel Grotesk"
    font-weight="400"
    font-stretch="normal"
    units-per-em="2048"
    panose-1="2 11 6 3 6 2 2 2 0 0"
    ascent="1536"
    descent="-512"
    x-height="1024"
    cap-height="1434"
    bbox="-201 -510 2173 1952"
    underline-thickness="153"
    underline-position="-357"
    unicode-range="U+0020-FB02"
  />
<missing-glyph horiz-adv-x="1415" 
d="M705 1464q163 0 302.5 -83.5t219.5 -221t80 -293.5v-866h-58l-133 133l-139 -133l-129 133l-146 -133l-141 133l-129 -133l-137 133l-135 -133h-54v866q0 156 80 293.5t219 221t300 83.5zM440 811l-129 131l-28 -29l129 -131l-129 -129l28 -28l129 129l131 -129l29 28
l-131 129l131 131l-29 29zM973 811l-129 131l-29 -29l129 -131l-129 -129l29 -28l129 129l131 -129l29 28l-132 129l132 131l-29 29z" />
    <glyph glyph-name="fi" unicode="fi" horiz-adv-x="1085" 
d="M936 0h-168v877h-414v-877h-168v877h-135v147h135v29q0 235 109 367t305 132q145 0 230 -63.5t85 -169.5q0 -17 -6 -59l-6 -23h-143l4 14q4 20 4 33q0 53 -42.5 85t-121.5 32q-134 0 -193 -84.5t-59 -274.5v-18h584v-1024z" />
    <glyph glyph-name="fl" unicode="fl" horiz-adv-x="1085" 
d="M186 1024v27q0 109 21.5 196.5t57.5 143.5t85.5 93t102.5 52.5t112 15.5q78 0 152 -34q29 -16 51 -35v51h168v-1534h-168v1296q-16 32 -43 56q-63 55 -145 55q-59 0 -102 -23.5t-67 -58.5t-37.5 -87t-17.5 -95.5t-4 -98.5v-20h226v-145h-224v-879h-168v879h-135v145h135z
" />
    <glyph glyph-name=".notdef" horiz-adv-x="1415" 
d="M705 1464q163 0 302.5 -83.5t219.5 -221t80 -293.5v-866h-58l-133 133l-139 -133l-129 133l-146 -133l-141 133l-129 -133l-137 133l-135 -133h-54v866q0 156 80 293.5t219 221t300 83.5zM440 811l-129 131l-28 -29l129 -131l-129 -129l28 -28l129 129l131 -129l29 28
l-131 129l131 131l-29 29zM973 811l-129 131l-29 -29l129 -131l-129 -129l29 -28l129 129l131 -129l29 28l-132 129l132 131l-29 29z" />
    <glyph glyph-name=".null" horiz-adv-x="0" 
 />
    <glyph glyph-name="nonmarkingreturn" horiz-adv-x="682" 
 />
    <glyph glyph-name="space" unicode=" " horiz-adv-x="460" 
 />
    <glyph glyph-name="exclam" unicode="!" horiz-adv-x="536" 
d="M375 1434v-1053h-166v1053h166zM166 104q0 53 36.5 88t88.5 35t87.5 -35t35.5 -88t-35.5 -88.5t-87.5 -35.5t-88.5 35.5t-36.5 88.5z" />
    <glyph glyph-name="quotedbl" unicode="&#x22;" horiz-adv-x="628" 
d="M96 1434h148v-457h-148v457zM381 1434h151v-457h-151v457z" />
    <glyph glyph-name="numbersign" unicode="#" horiz-adv-x="1341" 
d="M580 0l145 414h-272l-146 -414h-164l146 414h-195v143h246l119 340h-205v145h256l139 392h164l-139 -392h272l139 392h164l-139 -392h174v-145h-225l-119 -340h184v-143h-235l-146 -414h-163zM623 897l-119 -340h272l119 340h-272z" />
    <glyph glyph-name="dollar" unicode="$" horiz-adv-x="1140" 
d="M623 1534v-129q161 -12 253.5 -90.5t92.5 -196.5q0 -56 -8 -80q-1 -4 -2.5 -9t-3.5 -10t-3 -7h-161l6 22q8 19 8 62q0 66 -47.5 104.5t-134.5 44.5v-450q40 -15 63 -24.5t61 -26.5t60.5 -31t54.5 -35.5t51 -42.5t40.5 -50t33 -60t19.5 -70.5t8 -83.5q0 -163 -101.5 -270
t-289.5 -119v-158h-101v158q-183 11 -286 90t-103 217q0 42 12 88l13 35h161l-4 -12t-4 -15q-8 -24 -8 -76q0 -157 219 -170v506q-46 17 -76 29.5t-71.5 33.5t-68 41t-56.5 50.5t-46.5 64t-28 78.5t-11.5 98q0 153 96 250.5t262 114.5v129h101zM840 371q0 90 -55.5 143
t-161.5 96v-471q116 11 166.5 74t50.5 158zM338 1040q0 -78 47.5 -126t136.5 -85v416q-184 -25 -184 -205z" />
    <glyph glyph-name="percent" unicode="%" horiz-adv-x="1507" 
d="M367 1413q61 0 106.5 -21t74.5 -56.5t47 -90t25 -114.5t7 -136t-6.5 -134.5t-23.5 -113t-45.5 -90t-75 -56.5t-109.5 -21t-110 21t-75.5 56.5t-46 90t-23.5 113t-6 134.5q0 95 12 166.5t40.5 130.5t81 90t127.5 31zM367 1290q-34 0 -58 -15.5t-38 -40.5t-22 -65.5
t-10.5 -81.5t-2.5 -98q0 -68 5.5 -116.5t19 -89t40 -61t66.5 -20.5q41 0 68 19.5t41 60.5t19 89t5 118q0 72 -4.5 120.5t-18 93t-41 66t-69.5 21.5zM1010 1466l69 -18l-567 -1501l-72 14zM1141 813q61 0 106.5 -21t74.5 -56.5t47 -90t25 -114.5t7 -136t-6.5 -134.5
t-23.5 -113t-45.5 -90t-75 -56.5t-109.5 -21t-110 21t-75.5 56.5t-45.5 90t-23 113t-6 134.5q0 95 12 166.5t40 130.5t80.5 90t127.5 31zM1141 690q-34 0 -58 -15.5t-38 -40.5t-22 -65.5t-10.5 -81.5t-2.5 -98q0 -68 5.5 -116.5t19 -89t40 -61t66.5 -20.5q41 0 68 19.5
t41 60.5t19 89t5 118q0 72 -4.5 120.5t-18 93t-41 66t-69.5 21.5z" />
    <glyph glyph-name="ampersand" unicode="&#x26;" horiz-adv-x="1175" 
d="M852 674h168q-5 -249 -82 -410q60 -48 97.5 -68t88.5 -20v-176q-68 -1 -127 30t-147 99q-64 -73 -147 -111t-201 -38q-110 0 -194 31t-133.5 84.5t-74 119t-24.5 141.5q0 231 219 381q-145 184 -145 350q0 140 95 233t257 93q144 0 242 -80.5t98 -220.5q0 -56 -18.5 -108
t-46 -91t-71.5 -78t-83 -66t-93 -60q8 -10 37.5 -48t41 -52t37.5 -47t41 -50.5t37.5 -43.5t42.5 -46t40 -39q48 122 45 291zM723 231q-56 51 -120.5 122t-107 123.5t-104.5 131.5q-139 -107 -139 -246q0 -96 61 -159.5t185 -63.5q145 0 225 92zM326 1075q0 -107 108 -244
q122 77 179 136.5t57 138.5q0 67 -46 108t-120 41q-89 0 -133.5 -49t-44.5 -131z" />
    <glyph glyph-name="quotesingle" unicode="'" horiz-adv-x="346" 
d="M96 1434h154v-457h-154v457z" />
    <glyph glyph-name="parenleft" unicode="(" horiz-adv-x="491" 
d="M332 1448h153q-67 -106 -118 -240q-119 -315 -119 -673q0 -392 117 -701q52 -133 118 -227h-149q-68 96 -119 225q-117 305 -117 694q0 367 117 680q54 143 117 242z" />
    <glyph glyph-name="parenright" unicode=")" horiz-adv-x="491" 
d="M6 1448h152q61 -99 116 -244q119 -319 119 -669q0 -384 -119 -699q-53 -137 -116 -229h-152q64 91 117 227q119 315 119 701q0 358 -119 673q-53 138 -117 240z" />
    <glyph glyph-name="asterisk" unicode="*" horiz-adv-x="673" 
d="M125 987l-45 78l168 96l-168 96l45 78l166 -96v193h92v-193l164 96l47 -78l-168 -96l168 -94l-47 -80l-164 98v-194h-92v192z" />
    <glyph glyph-name="plus" unicode="+" 
d="M133 463v147h367v371h153v-371h367v-147h-367v-367h-153v367h-367z" />
    <glyph glyph-name="comma" unicode="," horiz-adv-x="417" 
d="M184 213h152l-105 -508h-151z" />
    <glyph glyph-name="hyphen" unicode="-" horiz-adv-x="815" 
d="M106 532v154h601v-154h-601z" />
    <glyph glyph-name="period" unicode="." horiz-adv-x="585" 
d="M166 119q0 55 36 90t91 35t91 -35t36 -90t-36.5 -92t-90.5 -37t-90.5 37t-36.5 92z" />
    <glyph glyph-name="slash" unicode="/" horiz-adv-x="843" 
d="M627 1434h137l-543 -1434h-137z" />
    <glyph glyph-name="zero" unicode="0" horiz-adv-x="1134" 
d="M567 -20q-105 0 -183 34.5t-128 94.5t-80.5 151.5t-42.5 194.5t-12 235q0 81 5 151t18 145t34 136t55.5 116.5t80 93t110 59.5t143.5 22t144 -22t110.5 -59.5t80.5 -93t56 -116t34 -135.5t17.5 -145.5t4.5 -151.5q0 -132 -12 -235t-43 -194.5t-81 -151.5t-128 -94.5
t-183 -34.5zM567 1253q-58 0 -103 -22.5t-73.5 -65t-48.5 -93.5t-29.5 -118t-13.5 -128t-4 -134q0 -281 60 -417t212 -136q153 0 213 132.5t60 420.5q0 73 -4 134t-14 128t-29.5 118t-48.5 93.5t-74 65t-103 22.5z" />
    <glyph glyph-name="one" unicode="1" horiz-adv-x="888" 
d="M113 0v158h280v893h-295v141q167 0 239.5 41t92.5 160h141v-1235h265v-158h-723z" />
    <glyph glyph-name="two" unicode="2" horiz-adv-x="954" 
d="M623 508l-320 -350h569v-158h-790v164l379 414q112 122 167.5 220t55.5 220q0 115 -56.5 175t-152.5 60q-99 0 -150 -44.5t-51 -114.5q0 -27 2 -41l5 -21h-162l-6 25q-4 28 -4 63q0 125 101.5 209t254.5 84q183 0 289 -102t106 -299q0 -138 -61.5 -259.5t-175.5 -244.5z
" />
    <glyph glyph-name="three" unicode="3" horiz-adv-x="942" 
d="M135 1235v158h686v-160l-358 -399q12 0 18 2q5 0 17.5 1t19.5 1q158 0 254 -107.5t96 -318.5q0 -204 -105.5 -318t-297.5 -114q-155 0 -262 79.5t-107 216.5q0 41 10 74q1 7 11 31h162l-7 -23q-6 -21 -6 -59q0 -81 57.5 -120.5t155.5 -39.5t157.5 68t59.5 207
q0 147 -60.5 215.5t-160.5 68.5q-40 0 -86 -12l-35 -12l-110 137l372 424h-481z" />
    <glyph glyph-name="four" unicode="4" horiz-adv-x="1021" 
d="M561 1393h252v-881h137v-158h-137v-354h-166v354h-565v156zM262 512h385v721z" />
    <glyph glyph-name="five" unicode="5" horiz-adv-x="962" 
d="M465 139q242 0 242 307q0 157 -66.5 226t-179.5 69q-63 0 -129 -28q-35 -16 -51 -27l-144 133l70 574h616v-158h-475l-45 -377q18 12 45 21q68 22 133 22q173 0 285.5 -118t112.5 -330q0 -216 -110 -344.5t-304 -128.5q-103 0 -188.5 31t-141 100t-55.5 165q0 59 8 80
q3 14 10 25h162l-6 -23q-6 -21 -6 -57q0 -82 57.5 -122t159.5 -40z" />
    <glyph glyph-name="six" unicode="6" horiz-adv-x="1017" 
d="M543 739q-86 0 -144.5 -45.5t-83 -114.5t-24.5 -155q0 -128 62.5 -206.5t187.5 -78.5q55 0 96 17t65 43t38 65.5t19 77t5 84.5q0 63 -12 117.5t-37.5 99.5t-69 70.5t-102.5 25.5zM737 1122q0 63 -44.5 98t-125.5 35q-129 0 -194.5 -109t-77.5 -370q24 34 61 58
q82 59 199 59q124 0 211.5 -64t128.5 -167t41 -232q0 -99 -22.5 -179.5t-69 -142t-124.5 -95t-181 -33.5q-93 0 -167.5 28t-132 86.5t-89 157.5t-31.5 233q0 346 44 546t142.5 291t269.5 91q142 0 232 -76t90 -194q0 -40 -10 -70l-8 -31h-156l6 25q8 19 8 55z" />
    <glyph glyph-name="seven" unicode="7" horiz-adv-x="864" 
d="M422 0h-191q5 358 103 655t309 572h-616v166h813v-156q-230 -286 -324 -568t-94 -669z" />
    <glyph glyph-name="eight" unicode="8" horiz-adv-x="1050" 
d="M526 139q112 0 183 62.5t71 185.5t-65.5 194.5t-188.5 90.5q-124 -17 -190 -89.5t-66 -195.5t72 -185.5t184 -62.5zM526 838q213 44 213 231q0 87 -61 135.5t-152 48.5q-93 0 -154 -48t-61 -136q0 -183 215 -231zM526 -20q-125 0 -221 42.5t-154.5 134.5t-58.5 224
q0 283 256 379q-49 22 -85 47.5t-66.5 62.5t-46 88.5t-15.5 116.5t24.5 124t71.5 107.5t123.5 77.5t171.5 29t170.5 -28.5t122 -77t70.5 -108t24 -124.5q0 -228 -211 -315q256 -96 256 -377q0 -195 -119.5 -299t-312.5 -104z" />
    <glyph glyph-name="nine" unicode="9" horiz-adv-x="1028" 
d="M487 649q130 0 191 82t61 230q0 126 -59.5 209t-179.5 83q-242 0 -242 -303q0 -301 229 -301zM911 834q0 -174 -11 -304.5t-34.5 -225.5t-57 -157.5t-84 -99.5t-109 -52t-136.5 -15q-159 0 -246.5 73.5t-87.5 190.5q0 38 11 75q3 17 10 27h160l-9 -22q-8 -19 -8 -58
q0 -129 176 -129q62 0 106.5 22t72 58.5t44 100.5t23.5 131t10 165q-24 -34 -61 -61q-82 -59 -203 -59q-189 0 -288 123.5t-99 324.5q0 97 23.5 179.5t70.5 149t126.5 104.5t183.5 38q207 0 312 -138.5t105 -440.5z" />
    <glyph glyph-name="colon" unicode=":" horiz-adv-x="587" 
d="M180 909q0 59 39 97t96 38t96.5 -38t39.5 -97t-39.5 -97t-96.5 -38t-96 38t-39 97zM180 119q0 59 39 97t96 38t96.5 -38t39.5 -97t-39.5 -97t-96.5 -38t-96 38t-39 97z" />
    <glyph glyph-name="semicolon" unicode=";" horiz-adv-x="595" 
d="M207 213h151l-104 -508h-152zM176 883q0 59 41.5 100t99.5 41q60 0 102 -40.5t42 -100.5t-42 -102t-102 -42q-57 0 -99 42t-42 102z" />
    <glyph glyph-name="less" unicode="&#x3c;" 
d="M133 463v147l887 336v-160l-701 -249l701 -250v-160z" />
    <glyph glyph-name="equal" unicode="=" 
d="M133 639v149h887v-149h-887zM133 283v147h887v-147h-887z" />
    <glyph glyph-name="greater" unicode="&#x3e;" 
d="M1020 610v-147l-887 -336v160l701 250l-701 249v160z" />
    <glyph glyph-name="question" unicode="?" horiz-adv-x="1038" 
d="M141 1126q0 139 109 233.5t278 94.5q183 0 295.5 -95t112.5 -265q0 -46 -7 -87t-22.5 -76.5t-30.5 -62t-41.5 -56.5t-43 -47.5t-48 -47t-45.5 -43.5q-55 -56 -78.5 -107.5t-23.5 -136.5v-49h-164v53q0 102 27 170t90 137q21 24 57.5 58.5t60.5 60t49.5 59.5t38.5 73.5
t13 84.5q0 101 -61 161t-170 60t-169.5 -51.5t-60.5 -138.5q0 -41 10 -74l13 -28h-162q-7 10 -14 30q-13 50 -13 90zM391 104q0 53 36.5 88t88.5 35t87.5 -35t35.5 -88t-35.5 -88.5t-87.5 -35.5t-88.5 35.5t-36.5 88.5z" />
    <glyph glyph-name="at" unicode="@" horiz-adv-x="1673" 
d="M844 956q-84 0 -145.5 -54.5t-90 -136t-28.5 -175.5q0 -124 49 -194t153 -70t161.5 55t66.5 121l28 252q8 80 -44 141t-150 61zM1487 678q0 275 -165 442.5t-458 167.5q-140 0 -262 -49.5t-208 -135t-135.5 -206.5t-49.5 -260q0 -200 83 -349t223 -224.5t316 -75.5
q175 0 293 43q52 21 93 45l24 -45l23 -45q-48 -30 -107 -49q-144 -50 -326 -50q-209 0 -374.5 88.5t-263 260.5t-97.5 401q0 210 103 383t279 271t386 98q217 0 384 -91t257 -252.5t90 -367.5q0 -105 -20.5 -187.5t-53.5 -134.5t-78 -86t-90.5 -47.5t-95.5 -13.5
q-73 0 -127 31t-77 88q-29 -43 -66 -68q-90 -67 -223 -67q-160 0 -248 108.5t-88 276.5q0 102 26 188.5t67.5 144t94.5 98.5t106.5 59.5t104.5 18.5q110 0 187 -53q29 -17 51 -51l10 72h137l-59 -549q-4 -58 0 -101.5t32 -69.5t83 -26q219 0 219 369z" />
    <glyph glyph-name="A" unicode="A" horiz-adv-x="1257" 
d="M1047 0l-129 377h-578l-129 -377h-195l514 1434h197l514 -1434h-194zM629 1227l-236 -690h471z" />
    <glyph glyph-name="B" unicode="B" horiz-adv-x="1216" 
d="M172 0v1434h455q107 0 189 -22.5t131.5 -59t81 -87.5t43 -101t11.5 -107q0 -56 -15.5 -106t-37.5 -83t-50 -59.5t-48.5 -40t-38.5 -20.5q24 -9 50 -22t60.5 -40.5t60 -62t44 -88t18.5 -115.5q0 -420 -495 -420h-459zM352 662v-502h289q299 0 299 262q0 43 -14 82.5
t-45.5 76.5t-92 59t-143.5 22h-293zM352 1274v-457h287q141 0 199.5 62.5t58.5 171.5q0 223 -250 223h-295z" />
    <glyph glyph-name="C" unicode="C" horiz-adv-x="1247" 
d="M705 -20q-306 0 -460.5 188t-154.5 518q0 109 22 215t72 207t121.5 177t179.5 122.5t238 46.5q190 0 307 -95t117 -249q0 -52 -10 -90q-1 -8 -4.5 -21t-4.5 -16h-165l6 25q6 42 6 59q0 221 -258 221q-198 0 -319.5 -163.5t-121.5 -438.5q0 -144 34 -251.5t93.5 -169
t132 -91t158.5 -29.5q140 0 212.5 63t72.5 175q0 48 -8 72l-6 28h172q0 -2 3.5 -15.5t4.5 -21.5q10 -38 10 -96q0 -73 -29.5 -139.5t-85 -118t-142.5 -82t-193 -30.5z" />
    <glyph glyph-name="D" unicode="D" horiz-adv-x="1323" 
d="M608 0h-436v1434h430q294 0 462.5 -194t168.5 -554q0 -118 -21.5 -219t-69 -188t-119 -148t-177.5 -96t-238 -35zM352 162h242q65 0 123.5 12t120.5 46.5t106.5 90t73.5 150.5t29 219q0 136 -25 240.5t-66 170t-101 107t-123 58t-138 16.5h-242v-1110z" />
    <glyph glyph-name="E" unicode="E" horiz-adv-x="1081" 
d="M958 162v-162h-786v1434h786v-162h-606v-461h566v-162h-566v-487h606z" />
    <glyph glyph-name="F" unicode="F" horiz-adv-x="1036" 
d="M352 0h-180v1434h786v-162h-606v-484h541v-161h-541v-627z" />
    <glyph glyph-name="G" unicode="G" horiz-adv-x="1310" 
d="M731 1454q194 0 312 -99.5t118 -240.5q0 -57 -8 -88q-1 -8 -4 -20t-4 -15h-166l4 23q4 28 4 55q0 100 -69.5 159.5t-196.5 59.5q-199 0 -322 -164t-123 -440q0 -140 31.5 -246t88.5 -168.5t129 -93.5t159 -31q96 0 165 36t105 98.5t52 133t16 154.5h-340v160h498v-727
h-156v160q-116 -180 -350 -180q-272 0 -428 181.5t-156 522.5q0 114 23 222t73.5 208t123.5 175t181.5 120t239.5 45z" />
    <glyph glyph-name="H" unicode="H" horiz-adv-x="1351" 
d="M356 0h-184v1434h184v-631h637v631h185v-1434h-185v639h-637v-639z" />
    <glyph glyph-name="I" unicode="I" horiz-adv-x="528" 
d="M356 0h-186v1434h186v-1434z" />
    <glyph glyph-name="J" unicode="J" horiz-adv-x="856" 
d="M702 1434v-973q0 -92 -10 -163.5t-34 -132.5t-63 -101t-99 -62t-140 -22q-74 0 -131.5 15.5t-93 40t-58.5 57.5t-31.5 65.5t-8.5 66.5q0 50 10 92l12 35h164l-8 -30q-8 -24 -8 -66q0 -58 37.5 -90.5t113.5 -32.5q92 0 129 73t37 267v961h182z" />
    <glyph glyph-name="K" unicode="K" horiz-adv-x="1157" 
d="M352 1434v-605l516 605h234l-592 -678l643 -756h-240l-561 666v-666h-180v1434h180z" />
    <glyph glyph-name="L" unicode="L" horiz-adv-x="1005" 
d="M942 166v-166h-770v1434h186v-1268h584z" />
    <glyph glyph-name="M" unicode="M" horiz-adv-x="1722" 
d="M948 10h-176l-430 1258q0 -55 2 -86q4 -102 4 -183v-999h-176v1434h295l393 -1198l406 1198h284v-1434h-176v997q0 142 2 191l4 80z" />
    <glyph glyph-name="N" unicode="N" horiz-adv-x="1376" 
d="M350 0h-178v1434h246l608 -1170v1170h178v-1434h-229l-625 1204v-1204z" />
    <glyph glyph-name="O" unicode="O" horiz-adv-x="1409" 
d="M705 -20q-288 0 -451.5 189t-163.5 517q0 164 41.5 304t118 243.5t194 162t261.5 58.5q116 0 215 -39.5t172 -109.5t124.5 -166t77 -211t25.5 -242q0 -323 -164 -514.5t-450 -191.5zM705 1288q-138 0 -236.5 -82t-145.5 -216.5t-47 -307.5q0 -250 109.5 -393.5
t319.5 -143.5t317.5 143.5t107.5 393.5q0 179 -46 313.5t-143 213.5t-236 79z" />
    <glyph glyph-name="P" unicode="P" horiz-adv-x="1136" 
d="M352 0h-180v1434h455q115 0 204.5 -34t143 -92t81 -129t27.5 -149q0 -58 -12 -111.5t-43.5 -108.5t-81 -95t-130 -65t-183.5 -25h-281v-625zM618 1274h-266v-490h281q264 0 264 244q0 124 -75.5 185t-203.5 61z" />
    <glyph glyph-name="Q" unicode="Q" horiz-adv-x="1409" 
d="M705 -20q-288 0 -451.5 189t-163.5 517q0 164 41.5 304t118 243.5t194 162t261.5 58.5q116 0 215 -39.5t172 -109.5t124.5 -166t77 -211t25.5 -242q0 -363 -201 -555l103 -102l-115 -111l-121 121q-124 -59 -280 -59zM705 1288q-138 0 -236.5 -82t-145.5 -216.5
t-47 -307.5q0 -250 109.5 -393.5t319.5 -143.5q83 0 153 25l-162 164l115 110l184 -188q135 144 135 426q0 179 -46 313.5t-143 213.5t-236 79z" />
    <glyph glyph-name="R" unicode="R" horiz-adv-x="1175" 
d="M352 0h-180v1434h446q114 0 204 -33.5t144.5 -90t82.5 -127t28 -149.5q0 -46 -9 -90t-31 -90.5t-55 -84.5t-86 -69t-120 -47l307 -653h-202l-289 637h-240v-637zM612 1274h-260v-479h266q273 0 273 239q0 122 -76.5 181t-202.5 59z" />
    <glyph glyph-name="S" unicode="S" horiz-adv-x="1124" 
d="M821 1090q0 55 -22.5 96t-59.5 63t-78 32.5t-86 10.5q-119 0 -186 -58.5t-67 -162.5q0 -29 8 -54.5t18.5 -44.5t33 -38t39 -30t50.5 -27t53.5 -23.5t61.5 -23t61 -23.5q52 -20 82.5 -32.5t78 -35.5t76 -44.5t62 -54.5t52 -68.5t31.5 -84.5t13 -106q0 -178 -122.5 -289.5
t-348.5 -111.5q-222 0 -347.5 94.5t-125.5 265.5q0 42 13 92l12 37h178q-7 -10 -10 -27q-8 -24 -8 -80q0 -109 74.5 -165t215.5 -56q80 0 137.5 19.5t88.5 54.5t45 76t14 90q0 33 -9.5 62.5t-22.5 51t-39 42t-47 34t-58.5 29.5t-61.5 25t-67 24q-7 3 -22 8
q-38 14 -57.5 21.5t-56 22t-56.5 25.5t-50.5 28.5t-48.5 34t-41 39.5t-35.5 47.5t-25 54.5t-18 65.5t-5.5 75.5q0 169 120.5 276t315.5 107q192 0 310 -92t118 -250q0 -44 -12 -90l-10 -37h-176l8 29q10 30 10 76z" />
    <glyph glyph-name="T" unicode="T" horiz-adv-x="1058" 
d="M618 0h-180v1270h-403v164h989v-164h-406v-1270z" />
    <glyph glyph-name="U" unicode="U" horiz-adv-x="1335" 
d="M1171 1434v-947q0 -73 -13.5 -141t-49.5 -136t-90.5 -118t-144 -81t-203.5 -31q-115 0 -204.5 28t-146 75t-92.5 113.5t-50.5 137.5t-14.5 153v947h186v-942q0 -97 27 -166.5t74.5 -106.5t101.5 -53t119 -16q49 0 92 9.5t85.5 33.5t73 61.5t49.5 98.5t19 139v942h182z
" />
    <glyph glyph-name="V" unicode="V" horiz-adv-x="1204" 
d="M496 0l-480 1434h199l387 -1223l389 1223h197l-479 -1434h-213z" />
    <glyph glyph-name="W" unicode="W" horiz-adv-x="1824" 
d="M815 1434h195l233 -1016l29 -135l16 -72l19 72l32 135l263 1016h192l-403 -1434h-205l-223 928q-8 33 -20 87t-20.5 91.5t-11.5 44.5l-49 -223l-217 -928h-211l-403 1434h194l262 -1014l33 -137l17 -74l16 74q5 24 16 73t15 66z" />
    <glyph glyph-name="X" unicode="X" horiz-adv-x="1200" 
d="M952 0l-354 586l-350 -586h-211l459 737l-435 697h215l324 -545l324 545h211l-435 -697l463 -737h-211z" />
    <glyph glyph-name="Y" unicode="Y" horiz-adv-x="1095" 
d="M457 571l-453 863h205l338 -686l340 686h205l-453 -863v-571h-182v571z" />
    <glyph glyph-name="Z" unicode="Z" horiz-adv-x="1050" 
d="M991 1434v-152l-719 -1118h709v-164h-920v154l715 1116h-667v164h882z" />
    <glyph glyph-name="bracketleft" unicode="[" horiz-adv-x="552" 
d="M309 1325v-1612h178v-123h-329v1858h329v-123h-178z" />
    <glyph glyph-name="backslash" unicode="\" horiz-adv-x="843" 
d="M86 1434h137l543 -1434h-137z" />
    <glyph glyph-name="bracketright" unicode="]" horiz-adv-x="552" 
d="M244 -287v1612h-178v123h329v-1858h-329v123h178z" />
    <glyph glyph-name="asciicircum" unicode="^" 
d="M518 1391h119l399 -666h-176l-287 502l-286 -502h-168z" />
    <glyph glyph-name="underscore" unicode="_" 
d="M119 -160v140h915v-140h-915z" />
    <glyph glyph-name="grave" unicode="`" horiz-adv-x="464" 
d="M291 1171l-285 269h260l193 -269h-168z" />
    <glyph glyph-name="a" unicode="a" horiz-adv-x="1028" 
d="M883 664v-664h-162v123h-6q-43 -64 -122.5 -103.5t-176.5 -39.5q-162 0 -246 80.5t-84 215.5q0 71 25.5 124.5t75.5 88.5t114 56.5t152 34.5q156 24 206 59t50 113q0 44 -19.5 74t-53 44t-65 19.5t-67.5 5.5q-221 0 -221 -150q0 -32 10 -59q2 -8 10 -20h-156l-12 30
q-12 36 -12 82q0 121 100 193.5t281 72.5q260 0 342 -163q37 -75 37 -217zM717 385v145h-6q-37 -64 -236 -92q-121 -17 -171 -55t-50 -107q0 -68 44.5 -108.5t143.5 -40.5q129 0 202 76t73 182z" />
    <glyph glyph-name="b" unicode="b" horiz-adv-x="1114" 
d="M150 0v1534h165v-639h4q22 33 70 74q90 75 219 75q105 0 187.5 -43.5t133.5 -119.5t77 -173t26 -210q0 -146 -49.5 -262.5t-147 -186t-227.5 -69.5q-128 0 -225 77q-46 37 -72 78h-4v-135h-157zM588 891q-64 0 -114.5 -24.5t-81 -63.5t-50.5 -92.5t-27.5 -106.5
t-7.5 -112q0 -46 7.5 -92t27.5 -95t50.5 -86.5t81 -61.5t114.5 -24q59 0 106.5 20.5t77.5 54.5t50 81t28 95.5t8 102.5q0 61 -7 114.5t-25.5 108.5t-47.5 93.5t-78 63t-112 24.5z" />
    <glyph glyph-name="c" unicode="c" horiz-adv-x="972" 
d="M721 743q0 75 -53.5 111.5t-132.5 36.5q-54 0 -98 -17.5t-73.5 -48.5t-51.5 -69.5t-33.5 -84.5t-17 -88.5t-5.5 -86.5q0 -76 15.5 -139.5t47.5 -114.5t88 -80t132 -29q196 0 196 178q0 19 -6 49l-4 17h154l6 -27q8 -21 8 -55q0 -153 -95.5 -234t-252.5 -81
q-124 0 -216 41.5t-144.5 113.5t-77.5 159.5t-25 190.5q0 110 28.5 209t84 178t145.5 125.5t203 46.5q152 0 247 -75t95 -197q0 -34 -13 -84l-10 -35h-155l6 27q8 21 8 63z" />
    <glyph glyph-name="d" unicode="d" horiz-adv-x="1114" 
d="M965 1534v-1534h-158v141h-6q-22 -44 -64 -82q-91 -79 -233 -79q-200 0 -311 139.5t-111 374.5q0 111 26.5 208.5t77.5 174.5t135 122t191 45q129 0 217 -73q41 -35 64 -74h4v637h168zM528 891q-64 0 -113 -25t-78.5 -64.5t-48 -94.5t-25.5 -108t-7 -112
q0 -67 14.5 -127.5t45 -112.5t85 -83t127.5 -31q66 0 116.5 24t80 60.5t48.5 86t25.5 94t6.5 91.5q0 59 -7.5 113t-27 108t-50 93t-80 63.5t-112.5 24.5z" />
    <glyph glyph-name="e" unicode="e" horiz-adv-x="1001" 
d="M539 133q58 0 98.5 13.5t60.5 36t28.5 45t8.5 48.5q0 7 -4 35l-4 17h154l6 -21q6 -42 6 -57q0 -33 -11 -68t-37 -72t-64.5 -65.5t-99 -46.5t-134.5 -18q-224 0 -344.5 136t-120.5 373q0 111 27.5 209t80.5 176.5t139.5 124t196.5 45.5q184 0 286.5 -117t102.5 -290
q0 -94 -18 -164h-647q5 -157 74.5 -248.5t214.5 -91.5zM520 893q-107 0 -176 -72.5t-86 -206.5h490q6 54 -2.5 102t-33.5 88.5t-74.5 64.5t-117.5 24z" />
    <glyph glyph-name="f" unicode="f" horiz-adv-x="641" 
d="M186 1024v174q0 51 6.5 96.5t25.5 94.5t50 83.5t84.5 57t124.5 22.5q108 0 177 -56.5t69 -154.5q0 -36 -8 -55l-8 -20h-142l6 12q7 28 7 37q0 33 -23.5 60.5t-79.5 27.5q-125 0 -125 -184v-195h236v-147h-234v-877h-166v877h-135v147h135z" />
    <glyph glyph-name="g" unicode="g" horiz-adv-x="995" 
d="M498 293q-96 0 -164 26q-49 -30 -49 -81q0 -24 13.5 -39.5t53.5 -24t62 -11t88 -6.5l39 -3q60 -3 105.5 -10.5t96 -26.5t83 -48.5t54 -80.5t21.5 -119q0 -78 -32.5 -137t-90.5 -93.5t-130.5 -51.5t-158.5 -17q-78 0 -145.5 13t-126.5 42t-93 83t-34 128q0 45 10 78l13 31
h159q-7 -10 -10 -23q-10 -27 -10 -61q0 -75 65.5 -109.5t171.5 -34.5q122 0 185 34.5t63 115.5q0 34 -13.5 58t-33.5 38t-57.5 23t-71 12.5t-88.5 7.5q-42 1 -73.5 3.5t-71 8.5t-67.5 15t-57 24.5t-47 36t-29 50.5t-11 67q0 99 100 178q-108 99 -108 270t110 278t277 107
q141 0 241 -81l123 98l101 -127l-123 -94q41 -77 41 -181q0 -167 -102.5 -266.5t-278.5 -99.5zM494 893q-102 0 -160 -62t-58 -167q0 -97 56.5 -159.5t161.5 -62.5q102 0 160.5 60.5t58.5 159.5q0 110 -57.5 170.5t-161.5 60.5z" />
    <glyph glyph-name="h" unicode="h" horiz-adv-x="1101" 
d="M315 0h-165v1534h165v-637q40 65 113 106t172 41q182 0 270 -116t88 -318v-610h-170v588q0 86 -17 146.5t-48 92.5t-68 46t-84 14q-120 0 -188 -79t-68 -230v-578z" />
    <glyph glyph-name="i" unicode="i" horiz-adv-x="471" 
d="M322 0h-172v1024h172v-1024zM98 1303q0 60 39 98.5t99 38.5t97.5 -38.5t37.5 -98.5t-37.5 -98t-97.5 -38t-99 38t-39 98z" />
    <glyph glyph-name="j" unicode="j" horiz-adv-x="501" 
d="M352 1024v-1006q0 -94 -6.5 -160.5t-24.5 -124t-49.5 -91.5t-81.5 -53t-120 -19q-118 0 -183 53.5t-65 155.5q0 40 8 59l8 23h146l-4 -15q-5 -25 -5 -36q0 -89 95 -89q71 0 92.5 59.5t21.5 231.5v1012h168zM133 1303q0 60 37.5 98.5t97.5 38.5t97.5 -38.5t37.5 -98.5
t-37.5 -98t-97.5 -38t-97.5 38t-37.5 98z" />
    <glyph glyph-name="k" unicode="k" horiz-adv-x="958" 
d="M315 1534v-879l357 369h229l-448 -453l493 -571h-217l-414 479v-479h-165v1534h165z" />
    <glyph glyph-name="l" unicode="l" horiz-adv-x="473" 
d="M324 0h-174v1534h174v-1534z" />
    <glyph glyph-name="m" unicode="m" horiz-adv-x="1622" 
d="M313 901h4q19 33 62 72q87 71 199 71q117 0 200 -83q40 -40 60 -84q25 43 69 84q95 83 219 83q351 0 351 -444v-600h-168v580q0 163 -49 233t-150 70q-105 0 -159 -72.5t-54 -230.5v-580h-168v582q0 160 -49.5 230.5t-149.5 70.5q-99 0 -157 -75t-58 -228v-580h-165v1024
h163v-123z" />
    <glyph glyph-name="n" unicode="n" horiz-adv-x="1103" 
d="M319 569v-569h-169v1024h163v-137h4q95 157 287 157q176 0 266.5 -115t90.5 -331v-598h-173v580q0 92 -18.5 155t-52 93.5t-69 42.5t-81.5 12q-114 0 -181 -77.5t-67 -236.5z" />
    <glyph glyph-name="o" unicode="o" horiz-adv-x="1071" 
d="M537 -20q-98 0 -176 28t-129.5 75.5t-86 113t-49 137.5t-14.5 153q0 87 17 167.5t54 151.5t89.5 124t128 83.5t166.5 30.5q92 0 168 -31t127.5 -84t87.5 -124.5t52.5 -151.5t16.5 -166q0 -80 -16 -152.5t-51.5 -138t-87.5 -113t-128 -75.5t-169 -28zM537 891
q-79 0 -137 -39t-87.5 -102.5t-43 -129t-13.5 -133.5q0 -47 7 -92t26.5 -94t49.5 -85t81 -59.5t117 -23.5q64 0 113.5 21t80 55t50 81t27 94.5t7.5 100.5q0 55 -7.5 107.5t-27 108t-50 96.5t-80.5 67.5t-113 26.5z" />
    <glyph glyph-name="p" unicode="p" horiz-adv-x="1114" 
d="M588 891q-64 0 -114.5 -24.5t-81 -63.5t-50.5 -92.5t-27.5 -106.5t-7.5 -112q0 -46 7.5 -92t27.5 -95t50.5 -86.5t81 -61.5t114.5 -24q59 0 106.5 20.5t77.5 54.5t50 81t28 95.5t8 102.5q0 61 -7 114.5t-25.5 108.5t-47.5 93.5t-78 63t-112 24.5zM319 106h-4v-516h-165
v1434h157v-133h4q25 38 70 76q93 77 223 77q105 0 187.5 -43.5t134.5 -119t79 -173.5t27 -210q0 -146 -48.5 -262.5t-146 -186t-229.5 -69.5q-131 0 -221 63q-44 29 -68 63z" />
    <glyph glyph-name="q" unicode="q" horiz-adv-x="1114" 
d="M528 891q-64 0 -113 -25t-78.5 -64.5t-48 -94.5t-25.5 -108t-7 -112q0 -67 15 -127.5t45.5 -112.5t86 -83t129.5 -31q66 0 116 24t79 60.5t47.5 86t24.5 94t6 91.5q0 59 -7.5 113t-27 108t-50 93t-80 63.5t-112.5 24.5zM797 117h-4q-28 -42 -66 -70q-90 -67 -219 -67
q-200 0 -313 140t-113 374q0 114 27 212.5t79 174.5t136.5 119.5t191.5 43.5q129 0 219 -75q43 -37 68 -74h4v129h158v-1434h-168v527z" />
    <glyph glyph-name="r" unicode="r" horiz-adv-x="856" 
d="M582 1044q106 0 172.5 -65.5t66.5 -171.5q0 -44 -12 -90l-10 -35h-158q7 22 8 25q10 27 10 61q0 56 -29 87.5t-83 31.5q-103 0 -165.5 -111t-62.5 -284v-492h-169v1024h159v-147h4q98 167 269 167z" />
    <glyph glyph-name="s" unicode="s" horiz-adv-x="913" 
d="M465 -23q-180 0 -279.5 72.5t-99.5 192.5q0 49 10 82l13 28h161q-7 -11 -10 -22q-8 -19 -8 -51q0 -150 217 -150q209 0 209 147q0 30 -12 54t-30 40t-49 30t-57.5 22t-68.5 18q-136 33 -183 54q-139 60 -163 191q-6 31 -6 65q0 138 96 216t258 78q153 0 251.5 -66
t98.5 -183q0 -44 -12 -80l-13 -29h-155l8 19q8 19 8 53q0 68 -48 102.5t-136 34.5q-89 0 -141 -35t-52 -106q0 -16 4 -30t8.5 -25t16 -21.5t19.5 -17.5t25.5 -15.5t27 -12.5t32.5 -11t32.5 -10t36.5 -9.5t36 -9.5q35 -8 52 -12.5t50.5 -14.5t51.5 -18t46 -22.5t44 -29
t35 -36t29 -45t17 -54.5t7 -67q0 -158 -97.5 -237t-279.5 -79z" />
    <glyph glyph-name="t" unicode="t" horiz-adv-x="784" 
d="M211 289v588h-162v147h162v276h168v-276h283v-147h-283v-590q0 -154 108 -154q48 0 72.5 22t24.5 60q0 11 -4 39l-5 16h144q1 -3 4 -11.5t4 -14.5q8 -21 8 -58q0 -89 -69.5 -147.5t-178.5 -58.5q-61 0 -108.5 14.5t-86.5 48t-60 95.5t-21 151z" />
    <glyph glyph-name="u" unicode="u" horiz-adv-x="1099" 
d="M782 467v557h168v-1024h-155v127h-4q-94 -147 -287 -147q-181 0 -270 109t-89 335v600h168v-584q0 -79 13.5 -135.5t34 -87.5t53 -49t60.5 -22.5t67 -4.5q48 0 88.5 16t76 51.5t56 101.5t20.5 157z" />
    <glyph glyph-name="v" unicode="v" horiz-adv-x="956" 
d="M584 0h-213l-328 1024h186l211 -721l37 -139l39 139l211 721h184z" />
    <glyph glyph-name="w" unicode="w" horiz-adv-x="1527" 
d="M674 1024h180l188 -698l27 -103q7 -20 14 -53q2 19 13 51l26 107l178 696h185l-299 -1024h-207l-160 590l-57 223l-57 -221l-164 -592h-199l-299 1024h186l177 -696l36 -158l41 158z" />
    <glyph glyph-name="x" unicode="x" horiz-adv-x="952" 
d="M41 0l342 524l-330 500h199l223 -365l223 365h197l-328 -498l344 -526h-200l-236 393l-235 -393h-199z" />
    <glyph glyph-name="y" unicode="y" horiz-adv-x="923" 
d="M518 414l197 610h178l-352 -1008q-62 -181 -145 -276.5t-206 -95.5q-51 0 -84 10l-28 12v148q14 -10 20 -11q27 -10 64 -10q77 0 122 47t83 156l18 55l-352 973h188l199 -610q39 -140 49 -150q0 5 8.5 30t21 61.5t19.5 58.5z" />
    <glyph glyph-name="z" unicode="z" horiz-adv-x="872" 
d="M115 874v150h671v-141l-505 -733h520v-150h-713v143l502 731h-475z" />
    <glyph glyph-name="braceleft" unicode="{" horiz-adv-x="731" 
d="M213 553q53 -18 93 -40.5t65 -52.5t40.5 -59t23 -70t9.5 -74t2 -83v-115q0 -54 1.5 -87.5t9.5 -74t22 -63t40.5 -38t64.5 -15.5q45 0 75 6l35 8v-145q-20 -8 -32 -10q-42 -11 -89 -11q-72 0 -124.5 24t-81 60t-45 92.5t-21 107t-4.5 118.5v147q0 143 -53.5 202t-208.5 93
v148q156 37 209 92t53 184v107q0 70 4 121.5t14 106.5t30.5 92.5t51 68.5t78 46t109.5 15q56 0 80 -8l30 -8v-150l-26 6q-48 6 -70 6q-35 0 -61.5 -11.5t-42.5 -35t-26 -48.5t-14.5 -63t-6 -65.5t-1.5 -68.5v-105q0 -56 -4 -96.5t-18.5 -84t-39 -73.5t-68 -56t-103.5 -40z
" />
    <glyph glyph-name="bar" unicode="|" horiz-adv-x="520" 
d="M184 1434h152v-1764h-152v1764z" />
    <glyph glyph-name="braceright" unicode="}" horiz-adv-x="731" 
d="M518 553q-60 14 -103.5 40t-68 56t-39 73.5t-18.5 84t-4 96.5v105q0 41 -1.5 68.5t-6 65.5t-14.5 63t-26 48.5t-42.5 35t-61.5 11.5q-16 0 -70 -6l-28 -6v150l12 4q12 3 19 4q31 8 81 8q75 0 128 -23.5t83 -61t47 -99.5t22 -121.5t5 -144.5v-107q0 -129 53 -184t209 -92
v-148q-153 -32 -207.5 -92.5t-54.5 -202.5v-147q0 -48 -2 -85t-8.5 -80.5t-18.5 -76t-32.5 -64t-49 -51.5t-70 -32.5t-93.5 -12.5q-48 0 -90 11q-18 3 -33 10v145l35 -8q30 -6 77 -6q38 0 64.5 15.5t40.5 38t22 63t9.5 74t1.5 87.5v115q0 50 2 83t9.5 74t23 70t40.5 59
t65 52.5t93 40.5z" />
    <glyph glyph-name="asciitilde" unicode="~" 
d="M381 717q53 0 101.5 -19t85 -46.5t70 -54.5t69.5 -46t69 -19q35 0 54.5 22t19.5 60q0 44 -12 64h145l6 -25q8 -19 8 -55q0 -97 -63 -153t-164 -56q-59 0 -119.5 28.5t-102 62.5t-88 62.5t-79.5 28.5q-36 0 -58 -19t-22 -54q0 -47 10 -70h-141l-8 25q-8 19 -8 55
q0 97 61.5 153t165.5 56z" />
    <glyph glyph-name="uni00A0" unicode="&#xa0;" horiz-adv-x="460" 
 />
    <glyph glyph-name="exclamdown" unicode="&#xa1;" horiz-adv-x="536" 
d="M330 639v-1053h-166v1053h166zM123 915q0 53 36.5 89t88.5 36t87.5 -36t35.5 -89t-35.5 -87.5t-87.5 -34.5t-88.5 34.5t-36.5 87.5z" />
    <glyph glyph-name="cent" unicode="&#xa2;" horiz-adv-x="1067" 
d="M518 -176v162q-102 12 -178.5 57.5t-120.5 115t-65 151t-21 175.5q0 137 40.5 252t129.5 197.5t215 103.5v176h98v-172q143 -6 231.5 -80t88.5 -190q0 -38 -12 -84l-11 -35h-155l6 27q6 48 6 63q0 72 -45 106.5t-109 39.5v-756q168 12 168 178q0 21 -4 49l-4 17h154
l6 -27q8 -21 8 -55q0 -149 -88 -229t-240 -86v-156h-98zM307 496q0 -90 20 -161.5t68.5 -125.5t122.5 -70v744q-61 -15 -104.5 -56t-65.5 -97.5t-31.5 -113.5t-9.5 -120z" />
    <glyph glyph-name="sterling" unicode="&#xa3;" horiz-adv-x="1062" 
d="M109 606v119h127q-4 57 -20.5 163t-16.5 173q0 167 106 259.5t303 92.5q58 0 117 -14t116.5 -44t93.5 -87.5t36 -134.5q0 -49 -15 -107h-163q12 32 12 74q0 69 -51.5 112t-151.5 43q-225 0 -225 -200q0 -43 15.5 -146.5t19.5 -183.5h374v-119h-370q0 -151 -27 -305
q-8 -66 -24 -133h589v-168h-784v70q2 8 11 52t12.5 65t12 66.5t13 80t10 81.5t9 94.5t4.5 96.5h-133z" />
    <glyph glyph-name="currency" unicode="&#xa4;" horiz-adv-x="1409" 
d="M387 586q0 -137 93.5 -227.5t224.5 -90.5q134 0 225.5 90t91.5 228q0 136 -91.5 225.5t-225.5 89.5q-131 0 -224.5 -89.5t-93.5 -225.5zM199 14l-72 72l215 213q-98 124 -98 287q0 161 100 288l-215 220l72 71l215 -219q128 101 289 101q156 0 284 -101l219 217l72 -71
l-217 -218q102 -130 102 -288q0 -160 -100 -287l215 -215l-72 -72l-215 215q-124 -102 -288 -102q-161 0 -291 102z" />
    <glyph glyph-name="yen" unicode="&#xa5;" horiz-adv-x="1212" 
d="M223 438h299v127h-299v97h246l-385 731h190l332 -676l332 676h190l-387 -731h234v-97h-287v-127h287v-96h-287v-342h-166v342h-299v96z" />
    <glyph glyph-name="brokenbar" unicode="&#xa6;" horiz-adv-x="520" 
d="M184 385h152v-717h-152v717zM336 778h-152v656h152v-656z" />
    <glyph glyph-name="section" unicode="&#xa7;" horiz-adv-x="978" 
d="M123 1126q0 136 99 211.5t253 75.5q65 0 126.5 -14.5t114.5 -43.5t85.5 -79t32.5 -115q0 -38 -11 -71l-10 -29h-151l6 18q6 42 6 45q0 73 -58 105.5t-143 32.5q-90 0 -137 -32t-47 -89q0 -47 31.5 -78.5t81.5 -48.5t110 -31t120.5 -32t110.5 -44t81.5 -74.5t31.5 -117.5
q0 -61 -39.5 -120t-77.5 -87q121 -73 121 -215q0 -154 -102.5 -233.5t-268.5 -79.5q-67 0 -130 14t-118 42t-88.5 78t-33.5 115q0 42 12 78l12 31h156l-8 -19q-6 -18 -6 -51q0 -137 215 -137q36 0 67 6t60.5 21t47 44t17.5 70q0 50 -31.5 83t-81.5 50.5t-111 31t-121.5 30.5
t-110.5 42.5t-81.5 74.5t-31.5 118q0 63 36 117t87 90q-123 66 -123 217zM541 575q8 -3 28 -7t29 -7l33 -8q21 19 43 56.5t22 80.5q0 22 -7.5 39.5t-27 32.5t-36.5 25t-54 21.5t-61 18t-74 19.5q-8 3 -26 7t-25 7q-6 1 -15 4l-12 4q-11 -8 -26.5 -24.5t-33 -50.5t-17.5 -68
q0 -33 20 -58t57.5 -40.5t75 -26t87.5 -21.5q13 -3 20 -4z" />
    <glyph glyph-name="dieresis" unicode="&#xa8;" horiz-adv-x="610" 
d="M4 1319q0 50 35.5 84.5t85.5 34.5t84.5 -34t34.5 -85t-34.5 -86t-84.5 -35t-85.5 35t-35.5 86zM367 1319q0 50 35 84.5t83 34.5q51 0 86 -34t35 -85t-35 -86t-86 -35q-48 0 -83 35.5t-35 85.5z" />
    <glyph glyph-name="copyright" unicode="&#xa9;" horiz-adv-x="1669" 
d="M96 717q0 212 99.5 381.5t267.5 261.5t371 92q152 0 287 -54t234.5 -149.5t157.5 -233.5t58 -298q0 -214 -99 -383.5t-267 -261.5t-371 -92t-371 92t-267.5 261.5t-99.5 383.5zM193 717q0 -143 50.5 -264.5t137 -204.5t204 -129.5t249.5 -46.5t249.5 46.5t204.5 129.5
t138 204.5t51 264.5q0 189 -87 337t-233 227t-323 79t-322.5 -79t-232 -227t-86.5 -337zM842 342q-172 0 -251 99.5t-79 263.5q0 105 37 193t114.5 144t182.5 56q98 0 165.5 -46.5t67.5 -133.5q0 -18 -6 -48l-4 -16h-94l4 12q4 20 4 29q0 113 -139 113q-112 0 -170 -86.5
t-58 -216.5q0 -134 57.5 -203.5t162.5 -69.5q151 0 151 127q0 13 -4 29q-2 4 -2 10h94l4 -14q4 -20 4 -43q0 -94 -69.5 -146.5t-171.5 -52.5z" />
    <glyph glyph-name="ordfeminine" unicode="&#xaa;" horiz-adv-x="729" 
d="M639 1182v-434h-121v83q-27 -41 -80.5 -69.5t-120.5 -28.5q-110 0 -166.5 54t-56.5 147q0 96 64.5 143t181.5 62q102 12 136 34t34 72t-41.5 71t-93.5 21q-139 0 -139 -96q0 -11 4 -31l4 -14h-111l-8 21q-8 19 -8 51q0 81 69.5 129.5t192.5 48.5q37 0 68 -4.5t68.5 -21
t63 -43.5t43 -77t17.5 -118zM514 1008v96q-30 -48 -158 -66q-76 -10 -107.5 -34.5t-31.5 -67.5q0 -96 121 -96q83 0 129.5 50t46.5 118z" />
    <glyph glyph-name="guillemotleft" unicode="&#xab;" horiz-adv-x="1054" 
d="M410 121l-322 411l322 412h182l-322 -412l322 -411h-182zM774 121l-321 411l321 412h182l-321 -412l321 -411h-182z" />
    <glyph glyph-name="logicalnot" unicode="&#xac;" horiz-adv-x="995" 
d="M106 680v139h777v-510h-144v371h-633z" />
    <glyph glyph-name="uni00AD" unicode="&#xad;" horiz-adv-x="815" 
d="M106 539v163h601v-163h-601z" />
    <glyph glyph-name="registered" unicode="&#xae;" horiz-adv-x="1669" 
d="M96 717q0 212 99.5 381.5t267.5 261.5t371 92q152 0 287 -54t234.5 -149.5t157.5 -233.5t58 -298q0 -214 -99 -383.5t-267 -261.5t-371 -92t-371 92t-267.5 261.5t-99.5 383.5zM193 717q0 -143 50.5 -264.5t137 -204.5t204 -129.5t249.5 -46.5t249.5 46.5t204.5 129.5
t138 204.5t51 264.5q0 189 -87 337t-233 227t-323 79t-322.5 -79t-232 -227t-86.5 -337zM711 350h-107v735h215q46 0 81.5 -4t73 -17t62.5 -34.5t40.5 -59t15.5 -87.5q0 -148 -125 -191l145 -342h-121l-133 330h-147v-330zM823 993h-112v-221h112q84 0 122 21.5t38 93.5
q0 64 -40.5 85t-119.5 21z" />
    <glyph glyph-name="macron" unicode="&#xaf;" horiz-adv-x="548" 
d="M16 1210v136h519v-136h-519z" />
    <glyph glyph-name="degree" unicode="&#xb0;" horiz-adv-x="923" 
d="M147 1122q0 139 91.5 227.5t224.5 88.5t223 -88.5t90 -227.5q0 -140 -90 -227.5t-223 -87.5q-135 0 -225.5 85.5t-90.5 229.5zM244 1122q0 -107 62 -169t157 -62q99 0 159 61.5t60 169.5q0 107 -60.5 168.5t-158.5 61.5q-94 0 -156.5 -63.5t-62.5 -166.5z" />
    <glyph glyph-name="plusminus" unicode="&#xb1;" 
d="M133 575v148h367v289h153v-289h367v-148h-367v-284h-153v284h-367zM133 0v147h887v-147h-887z" />
    <glyph glyph-name="twosuperior" unicode="&#xb2;" horiz-adv-x="647" 
d="M418 1059l-160 -162h342v-125h-522v121l209 213q85 87 119 141.5t34 122.5q0 59 -31 90t-81 31t-77.5 -22t-27.5 -58q0 -21 2 -25l4 -12h-129l-6 19q-6 15 -6 43q0 77 65.5 130.5t172.5 53.5q119 0 189.5 -63t70.5 -177q0 -153 -168 -321z" />
    <glyph glyph-name="threesuperior" unicode="&#xb3;" horiz-adv-x="649" 
d="M113 1481v127h448v-121l-196 -207q100 0 165.5 -63.5t65.5 -190.5t-70 -196.5t-194 -69.5q-107 0 -178.5 52t-71.5 146q0 33 8 52l8 20h131l-6 -16q-4 -28 -4 -41q0 -42 31 -64t86 -22q58 0 89.5 36t31.5 107q0 75 -35 110.5t-90 35.5q-30 0 -51 -9l-21 -6l-76 90
l211 230h-282z" />
    <glyph glyph-name="acute" unicode="&#xb4;" horiz-adv-x="462" 
d="M453 1438l-283 -269h-162l195 269h250z" />
    <glyph glyph-name="mu" unicode="&#xb5;" horiz-adv-x="1103" 
d="M791 446v578h170v-1024h-168v135q-12 -22 -32.5 -45.5t-52.5 -50t-80 -43t-102 -16.5q-79 0 -130.5 24.5t-73.5 58.5v-473h-168v1434h170v-582q0 -163 52.5 -234t164.5 -71q40 0 74.5 8.5t67.5 30.5t56.5 56.5t37.5 89t14 124.5z" />
    <glyph glyph-name="mu" unicode="&#x3bc;" horiz-adv-x="1103" 
d="M791 446v578h170v-1024h-168v135q-12 -22 -32.5 -45.5t-52.5 -50t-80 -43t-102 -16.5q-79 0 -130.5 24.5t-73.5 58.5v-473h-168v1434h170v-582q0 -163 52.5 -234t164.5 -71q40 0 74.5 8.5t67.5 30.5t56.5 56.5t37.5 89t14 124.5z" />
    <glyph glyph-name="paragraph" unicode="&#xb6;" horiz-adv-x="858" 
d="M805 1434v-103h-111v-1470h-110v1470h-183v-1470h-112v1069q-104 0 -178 74t-74 178t74 178t178 74h516z" />
    <glyph glyph-name="periodcentered" unicode="&#xb7;" horiz-adv-x="708" 
d="M205 578q0 65 42.5 107t104.5 42q63 0 106.5 -42t43.5 -107t-43.5 -106.5t-106.5 -41.5q-62 0 -104.5 41.5t-42.5 106.5z" />
    <glyph glyph-name="cedilla" unicode="&#xb8;" horiz-adv-x="444" 
d="M152 -156v90l28 9q24 8 72 8q199 0 199 -154q0 -84 -57.5 -136t-174.5 -52q-197 0 -227 149l110 27q19 -78 127 -78q43 0 74 17.5t31 60.5q0 72 -103 72q-10 0 -59 -7z" />
    <glyph glyph-name="onesuperior" unicode="&#xb9;" horiz-adv-x="622" 
d="M82 772v125h188v485h-190v103q106 0 155.5 26.5t61.5 96.5h117v-711h174v-125h-506z" />
    <glyph glyph-name="ordmasculine" unicode="&#xba;" horiz-adv-x="827" 
d="M416 735q-82 0 -143.5 27.5t-97 75.5t-52.5 106.5t-17 128.5q0 101 32.5 183.5t104.5 136t173 53.5t173 -54t104 -136.5t32 -182.5q0 -144 -79 -241t-230 -97zM416 1329q-40 0 -72 -17t-51.5 -43t-32 -61t-17.5 -68t-5 -67q0 -40 8 -76t27 -70t55.5 -54.5t87.5 -20.5
q50 0 86 18.5t55.5 51.5t28 70t8.5 81t-8.5 85.5t-27 81.5t-55.5 64.5t-87 24.5z" />
    <glyph glyph-name="guillemotright" unicode="&#xbb;" horiz-adv-x="1054" 
d="M967 532l-322 -411h-182l321 411l-321 412h182zM602 532l-321 -411h-183l322 411l-322 412h183z" />
    <glyph glyph-name="onequarter" unicode="&#xbc;" horiz-adv-x="1642" 
d="M1223 836h192v-510h94v-125h-94v-201h-139v201h-346v118zM1069 326h207v370zM74 565v125h188v486h-190v102q106 0 155.5 26.5t61.5 96.5h117v-711h174v-125h-506zM1040 1473l70 -21l-567 -1501l-72 16z" />
    <glyph glyph-name="onehalf" unicode="&#xbd;" horiz-adv-x="1605" 
d="M1350 287l-160 -162h342v-125h-522v121l209 213q85 87 119 141.5t34 122.5q0 59 -31 90t-81 31t-77.5 -22t-27.5 -58q0 -21 2 -25l4 -12h-129l-6 19q-6 15 -6 43q0 78 65 131t172 53q119 0 190 -63t71 -177q0 -153 -168 -321zM74 565v125h188v486h-190v102
q106 0 155.5 26.5t61.5 96.5h117v-711h174v-125h-506zM1040 1473l70 -21l-567 -1501l-72 16z" />
    <glyph glyph-name="threequarters" unicode="&#xbe;" horiz-adv-x="1669" 
d="M1249 836h193v-510h94v-125h-94v-201h-139v201h-347v118zM1096 326h207v370zM1067 1473l70 -21l-568 -1501l-71 16zM115 1274v127h448v-121l-196 -207q100 0 165.5 -63.5t65.5 -190.5t-70 -196.5t-194 -69.5q-107 0 -178.5 52.5t-71.5 146.5q0 32 8 51l8 20h131l-6 -16
q-4 -28 -4 -41q0 -42 31 -64t86 -22q58 0 89.5 36t31.5 107q0 75 -35 110.5t-90 35.5q-32 0 -51 -8l-21 -7l-76 90l211 230h-282z" />
    <glyph glyph-name="questiondown" unicode="&#xbf;" horiz-adv-x="1038" 
d="M897 -102q0 -139 -109 -233.5t-278 -94.5q-183 0 -295.5 95t-112.5 265q0 54 11.5 102.5t24.5 81t43.5 71.5t47 56.5t57.5 56.5t54 52q55 56 78.5 107.5t23.5 136.5v49h164v-53q0 -104 -27 -172t-90 -135q-22 -25 -71.5 -73t-75.5 -77t-49 -80t-23 -106q0 -101 61.5 -161
t170.5 -60t169 51t60 139q0 38 -12 74l-10 28h159l15 -30q14 -54 14 -90zM645 920q0 -54 -35.5 -88.5t-89.5 -34.5q-52 0 -87.5 35t-35.5 88t35.5 88.5t87.5 35.5q54 0 89.5 -35t35.5 -89z" />
    <glyph glyph-name="Agrave" unicode="&#xc0;" horiz-adv-x="1257" 
d="M1047 0l-129 377h-578l-129 -377h-195l514 1434h197l514 -1434h-194zM629 1227l-236 -690h471zM537 1561l-285 268h260l193 -268h-168z" />
    <glyph glyph-name="Aacute" unicode="&#xc1;" horiz-adv-x="1257" 
d="M1047 0l-129 377h-578l-129 -377h-195l514 1434h197l514 -1434h-194zM629 1227l-236 -690h471zM1004 1829l-283 -268h-166l195 268h254z" />
    <glyph glyph-name="Acircumflex" unicode="&#xc2;" horiz-adv-x="1257" 
d="M1047 0l-129 377h-578l-129 -377h-195l514 1434h197l514 -1434h-194zM629 1227l-236 -690h471zM735 1825l195 -269h-142l-163 144l-162 -144h-139l198 269h213z" />
    <glyph glyph-name="Atilde" unicode="&#xc3;" horiz-adv-x="1257" 
d="M1047 0l-129 377h-578l-129 -377h-195l514 1434h197l514 -1434h-194zM629 1227l-236 -690h471zM770 1573q-56 0 -150.5 41t-121.5 41q-58 0 -58 -62v-18q0 -8 2 -10h-100l-6 30q-4 32 -4 56q0 72 42 113.5t111 41.5q53 0 144.5 -42t126.5 -42q59 0 59 60q0 3 -1 10t-1 10
q-2 4 -2 10h102l5 -26q4 -32 4 -57q0 -73 -42 -114.5t-110 -41.5z" />
    <glyph glyph-name="Adieresis" unicode="&#xc4;" horiz-adv-x="1257" 
d="M1047 0l-129 377h-578l-129 -377h-195l514 1434h197l514 -1434h-194zM629 1227l-236 -690h471zM326 1663q0 51 35 86t85 35t84.5 -35t34.5 -86q0 -49 -34.5 -84t-84.5 -35t-85 35t-35 84zM688 1663q0 50 35.5 85.5t83.5 35.5q51 0 86 -35t35 -86q0 -50 -35 -84.5
t-86 -34.5q-48 0 -83.5 35t-35.5 84z" />
    <glyph glyph-name="Aring" unicode="&#xc5;" horiz-adv-x="1257" 
d="M1047 0l-129 377h-578l-129 -377h-195l514 1434h197l514 -1434h-194zM629 1227l-236 -690h471zM416 1741q0 91 61.5 151t149.5 60t149.5 -60t61.5 -151q0 -89 -61.5 -148t-149.5 -59q-90 0 -150.5 56t-60.5 151zM518 1741q0 -53 30.5 -84t78.5 -31q45 0 76.5 31.5
t31.5 83.5q0 55 -31.5 86t-76.5 31q-49 0 -79 -30.5t-30 -86.5z" />
    <glyph glyph-name="AE" unicode="&#xc6;" horiz-adv-x="1572" 
d="M1446 160v-160h-666v365h-409l-164 -365h-199l660 1434h782v-160h-489v-463h448v-160h-448v-491h485zM436 522h344v762z" />
    <glyph glyph-name="Ccedilla" unicode="&#xc7;" horiz-adv-x="1247" 
d="M705 -20q-306 0 -460.5 188t-154.5 518q0 109 22 215t72 207t121.5 177t179.5 122.5t238 46.5q190 0 307 -95t117 -249q0 -52 -10 -90q-1 -8 -4.5 -21t-4.5 -16h-165l6 25q6 42 6 59q0 221 -258 221q-198 0 -319.5 -163.5t-121.5 -438.5q0 -144 34 -251.5t93.5 -169
t132 -91t158.5 -29.5q140 0 212.5 63t72.5 175q0 48 -8 72l-6 28h172q0 -2 3.5 -15.5t4.5 -21.5q10 -38 10 -96q0 -73 -29.5 -139.5t-85 -118t-142.5 -82t-193 -30.5zM559 -156v90l29 9q24 8 71 8q199 0 199 -154q0 -84 -57 -136t-174 -52q-88 0 -150 35t-78 114l111 27
q19 -78 127 -78q43 0 73.5 17.5t30.5 60.5q0 72 -102 72q-10 0 -59 -7z" />
    <glyph glyph-name="Egrave" unicode="&#xc8;" horiz-adv-x="1081" 
d="M958 162v-162h-786v1434h786v-162h-606v-461h566v-162h-566v-487h606zM518 1561l-285 268h261l192 -268h-168z" />
    <glyph glyph-name="Eacute" unicode="&#xc9;" horiz-adv-x="1081" 
d="M899 1829l-283 -268h-165l194 268h254zM958 162v-162h-786v1434h786v-162h-606v-461h566v-162h-566v-487h606z" />
    <glyph glyph-name="Ecircumflex" unicode="&#xca;" horiz-adv-x="1081" 
d="M666 1825l194 -269h-141l-164 144l-162 -144h-139l199 269h213zM958 162v-162h-786v1434h786v-162h-606v-461h566v-162h-566v-487h606z" />
    <glyph glyph-name="Edieresis" unicode="&#xcb;" horiz-adv-x="1081" 
d="M260 1663q0 51 35.5 86t85.5 35t84.5 -35t34.5 -86q0 -49 -35 -84t-84 -35q-50 0 -85.5 35t-35.5 84zM623 1663q0 50 35 85.5t83 35.5q51 0 86 -35t35 -86q0 -50 -35 -84.5t-86 -34.5q-48 0 -83 35t-35 84zM958 162v-162h-786v1434h786v-162h-606v-461h566v-162h-566
v-487h606z" />
    <glyph glyph-name="Igrave" unicode="&#xcc;" horiz-adv-x="528" 
d="M356 0h-186v1434h186v-1434zM180 1561l-284 268h260l192 -268h-168z" />
    <glyph glyph-name="Iacute" unicode="&#xcd;" horiz-adv-x="528" 
d="M356 0h-186v1434h186v-1434zM631 1829l-283 -268h-166l195 268h254z" />
    <glyph glyph-name="Icircumflex" unicode="&#xce;" horiz-adv-x="528" 
d="M356 0h-186v1434h186v-1434zM375 1825l194 -269h-141l-164 144l-162 -144h-139l199 269h213z" />
    <glyph glyph-name="Idieresis" unicode="&#xcf;" horiz-adv-x="528" 
d="M356 0h-186v1434h186v-1434zM-35 1663q0 51 35.5 86t85.5 35t84.5 -35t34.5 -86q0 -49 -34.5 -84t-84.5 -35t-85.5 35t-35.5 84zM328 1663q0 50 35 85.5t83 35.5q51 0 86 -35t35 -86q0 -50 -35 -84.5t-86 -34.5q-48 0 -83 35t-35 84z" />
    <glyph glyph-name="Eth" unicode="&#xd0;" horiz-adv-x="1335" 
d="M20 815h699v-153h-699v153zM621 0h-437v1434h430q294 0 462.5 -194t168.5 -554q0 -118 -21.5 -219t-69 -188t-119 -148t-177 -96t-237.5 -35zM365 162h241q65 0 123.5 12t120.5 46.5t106.5 90t73.5 150.5t29 219q0 136 -25 240.5t-66 170t-101 107t-123 58t-138 16.5
h-241v-1110z" />
    <glyph glyph-name="Ntilde" unicode="&#xd1;" horiz-adv-x="1376" 
d="M350 0h-178v1434h246l608 -1170v1170h178v-1434h-229l-625 1204v-1204zM846 1573q-56 0 -151 41t-122 41q-57 0 -57 -62v-18q0 -8 2 -10h-100l-6 30q-4 32 -4 56q0 72 42 113.5t111 41.5q53 0 144 -42t126 -42q60 0 60 60q0 3 -1 10t-1 10q-2 4 -2 10h102l4 -26
q4 -32 4 -57q0 -73 -41.5 -114.5t-109.5 -41.5z" />
    <glyph glyph-name="Ograve" unicode="&#xd2;" horiz-adv-x="1409" 
d="M705 -20q-288 0 -451.5 189t-163.5 517q0 164 41.5 304t118 243.5t194 162t261.5 58.5q116 0 215 -39.5t172 -109.5t124.5 -166t77 -211t25.5 -242q0 -323 -164 -514.5t-450 -191.5zM705 1288q-138 0 -236.5 -82t-145.5 -216.5t-47 -307.5q0 -250 109.5 -393.5
t319.5 -143.5t317.5 143.5t107.5 393.5q0 179 -46 313.5t-143 213.5t-236 79zM641 1561l-285 268h260l193 -268h-168z" />
    <glyph glyph-name="Oacute" unicode="&#xd3;" horiz-adv-x="1409" 
d="M1044 1829l-282 -268h-166l195 268h253zM705 -20q-288 0 -451.5 189t-163.5 517q0 164 41.5 304t118 243.5t194 162t261.5 58.5q116 0 215 -39.5t172 -109.5t124.5 -166t77 -211t25.5 -242q0 -323 -164 -514.5t-450 -191.5zM705 1288q-138 0 -236.5 -82t-145.5 -216.5
t-47 -307.5q0 -250 109.5 -393.5t319.5 -143.5t317.5 143.5t107.5 393.5q0 179 -46 313.5t-143 213.5t-236 79z" />
    <glyph glyph-name="Ocircumflex" unicode="&#xd4;" horiz-adv-x="1409" 
d="M811 1825l195 -269h-142l-164 144l-161 -144h-140l199 269h213zM705 -20q-288 0 -451.5 189t-163.5 517q0 164 41.5 304t118 243.5t194 162t261.5 58.5q116 0 215 -39.5t172 -109.5t124.5 -166t77 -211t25.5 -242q0 -323 -164 -514.5t-450 -191.5zM705 1288
q-138 0 -236.5 -82t-145.5 -216.5t-47 -307.5q0 -250 109.5 -393.5t319.5 -143.5t317.5 143.5t107.5 393.5q0 179 -46 313.5t-143 213.5t-236 79z" />
    <glyph glyph-name="Otilde" unicode="&#xd5;" horiz-adv-x="1409" 
d="M705 -20q-288 0 -451.5 189t-163.5 517q0 164 41.5 304t118 243.5t194 162t261.5 58.5q116 0 215 -39.5t172 -109.5t124.5 -166t77 -211t25.5 -242q0 -323 -164 -514.5t-450 -191.5zM705 1288q-138 0 -236.5 -82t-145.5 -216.5t-47 -307.5q0 -250 109.5 -393.5
t319.5 -143.5t317.5 143.5t107.5 393.5q0 179 -46 313.5t-143 213.5t-236 79zM846 1573q-56 0 -151 41t-122 41q-57 0 -57 -62v-18q0 -8 2 -10h-100l-6 30q-4 32 -4 56q0 72 42 113.5t111 41.5q53 0 144 -42t126 -42q60 0 60 60q0 3 -1 10t-1 10q-2 4 -2 10h102l4 -26
q4 -32 4 -57q0 -73 -41.5 -114.5t-109.5 -41.5z" />
    <glyph glyph-name="Odieresis" unicode="&#xd6;" horiz-adv-x="1409" 
d="M401 1663q0 51 35.5 86t85.5 35t84.5 -35t34.5 -86q0 -49 -34.5 -84t-84.5 -35t-85.5 35t-35.5 84zM764 1663q0 50 35.5 85.5t83.5 35.5q51 0 86 -35t35 -86q0 -50 -35 -84.5t-86 -34.5q-48 0 -83.5 35t-35.5 84zM705 -20q-288 0 -451.5 189t-163.5 517q0 164 41.5 304
t118 243.5t194 162t261.5 58.5q116 0 215 -39.5t172 -109.5t124.5 -166t77 -211t25.5 -242q0 -323 -164 -514.5t-450 -191.5zM705 1288q-138 0 -236.5 -82t-145.5 -216.5t-47 -307.5q0 -250 109.5 -393.5t319.5 -143.5t317.5 143.5t107.5 393.5q0 179 -46 313.5t-143 213.5
t-236 79z" />
    <glyph glyph-name="multiply" unicode="&#xd7;" 
d="M285 145l-105 105l289 289l-289 288l109 109l289 -289l286 287l105 -105l-287 -286l291 -291l-109 -109l-291 291z" />
    <glyph glyph-name="Oslash" unicode="&#xd8;" horiz-adv-x="1409" 
d="M705 -20q-196 0 -336 88l-88 -142l-113 66l100 160q-178 187 -178 534q0 164 41.5 304t118 243.5t194 162t261.5 58.5q182 0 325 -100l94 149l109 -69l-105 -166q93 -105 142 -256t49 -326q0 -323 -164 -514.5t-450 -191.5zM1130 682q0 267 -102 426l-565 -895
q95 -68 242 -68q210 0 317.5 143.5t107.5 393.5zM705 1288q-138 0 -236.5 -82t-145.5 -216.5t-47 -307.5q0 -235 93 -371l569 899q-100 78 -233 78z" />
    <glyph glyph-name="Ugrave" unicode="&#xd9;" horiz-adv-x="1335" 
d="M1171 1434v-947q0 -73 -13.5 -141t-49.5 -136t-90.5 -118t-144 -81t-203.5 -31q-115 0 -204.5 28t-146 75t-92.5 113.5t-50.5 137.5t-14.5 153v947h186v-942q0 -97 27 -166.5t74.5 -106.5t101.5 -53t119 -16q49 0 92 9.5t85.5 33.5t73 61.5t49.5 98.5t19 139v942h182z
M618 1561l-284 268h260l192 -268h-168z" />
    <glyph glyph-name="Uacute" unicode="&#xda;" horiz-adv-x="1335" 
d="M985 1829l-283 -268h-165l194 268h254zM1171 1434v-947q0 -73 -13.5 -141t-49.5 -136t-90.5 -118t-144 -81t-203.5 -31q-115 0 -204.5 28t-146 75t-92.5 113.5t-50.5 137.5t-14.5 153v947h186v-942q0 -97 27 -166.5t74.5 -106.5t101.5 -53t119 -16q49 0 92 9.5t85.5 33.5
t73 61.5t49.5 98.5t19 139v942h182z" />
    <glyph glyph-name="Ucircumflex" unicode="&#xdb;" horiz-adv-x="1335" 
d="M774 1825l195 -269h-142l-163 144l-162 -144h-140l199 269h213zM1171 1434v-947q0 -73 -13.5 -141t-49.5 -136t-90.5 -118t-144 -81t-203.5 -31q-115 0 -204.5 28t-146 75t-92.5 113.5t-50.5 137.5t-14.5 153v947h186v-942q0 -97 27 -166.5t74.5 -106.5t101.5 -53
t119 -16q49 0 92 9.5t85.5 33.5t73 61.5t49.5 98.5t19 139v942h182z" />
    <glyph glyph-name="Udieresis" unicode="&#xdc;" horiz-adv-x="1335" 
d="M365 1663q0 51 35 86t85 35t84.5 -35t34.5 -86q0 -49 -35 -84t-84 -35q-50 0 -85 35t-35 84zM727 1663q0 50 35.5 85.5t83.5 35.5q51 0 86 -35t35 -86q0 -50 -35 -84.5t-86 -34.5q-48 0 -83.5 35t-35.5 84zM1171 1434v-947q0 -73 -13.5 -141t-49.5 -136t-90.5 -118
t-144 -81t-203.5 -31q-115 0 -204.5 28t-146 75t-92.5 113.5t-50.5 137.5t-14.5 153v947h186v-942q0 -97 27 -166.5t74.5 -106.5t101.5 -53t119 -16q49 0 92 9.5t85.5 33.5t73 61.5t49.5 98.5t19 139v942h182z" />
    <glyph glyph-name="Yacute" unicode="&#xdd;" horiz-adv-x="1095" 
d="M457 571l-453 863h205l338 -686l340 686h205l-453 -863v-571h-182v571zM883 1829l-283 -268h-166l195 268h254z" />
    <glyph glyph-name="Thorn" unicode="&#xde;" horiz-adv-x="1136" 
d="M352 0h-180v1434h180v-263h279q212 0 332 -109t120 -284q0 -62 -13 -117t-45 -108t-82 -90.5t-129.5 -60.5t-180.5 -23h-281v-379zM598 1014h-246v-475h248q72 0 122.5 9t95 33t67 72t22.5 119q0 57 -16 100.5t-43.5 70t-68 43t-84 22.5t-97.5 6z" />
    <glyph glyph-name="germandbls" unicode="&#xdf;" horiz-adv-x="1198" 
d="M1008 266q0 52 -28.5 87.5t-74 55.5t-100.5 36t-110 36.5t-100.5 49t-74 81t-28.5 125.5q0 126 69 197.5t195 89.5q0 21 2 33q4 36 4 65q0 54 -11 99t-35.5 83.5t-69.5 60t-107 21.5q-106 0 -158.5 -66.5t-52.5 -176.5v-1143h-170v877h-138v147h140v119q0 174 99 283.5
t284 109.5q178 0 276.5 -105t98.5 -284q0 -115 -27 -264q-11 0 -17 2q-4 0 -17.5 1t-22.5 1q-75 0 -129 -34t-54 -103q0 -40 22.5 -69t59 -45.5t83 -32.5t95.5 -29.5t95.5 -38t83 -55.5t59 -84.5t22.5 -123.5q0 -142 -96.5 -218.5t-249.5 -76.5q-63 0 -121.5 12t-116.5 39.5
t-93 82.5t-35 131q0 31 12 77l12 35h156l-10 -20q-8 -19 -8 -58q0 -81 55 -115t155 -34q79 0 128 34.5t49 104.5z" />
    <glyph glyph-name="agrave" unicode="&#xe0;" horiz-adv-x="1028" 
d="M883 664v-664h-162v123h-6q-43 -64 -122.5 -103.5t-176.5 -39.5q-162 0 -246 80.5t-84 215.5q0 71 25.5 124.5t75.5 88.5t114 56.5t152 34.5q156 24 206 59t50 113q0 44 -19.5 74t-53 44t-65 19.5t-67.5 5.5q-221 0 -221 -150q0 -32 10 -59q2 -8 10 -20h-156l-12 30
q-12 36 -12 82q0 121 100 193.5t281 72.5q260 0 342 -163q37 -75 37 -217zM717 385v145h-6q-37 -64 -236 -92q-121 -17 -171 -55t-50 -107q0 -68 44.5 -108.5t143.5 -40.5q129 0 202 76t73 182zM469 1171l-285 269h260l193 -269h-168z" />
    <glyph glyph-name="aacute" unicode="&#xe1;" horiz-adv-x="1028" 
d="M883 664v-664h-162v123h-6q-43 -64 -122.5 -103.5t-176.5 -39.5q-162 0 -246 80.5t-84 215.5q0 71 25.5 124.5t75.5 88.5t114 56.5t152 34.5q156 24 206 59t50 113q0 44 -19.5 74t-53 44t-65 19.5t-67.5 5.5q-221 0 -221 -150q0 -32 10 -59q2 -8 10 -20h-156l-12 30
q-12 36 -12 82q0 121 100 193.5t281 72.5q260 0 342 -163q37 -75 37 -217zM717 385v145h-6q-37 -64 -236 -92q-121 -17 -171 -55t-50 -107q0 -68 44.5 -108.5t143.5 -40.5q129 0 202 76t73 182zM838 1438l-283 -269h-162l195 269h250z" />
    <glyph glyph-name="acircumflex" unicode="&#xe2;" horiz-adv-x="1028" 
d="M883 664v-664h-162v123h-6q-43 -64 -122.5 -103.5t-176.5 -39.5q-162 0 -246 80.5t-84 215.5q0 71 25.5 124.5t75.5 88.5t114 56.5t152 34.5q156 24 206 59t50 113q0 44 -19.5 74t-53 44t-65 19.5t-67.5 5.5q-221 0 -221 -150q0 -32 10 -59q2 -8 10 -20h-156l-12 30
q-12 36 -12 82q0 121 100 193.5t281 72.5q260 0 342 -163q37 -75 37 -217zM717 385v145h-6q-37 -64 -236 -92q-121 -17 -171 -55t-50 -107q0 -68 44.5 -108.5t143.5 -40.5q129 0 202 76t73 182zM621 1434l194 -269h-141l-164 144l-162 -144h-139l199 269h213z" />
    <glyph glyph-name="atilde" unicode="&#xe3;" horiz-adv-x="1028" 
d="M883 664v-664h-162v123h-6q-43 -64 -122.5 -103.5t-176.5 -39.5q-162 0 -246 80.5t-84 215.5q0 71 25.5 124.5t75.5 88.5t114 56.5t152 34.5q156 24 206 59t50 113q0 44 -19.5 74t-53 44t-65 19.5t-67.5 5.5q-221 0 -221 -150q0 -32 10 -59q2 -8 10 -20h-156l-12 30
q-12 36 -12 82q0 121 100 193.5t281 72.5q260 0 342 -163q37 -75 37 -217zM717 385v145h-6q-37 -64 -236 -92q-121 -17 -171 -55t-50 -107q0 -68 44.5 -108.5t143.5 -40.5q129 0 202 76t73 182zM655 1194q-56 0 -150.5 41t-121.5 41q-57 0 -57 -64v-18q0 -8 2 -10h-101
l-6 30q-4 32 -4 56q0 73 42.5 114t111.5 41q53 0 144 -41t126 -41q59 0 59 60q0 3 -1 10t-1 10q-2 4 -2 9h103l4 -27q4 -32 4 -57q0 -72 -42 -113t-110 -41z" />
    <glyph glyph-name="adieresis" unicode="&#xe4;" horiz-adv-x="1028" 
d="M883 664v-664h-162v123h-6q-43 -64 -122.5 -103.5t-176.5 -39.5q-162 0 -246 80.5t-84 215.5q0 71 25.5 124.5t75.5 88.5t114 56.5t152 34.5q156 24 206 59t50 113q0 44 -19.5 74t-53 44t-65 19.5t-67.5 5.5q-221 0 -221 -150q0 -32 10 -59q2 -8 10 -20h-156l-12 30
q-12 36 -12 82q0 121 100 193.5t281 72.5q260 0 342 -163q37 -75 37 -217zM717 385v145h-6q-37 -64 -236 -92q-121 -17 -171 -55t-50 -107q0 -68 44.5 -108.5t143.5 -40.5q129 0 202 76t73 182zM197 1319q0 51 35 85t85 34t84.5 -34t34.5 -85t-34.5 -86t-84.5 -35t-85 35
t-35 86zM559 1319q0 50 35.5 84.5t83.5 34.5q51 0 86 -34t35 -85t-35 -86t-86 -35q-48 0 -83.5 35.5t-35.5 85.5z" />
    <glyph glyph-name="aring" unicode="&#xe5;" horiz-adv-x="1028" 
d="M883 664v-664h-162v123h-6q-43 -64 -122.5 -103.5t-176.5 -39.5q-162 0 -246 80.5t-84 215.5q0 71 25.5 124.5t75.5 88.5t114 56.5t152 34.5q156 24 206 59t50 113q0 44 -19.5 74t-53 44t-65 19.5t-67.5 5.5q-221 0 -221 -150q0 -32 10 -59q2 -8 10 -20h-156l-12 30
q-12 36 -12 82q0 121 100 193.5t281 72.5q260 0 342 -163q37 -75 37 -217zM717 385v145h-6q-37 -64 -236 -92q-121 -17 -171 -55t-50 -107q0 -68 44.5 -108.5t143.5 -40.5q129 0 202 76t73 182zM301 1401q0 91 61.5 151t149.5 60t149.5 -60t61.5 -151q0 -89 -61.5 -148
t-149.5 -59q-90 0 -150.5 56t-60.5 151zM403 1401q0 -53 30.5 -84t78.5 -31q45 0 77 31.5t32 83.5q0 54 -32 85.5t-77 31.5q-49 0 -79 -30.5t-30 -86.5z" />
    <glyph glyph-name="ae" unicode="&#xe6;" horiz-adv-x="1626" 
d="M1163 133q99 0 148 38.5t49 107.5q0 12 -4 32q-2 6 -2 15h153l6 -19q7 -49 7 -57q0 -106 -96.5 -188t-252.5 -82q-122 0 -220.5 46t-149.5 144q-51 -98 -142.5 -144t-232.5 -46q-156 0 -248 78t-92 212q0 63 18 112t47.5 81.5t74.5 56t93 36.5t109 22q42 5 64.5 8.5t55 9
t49 11.5t38.5 15t32.5 20.5t21 27t14.5 35.5t4 45q0 43 -19.5 73.5t-52.5 45t-66.5 20.5t-70.5 6q-215 0 -215 -150q0 -36 10 -59q2 -8 10 -20h-156l-12 30q-12 36 -12 80q0 123 103.5 195.5t260.5 72.5q255 0 338 -157q121 157 326 157q96 0 171.5 -32.5t122.5 -89
t71 -129.5t24 -158q0 -71 -10 -123l-8 -45h-641q-4 -164 70 -249t212 -85zM715 399v138h-6q-22 -44 -74.5 -63.5t-151.5 -31.5q-130 -17 -180.5 -53t-50.5 -110q0 -69 50 -110.5t149 -41.5q136 0 200 73.5t64 198.5zM1145 891q-111 0 -179.5 -82.5t-76.5 -196.5h483
q4 54 -5.5 101t-33.5 88.5t-72 65.5t-116 24z" />
    <glyph glyph-name="ccedilla" unicode="&#xe7;" horiz-adv-x="972" 
d="M721 743q0 75 -53.5 111.5t-132.5 36.5q-54 0 -98 -17.5t-73.5 -48.5t-51.5 -69.5t-33.5 -84.5t-17 -88.5t-5.5 -86.5q0 -76 15.5 -139.5t47.5 -114.5t88 -80t132 -29q196 0 196 178q0 19 -6 49l-4 17h154l6 -27q8 -21 8 -55q0 -153 -95.5 -234t-252.5 -81
q-124 0 -216 41.5t-144.5 113.5t-77.5 159.5t-25 190.5q0 110 28.5 209t84 178t145.5 125.5t203 46.5q152 0 247 -75t95 -197q0 -34 -13 -84l-10 -35h-155l6 27q8 21 8 63zM412 -156v90l28 9q24 8 72 8q199 0 199 -154q0 -84 -57.5 -136t-174.5 -52q-197 0 -227 149l110 27
q19 -78 127 -78q43 0 74 17.5t31 60.5q0 72 -102 72q-11 0 -60 -7z" />
    <glyph glyph-name="egrave" unicode="&#xe8;" horiz-adv-x="1001" 
d="M539 133q58 0 98.5 13.5t60.5 36t28.5 45t8.5 48.5q0 7 -4 35l-4 17h154l6 -21q6 -42 6 -57q0 -33 -11 -68t-37 -72t-64.5 -65.5t-99 -46.5t-134.5 -18q-224 0 -344.5 136t-120.5 373q0 111 27.5 209t80.5 176.5t139.5 124t196.5 45.5q184 0 286.5 -117t102.5 -290
q0 -94 -18 -164h-647q5 -157 74.5 -248.5t214.5 -91.5zM520 893q-107 0 -176 -72.5t-86 -206.5h490q6 54 -2.5 102t-33.5 88.5t-74.5 64.5t-117.5 24zM465 1171l-285 269h260l193 -269h-168z" />
    <glyph glyph-name="eacute" unicode="&#xe9;" horiz-adv-x="1001" 
d="M868 1438l-282 -269h-162l194 269h250zM539 133q58 0 98.5 13.5t60.5 36t28.5 45t8.5 48.5q0 7 -4 35l-4 17h154l6 -21q6 -42 6 -57q0 -33 -11 -68t-37 -72t-64.5 -65.5t-99 -46.5t-134.5 -18q-224 0 -344.5 136t-120.5 373q0 111 27.5 209t80.5 176.5t139.5 124
t196.5 45.5q184 0 286.5 -117t102.5 -290q0 -94 -18 -164h-647q5 -157 74.5 -248.5t214.5 -91.5zM520 893q-107 0 -176 -72.5t-86 -206.5h490q6 54 -2.5 102t-33.5 88.5t-74.5 64.5t-117.5 24z" />
    <glyph glyph-name="ecircumflex" unicode="&#xea;" horiz-adv-x="1001" 
d="M627 1434l194 -269h-141l-164 144l-162 -144h-139l199 269h213zM539 133q58 0 98.5 13.5t60.5 36t28.5 45t8.5 48.5q0 7 -4 35l-4 17h154l6 -21q6 -42 6 -57q0 -33 -11 -68t-37 -72t-64.5 -65.5t-99 -46.5t-134.5 -18q-224 0 -344.5 136t-120.5 373q0 111 27.5 209
t80.5 176.5t139.5 124t196.5 45.5q184 0 286.5 -117t102.5 -290q0 -94 -18 -164h-647q5 -157 74.5 -248.5t214.5 -91.5zM520 893q-107 0 -176 -72.5t-86 -206.5h490q6 54 -2.5 102t-33.5 88.5t-74.5 64.5t-117.5 24z" />
    <glyph glyph-name="edieresis" unicode="&#xeb;" horiz-adv-x="1001" 
d="M219 1319q0 50 35.5 84.5t85.5 34.5t84.5 -34t34.5 -85t-34.5 -86t-84.5 -35t-85.5 35t-35.5 86zM582 1319q0 50 35 84.5t83 34.5q51 0 86 -34t35 -85t-35 -86t-86 -35q-48 0 -83 35.5t-35 85.5zM539 133q58 0 98.5 13.5t60.5 36t28.5 45t8.5 48.5q0 7 -4 35l-4 17h154
l6 -21q6 -42 6 -57q0 -33 -11 -68t-37 -72t-64.5 -65.5t-99 -46.5t-134.5 -18q-224 0 -344.5 136t-120.5 373q0 111 27.5 209t80.5 176.5t139.5 124t196.5 45.5q184 0 286.5 -117t102.5 -290q0 -94 -18 -164h-647q5 -157 74.5 -248.5t214.5 -91.5zM520 893
q-107 0 -176 -72.5t-86 -206.5h490q6 54 -2.5 102t-33.5 88.5t-74.5 64.5t-117.5 24z" />
    <glyph glyph-name="igrave" unicode="&#xec;" horiz-adv-x="471" 
d="M322 1024v-1024h-172v1024h172zM141 1171l-284 269h260l192 -269h-168z" />
    <glyph glyph-name="iacute" unicode="&#xed;" horiz-adv-x="471" 
d="M606 1438l-282 -269h-162l194 269h250zM322 1024v-1024h-172v1024h172z" />
    <glyph glyph-name="icircumflex" unicode="&#xee;" horiz-adv-x="471" 
d="M346 1434l195 -269h-142l-163 144l-162 -144h-140l199 269h213zM322 1024v-1024h-172v1024h172z" />
    <glyph glyph-name="idieresis" unicode="&#xef;" horiz-adv-x="471" 
d="M-63 1319q0 51 35 85t85 34t84.5 -34t34.5 -85t-34.5 -86t-84.5 -35t-85 35t-35 86zM299 1319q0 50 35.5 84.5t83.5 34.5q51 0 86 -34t35 -85t-35 -86t-86 -35q-48 0 -83.5 35.5t-35.5 85.5zM322 1024v-1024h-172v1024h172z" />
    <glyph glyph-name="eth" unicode="&#xf0;" horiz-adv-x="1071" 
d="M459 1198l125 72q-92 53 -209 53q-32 0 -60 -4l-22 -4v153q16 0 26 2q40 5 70 5q208 0 346 -119l168 96l51 -92l-145 -82q182 -235 182 -723q0 -125 -23 -224.5t-74.5 -180.5t-143 -125.5t-218.5 -44.5q-119 0 -208 41t-140.5 113.5t-76.5 160.5t-25 192
q0 109 28.5 207.5t83 177.5t143.5 125.5t202 46.5q110 0 194 -55q38 -21 60 -53q-38 163 -125 262l-158 -90zM537 891q-64 0 -114.5 -26.5t-81.5 -68t-51.5 -96.5t-28 -107.5t-7.5 -105.5q0 -47 7 -92t27 -94t50.5 -85t81.5 -59.5t117 -23.5q63 0 113 21t80.5 55t50.5 81
t28 94.5t8 100.5q0 54 -7.5 107t-27.5 108.5t-50.5 96.5t-80.5 67.5t-114 26.5z" />
    <glyph glyph-name="ntilde" unicode="&#xf1;" horiz-adv-x="1103" 
d="M319 569v-569h-169v1024h163v-137h4q95 157 287 157q176 0 266.5 -115t90.5 -331v-598h-173v580q0 92 -18.5 155t-52 93.5t-69 42.5t-81.5 12q-114 0 -181 -77.5t-67 -236.5zM690 1194q-56 0 -150.5 41t-121.5 41q-58 0 -58 -64v-18q0 -8 2 -10h-100l-6 30q-4 32 -4 56
q0 73 42.5 114t111.5 41q53 0 144 -41t126 -41q59 0 59 60q0 3 -1 10t-1 10q-2 4 -2 9h103l4 -27q4 -32 4 -57q0 -72 -42 -113t-110 -41z" />
    <glyph glyph-name="ograve" unicode="&#xf2;" horiz-adv-x="1071" 
d="M537 -20q-98 0 -176 28t-129.5 75.5t-86 113t-49 137.5t-14.5 153q0 87 17 167.5t54 151.5t89.5 124t128 83.5t166.5 30.5q92 0 168 -31t127.5 -84t87.5 -124.5t52.5 -151.5t16.5 -166q0 -80 -16 -152.5t-51.5 -138t-87.5 -113t-128 -75.5t-169 -28zM537 891
q-79 0 -137 -39t-87.5 -102.5t-43 -129t-13.5 -133.5q0 -47 7 -92t26.5 -94t49.5 -85t81 -59.5t117 -23.5q64 0 113.5 21t80 55t50 81t27 94.5t7.5 100.5q0 55 -7.5 107.5t-27 108t-50 96.5t-80.5 67.5t-113 26.5zM469 1171l-285 269h260l193 -269h-168z" />
    <glyph glyph-name="oacute" unicode="&#xf3;" horiz-adv-x="1071" 
d="M862 1438l-282 -269h-162l194 269h250zM537 -20q-98 0 -176 28t-129.5 75.5t-86 113t-49 137.5t-14.5 153q0 87 17 167.5t54 151.5t89.5 124t128 83.5t166.5 30.5q92 0 168 -31t127.5 -84t87.5 -124.5t52.5 -151.5t16.5 -166q0 -80 -16 -152.5t-51.5 -138t-87.5 -113
t-128 -75.5t-169 -28zM537 891q-79 0 -137 -39t-87.5 -102.5t-43 -129t-13.5 -133.5q0 -47 7 -92t26.5 -94t49.5 -85t81 -59.5t117 -23.5q64 0 113.5 21t80 55t50 81t27 94.5t7.5 100.5q0 55 -7.5 107.5t-27 108t-50 96.5t-80.5 67.5t-113 26.5z" />
    <glyph glyph-name="ocircumflex" unicode="&#xf4;" horiz-adv-x="1071" 
d="M643 1434l195 -269h-142l-164 144l-161 -144h-140l199 269h213zM537 -20q-98 0 -176 28t-129.5 75.5t-86 113t-49 137.5t-14.5 153q0 87 17 167.5t54 151.5t89.5 124t128 83.5t166.5 30.5q92 0 168 -31t127.5 -84t87.5 -124.5t52.5 -151.5t16.5 -166q0 -80 -16 -152.5
t-51.5 -138t-87.5 -113t-128 -75.5t-169 -28zM537 891q-79 0 -137 -39t-87.5 -102.5t-43 -129t-13.5 -133.5q0 -47 7 -92t26.5 -94t49.5 -85t81 -59.5t117 -23.5q64 0 113.5 21t80 55t50 81t27 94.5t7.5 100.5q0 55 -7.5 107.5t-27 108t-50 96.5t-80.5 67.5t-113 26.5z" />
    <glyph glyph-name="otilde" unicode="&#xf5;" horiz-adv-x="1071" 
d="M537 -20q-98 0 -176 28t-129.5 75.5t-86 113t-49 137.5t-14.5 153q0 87 17 167.5t54 151.5t89.5 124t128 83.5t166.5 30.5q92 0 168 -31t127.5 -84t87.5 -124.5t52.5 -151.5t16.5 -166q0 -80 -16 -152.5t-51.5 -138t-87.5 -113t-128 -75.5t-169 -28zM537 891
q-79 0 -137 -39t-87.5 -102.5t-43 -129t-13.5 -133.5q0 -47 7 -92t26.5 -94t49.5 -85t81 -59.5t117 -23.5q64 0 113.5 21t80 55t50 81t27 94.5t7.5 100.5q0 55 -7.5 107.5t-27 108t-50 96.5t-80.5 67.5t-113 26.5zM678 1194q-56 0 -150.5 41t-121.5 41q-58 0 -58 -64v-18
q0 -8 2 -10h-100l-6 30q-4 32 -4 56q0 73 42 114t111 41q53 0 144.5 -41t126.5 -41q59 0 59 60q0 3 -1 10t-1 10q-2 4 -2 9h102l4 -27q4 -32 4 -57q0 -72 -42 -113t-109 -41z" />
    <glyph glyph-name="odieresis" unicode="&#xf6;" horiz-adv-x="1071" 
d="M233 1319q0 50 35.5 84.5t85.5 34.5t84.5 -34t34.5 -85t-34.5 -86t-84.5 -35t-85.5 35t-35.5 86zM596 1319q0 50 35.5 84.5t83.5 34.5q51 0 86 -34t35 -85t-35 -86t-86 -35q-48 0 -83.5 35.5t-35.5 85.5zM537 -20q-98 0 -176 28t-129.5 75.5t-86 113t-49 137.5t-14.5 153
q0 87 17 167.5t54 151.5t89.5 124t128 83.5t166.5 30.5q92 0 168 -31t127.5 -84t87.5 -124.5t52.5 -151.5t16.5 -166q0 -80 -16 -152.5t-51.5 -138t-87.5 -113t-128 -75.5t-169 -28zM537 891q-79 0 -137 -39t-87.5 -102.5t-43 -129t-13.5 -133.5q0 -47 7 -92t26.5 -94
t49.5 -85t81 -59.5t117 -23.5q64 0 113.5 21t80 55t50 81t27 94.5t7.5 100.5q0 55 -7.5 107.5t-27 108t-50 96.5t-80.5 67.5t-113 26.5z" />
    <glyph glyph-name="divide" unicode="&#xf7;" 
d="M451 213q0 55 36 90t91 35t91 -35t36 -90t-36.5 -92t-90.5 -37t-90.5 37t-36.5 92zM451 856q0 55 36 90t91 35t91 -35t36 -90t-36.5 -92t-90.5 -37t-90.5 37t-36.5 92zM133 463v147h887v-147h-887z" />
    <glyph glyph-name="oslash" unicode="&#xf8;" horiz-adv-x="1071" 
d="M537 -20q-162 0 -271 75l-96 -127l-98 70l108 143q-98 131 -98 346q0 87 17 167.5t54 151.5t89.5 124t128 83.5t166.5 30.5q154 0 260 -86l102 136l96 -68l-114 -154q108 -152 108 -385q0 -80 -16 -152.5t-51.5 -138t-87.5 -113t-128 -75.5t-169 -28zM825 485
q0 138 -49 250l-416 -553q65 -59 177 -59q79 0 137 31t89.5 84t46.5 114.5t15 132.5zM537 901q-79 0 -138 -39.5t-91 -103.5t-47 -132t-15 -139q0 -123 39 -206l420 557q-66 63 -168 63z" />
    <glyph glyph-name="ugrave" unicode="&#xf9;" horiz-adv-x="1099" 
d="M782 467v557h168v-1024h-155v127h-4q-94 -147 -287 -147q-181 0 -270 109t-89 335v600h168v-584q0 -79 13.5 -135.5t34 -87.5t53 -49t60.5 -22.5t67 -4.5q48 0 88.5 16t76 51.5t56 101.5t20.5 157zM483 1171l-284 269h260l192 -269h-168z" />
    <glyph glyph-name="uacute" unicode="&#xfa;" horiz-adv-x="1099" 
d="M874 1438l-282 -269h-162l195 269h249zM782 467v557h168v-1024h-155v127h-4q-94 -147 -287 -147q-181 0 -270 109t-89 335v600h168v-584q0 -79 13.5 -135.5t34 -87.5t53 -49t60.5 -22.5t67 -4.5q48 0 88.5 16t76 51.5t56 101.5t20.5 157z" />
    <glyph glyph-name="ucircumflex" unicode="&#xfb;" horiz-adv-x="1099" 
d="M657 1434l195 -269h-141l-164 144l-162 -144h-139l198 269h213zM782 467v557h168v-1024h-155v127h-4q-94 -147 -287 -147q-181 0 -270 109t-89 335v600h168v-584q0 -79 13.5 -135.5t34 -87.5t53 -49t60.5 -22.5t67 -4.5q48 0 88.5 16t76 51.5t56 101.5t20.5 157z" />
    <glyph glyph-name="udieresis" unicode="&#xfc;" horiz-adv-x="1099" 
d="M248 1319q0 50 35.5 84.5t85.5 34.5t84 -34t34 -85t-34 -86t-84 -35t-85.5 35t-35.5 86zM610 1319q0 50 35.5 84.5t83.5 34.5q51 0 86 -34t35 -85t-35 -86t-86 -35q-48 0 -83.5 35.5t-35.5 85.5zM782 467v557h168v-1024h-155v127h-4q-94 -147 -287 -147q-181 0 -270 109
t-89 335v600h168v-584q0 -79 13.5 -135.5t34 -87.5t53 -49t60.5 -22.5t67 -4.5q48 0 88.5 16t76 51.5t56 101.5t20.5 157z" />
    <glyph glyph-name="yacute" unicode="&#xfd;" horiz-adv-x="923" 
d="M518 414l197 610h178l-352 -1008q-62 -181 -145 -276.5t-206 -95.5q-51 0 -84 10l-28 12v148q14 -10 20 -11q27 -10 64 -10q77 0 122 47t83 156l18 55l-352 973h188l199 -610q39 -140 49 -150q0 5 8.5 30t21 61.5t19.5 58.5zM786 1438l-282 -269h-162l195 269h249z" />
    <glyph glyph-name="thorn" unicode="&#xfe;" horiz-adv-x="1114" 
d="M319 106h-4v-516h-165v1901h159v-598h6q28 42 68 76q90 75 221 75q105 0 187.5 -43.5t134.5 -119t79 -173.5t27 -210q0 -146 -48.5 -262.5t-146 -186t-229.5 -69.5q-129 0 -219 63q-47 32 -70 63zM588 891q-64 0 -114.5 -24.5t-81 -63.5t-50.5 -92.5t-27.5 -106.5
t-7.5 -112q0 -46 7.5 -92t27.5 -95t50.5 -86.5t81 -61.5t114.5 -24q59 0 106.5 20.5t77.5 54.5t50 81t28 95.5t8 102.5q0 61 -7 114.5t-25.5 108.5t-47.5 93.5t-78 63t-112 24.5z" />
    <glyph glyph-name="ydieresis" unicode="&#xff;" horiz-adv-x="923" 
d="M518 414l197 610h178l-352 -1008q-62 -181 -145 -276.5t-206 -95.5q-51 0 -84 10l-28 12v148q14 -10 20 -11q27 -10 64 -10q77 0 122 47t83 156l18 55l-352 973h188l199 -610q39 -140 49 -150q0 5 8.5 30t21 61.5t19.5 58.5zM158 1319q0 50 35.5 84.5t85.5 34.5t84 -34
t34 -85t-34 -86t-84 -35t-85.5 35t-35.5 86zM520 1319q0 50 35.5 84.5t83.5 34.5q51 0 86 -34t35 -85t-35 -86t-86 -35q-48 0 -83.5 35.5t-35.5 85.5z" />
    <glyph glyph-name="Amacron" unicode="&#x100;" horiz-adv-x="1257" 
d="M1047 0l-129 377h-578l-129 -377h-195l514 1434h197l514 -1434h-194zM629 1227l-236 -690h471zM350 1583v135h553v-135h-553z" />
    <glyph glyph-name="amacron" unicode="&#x101;" horiz-adv-x="1028" 
d="M883 664v-664h-162v123h-6q-43 -64 -122.5 -103.5t-176.5 -39.5q-162 0 -246 80.5t-84 215.5q0 71 25.5 124.5t75.5 88.5t114 56.5t152 34.5q156 24 206 59t50 113q0 44 -19.5 74t-53 44t-65 19.5t-67.5 5.5q-221 0 -221 -150q0 -32 10 -59q2 -8 10 -20h-156l-12 30
q-12 36 -12 82q0 121 100 193.5t281 72.5q260 0 342 -163q37 -75 37 -217zM717 385v145h-6q-37 -64 -236 -92q-121 -17 -171 -55t-50 -107q0 -68 44.5 -108.5t143.5 -40.5q129 0 202 76t73 182zM252 1210v136h518v-136h-518z" />
    <glyph glyph-name="Abreve" unicode="&#x102;" horiz-adv-x="1257" 
d="M1047 0l-129 377h-578l-129 -377h-195l514 1434h197l514 -1434h-194zM629 1227l-236 -690h471zM625 1548q-138 0 -206.5 71t-68.5 198h154q0 -59 28.5 -99.5t92.5 -40.5t93.5 39.5t29.5 100.5h155q0 -118 -70 -193.5t-208 -75.5z" />
    <glyph glyph-name="abreve" unicode="&#x103;" horiz-adv-x="1028" 
d="M883 664v-664h-162v123h-6q-43 -64 -122.5 -103.5t-176.5 -39.5q-162 0 -246 80.5t-84 215.5q0 71 25.5 124.5t75.5 88.5t114 56.5t152 34.5q156 24 206 59t50 113q0 44 -19.5 74t-53 44t-65 19.5t-67.5 5.5q-221 0 -221 -150q0 -32 10 -59q2 -8 10 -20h-156l-12 30
q-12 36 -12 82q0 121 100 193.5t281 72.5q260 0 342 -163q37 -75 37 -217zM717 385v145h-6q-37 -64 -236 -92q-121 -17 -171 -55t-50 -107q0 -68 44.5 -108.5t143.5 -40.5q129 0 202 76t73 182zM506 1157q-137 0 -202.5 72t-65.5 201h155q0 -60 26 -102t87 -42q63 0 90 41
t27 103h155q0 -118 -69 -195.5t-203 -77.5z" />
    <glyph glyph-name="Aogonek" unicode="&#x104;" horiz-adv-x="1257" 
d="M1047 0l-129 377h-578l-129 -377h-195l514 1434h197l514 -1434h-194zM629 1227l-236 -690h471zM1145 0h96q3 -29 -25.5 -56t-57.5 -40.5t-54 -20.5q-48 -17 -67 -38t-19 -54q0 -38 29 -56t69 -18q94 0 121 70l96 -27q-11 -62 -68.5 -102.5t-146.5 -40.5q-105 0 -161 45
t-56 125q0 75 42.5 116.5t121.5 61.5q47 12 80 35z" />
    <glyph glyph-name="aogonek" unicode="&#x105;" horiz-adv-x="1028" 
d="M883 664v-664h-162v123h-6q-43 -64 -122.5 -103.5t-176.5 -39.5q-162 0 -246 80.5t-84 215.5q0 71 25.5 124.5t75.5 88.5t114 56.5t152 34.5q156 24 206 59t50 113q0 44 -19.5 74t-53 44t-65 19.5t-67.5 5.5q-221 0 -221 -150q0 -32 10 -59q2 -8 10 -20h-156l-12 30
q-12 36 -12 82q0 121 100 193.5t281 72.5q260 0 342 -163q37 -75 37 -217zM717 385v145h-6q-37 -64 -236 -92q-121 -17 -171 -55t-50 -107q0 -68 44.5 -108.5t143.5 -40.5q129 0 202 76t73 182zM717 -25q49 13 69 25h97q3 -29 -25.5 -56t-58 -40.5t-54.5 -20.5
q-51 -18 -68.5 -34t-17.5 -48q0 -38 31 -54.5t68 -16.5q94 0 121 69l96 -26q-5 -57 -59 -101.5t-154 -44.5q-105 0 -162 44t-57 126q0 76 45 113.5t129 64.5z" />
    <glyph glyph-name="Cacute" unicode="&#x106;" horiz-adv-x="1247" 
d="M1026 1829l-283 -268h-165l194 268h254zM705 -20q-306 0 -460.5 188t-154.5 518q0 109 22 215t72 207t121.5 177t179.5 122.5t238 46.5q190 0 307 -95t117 -249q0 -52 -10 -90q-1 -8 -4.5 -21t-4.5 -16h-165l6 25q6 42 6 59q0 221 -258 221q-198 0 -319.5 -163.5
t-121.5 -438.5q0 -144 34 -251.5t93.5 -169t132 -91t158.5 -29.5q140 0 212.5 63t72.5 175q0 48 -8 72l-6 28h172q0 -2 3.5 -15.5t4.5 -21.5q10 -38 10 -96q0 -73 -29.5 -139.5t-85 -118t-142.5 -82t-193 -30.5z" />
    <glyph glyph-name="cacute" unicode="&#x107;" horiz-adv-x="972" 
d="M877 1438l-283 -269h-162l195 269h250zM721 743q0 75 -53.5 111.5t-132.5 36.5q-54 0 -98 -17.5t-73.5 -48.5t-51.5 -69.5t-33.5 -84.5t-17 -88.5t-5.5 -86.5q0 -76 15.5 -139.5t47.5 -114.5t88 -80t132 -29q196 0 196 178q0 19 -6 49l-4 17h154l6 -27q8 -21 8 -55
q0 -153 -95.5 -234t-252.5 -81q-124 0 -216 41.5t-144.5 113.5t-77.5 159.5t-25 190.5q0 110 28.5 209t84 178t145.5 125.5t203 46.5q152 0 247 -75t95 -197q0 -34 -13 -84l-10 -35h-155l6 27q8 21 8 63z" />
    <glyph glyph-name="Ccircumflex" unicode="&#x108;" horiz-adv-x="1247" 
d="M817 1825l195 -269h-142l-163 144l-162 -144h-139l198 269h213zM705 -20q-306 0 -460.5 188t-154.5 518q0 109 22 215t72 207t121.5 177t179.5 122.5t238 46.5q190 0 307 -95t117 -249q0 -52 -10 -90q-1 -8 -4.5 -21t-4.5 -16h-165l6 25q6 42 6 59q0 221 -258 221
q-198 0 -319.5 -163.5t-121.5 -438.5q0 -144 34 -251.5t93.5 -169t132 -91t158.5 -29.5q140 0 212.5 63t72.5 175q0 48 -8 72l-6 28h172q0 -2 3.5 -15.5t4.5 -21.5q10 -38 10 -96q0 -73 -29.5 -139.5t-85 -118t-142.5 -82t-193 -30.5z" />
    <glyph glyph-name="ccircumflex" unicode="&#x109;" horiz-adv-x="972" 
d="M643 1434l195 -269h-142l-164 144l-161 -144h-140l199 269h213zM721 743q0 75 -53.5 111.5t-132.5 36.5q-54 0 -98 -17.5t-73.5 -48.5t-51.5 -69.5t-33.5 -84.5t-17 -88.5t-5.5 -86.5q0 -76 15.5 -139.5t47.5 -114.5t88 -80t132 -29q196 0 196 178q0 19 -6 49l-4 17h154
l6 -27q8 -21 8 -55q0 -153 -95.5 -234t-252.5 -81q-124 0 -216 41.5t-144.5 113.5t-77.5 159.5t-25 190.5q0 110 28.5 209t84 178t145.5 125.5t203 46.5q152 0 247 -75t95 -197q0 -34 -13 -84l-10 -35h-155l6 27q8 21 8 63z" />
    <glyph glyph-name="Cdotaccent" unicode="&#x10a;" horiz-adv-x="1247" 
d="M705 -20q-306 0 -460.5 188t-154.5 518q0 109 22 215t72 207t121.5 177t179.5 122.5t238 46.5q190 0 307 -95t117 -249q0 -52 -10 -90q-1 -8 -4.5 -21t-4.5 -16h-165l6 25q6 42 6 59q0 221 -258 221q-198 0 -319.5 -163.5t-121.5 -438.5q0 -144 34 -251.5t93.5 -169
t132 -91t158.5 -29.5q140 0 212.5 63t72.5 175q0 48 -8 72l-6 28h172q0 -2 3.5 -15.5t4.5 -21.5q10 -38 10 -96q0 -73 -29.5 -139.5t-85 -118t-142.5 -82t-193 -30.5zM582 1681q0 51 36.5 87t90.5 36q53 0 89 -36t36 -87q0 -54 -35.5 -91.5t-89.5 -37.5t-90.5 37.5
t-36.5 91.5z" />
    <glyph glyph-name="cdotaccent" unicode="&#x10b;" horiz-adv-x="972" 
d="M721 743q0 75 -53.5 111.5t-132.5 36.5q-54 0 -98 -17.5t-73.5 -48.5t-51.5 -69.5t-33.5 -84.5t-17 -88.5t-5.5 -86.5q0 -76 15.5 -139.5t47.5 -114.5t88 -80t132 -29q196 0 196 178q0 19 -6 49l-4 17h154l6 -27q8 -21 8 -55q0 -153 -95.5 -234t-252.5 -81
q-124 0 -216 41.5t-144.5 113.5t-77.5 159.5t-25 190.5q0 110 28.5 209t84 178t145.5 125.5t203 46.5q152 0 247 -75t95 -197q0 -34 -13 -84l-10 -35h-155l6 27q8 21 8 63zM399 1313q0 51 38 87t89 36q54 0 90.5 -36t36.5 -87q0 -54 -36.5 -91.5t-90.5 -37.5q-52 0 -89.5 38
t-37.5 91z" />
    <glyph glyph-name="Ccaron" unicode="&#x10c;" horiz-adv-x="1247" 
d="M1006 1825l-195 -269h-213l-199 269h140l161 -144l164 144h142zM705 -20q-306 0 -460.5 188t-154.5 518q0 109 22 215t72 207t121.5 177t179.5 122.5t238 46.5q190 0 307 -95t117 -249q0 -52 -10 -90q-1 -8 -4.5 -21t-4.5 -16h-165l6 25q6 42 6 59q0 221 -258 221
q-198 0 -319.5 -163.5t-121.5 -438.5q0 -144 34 -251.5t93.5 -169t132 -91t158.5 -29.5q140 0 212.5 63t72.5 175q0 48 -8 72l-6 28h172q0 -2 3.5 -15.5t4.5 -21.5q10 -38 10 -96q0 -73 -29.5 -139.5t-85 -118t-142.5 -82t-193 -30.5z" />
    <glyph glyph-name="ccaron" unicode="&#x10d;" horiz-adv-x="972" 
d="M829 1434l-194 -269h-213l-199 269h139l162 -144l164 144h141zM721 743q0 75 -53.5 111.5t-132.5 36.5q-54 0 -98 -17.5t-73.5 -48.5t-51.5 -69.5t-33.5 -84.5t-17 -88.5t-5.5 -86.5q0 -76 15.5 -139.5t47.5 -114.5t88 -80t132 -29q196 0 196 178q0 19 -6 49l-4 17h154
l6 -27q8 -21 8 -55q0 -153 -95.5 -234t-252.5 -81q-124 0 -216 41.5t-144.5 113.5t-77.5 159.5t-25 190.5q0 110 28.5 209t84 178t145.5 125.5t203 46.5q152 0 247 -75t95 -197q0 -34 -13 -84l-10 -35h-155l6 27q8 21 8 63z" />
    <glyph glyph-name="Dcaron" unicode="&#x10e;" horiz-adv-x="1323" 
d="M870 1825l-194 -269h-213l-199 269h139l162 -144l164 144h141zM608 0h-436v1434h430q294 0 462.5 -194t168.5 -554q0 -118 -21.5 -219t-69 -188t-119 -148t-177.5 -96t-238 -35zM352 162h242q65 0 123.5 12t120.5 46.5t106.5 90t73.5 150.5t29 219q0 136 -25 240.5
t-66 170t-101 107t-123 58t-138 16.5h-242v-1110z" />
    <glyph glyph-name="dcaron" unicode="&#x10f;" horiz-adv-x="1239" 
d="M1092 1534h163l-84 -387h-137zM965 1534v-1534h-158v141h-6q-22 -44 -64 -82q-91 -79 -233 -79q-200 0 -311 139.5t-111 374.5q0 111 26.5 208.5t77.5 174.5t135 122t191 45q129 0 217 -73q41 -35 64 -74h4v637h168zM528 891q-64 0 -113 -25t-78.5 -64.5t-48 -94.5
t-25.5 -108t-7 -112q0 -67 14.5 -127.5t45 -112.5t85 -83t127.5 -31q66 0 116.5 24t80 60.5t48.5 86t25.5 94t6.5 91.5q0 59 -7.5 113t-27 108t-50 93t-80 63.5t-112.5 24.5z" />
    <glyph glyph-name="Dcroat" unicode="&#x110;" horiz-adv-x="1335" 
d="M20 815h699v-153h-699v153zM621 0h-437v1434h430q294 0 462.5 -194t168.5 -554q0 -118 -21.5 -219t-69 -188t-119 -148t-177 -96t-237.5 -35zM365 162h241q65 0 123.5 12t120.5 46.5t106.5 90t73.5 150.5t29 219q0 136 -25 240.5t-66 170t-101 107t-123 58t-138 16.5
h-241v-1110z" />
    <glyph glyph-name="dcroat" unicode="&#x111;" horiz-adv-x="1114" 
d="M362 1198v137h754v-137h-754zM965 1534v-1534h-158v141h-6q-22 -44 -64 -82q-91 -79 -233 -79q-200 0 -311 139.5t-111 374.5q0 111 26.5 208.5t77.5 174.5t135 122t191 45q129 0 217 -73q41 -35 64 -74h4v637h168zM528 891q-64 0 -113 -25t-78.5 -64.5t-48 -94.5
t-25.5 -108t-7 -112q0 -67 14.5 -127.5t45 -112.5t85 -83t127.5 -31q66 0 116.5 24t80 60.5t48.5 86t25.5 94t6.5 91.5q0 59 -7.5 113t-27 108t-50 93t-80 63.5t-112.5 24.5z" />
    <glyph glyph-name="Emacron" unicode="&#x112;" horiz-adv-x="1081" 
d="M958 162v-162h-786v1434h786v-162h-606v-461h566v-162h-566v-487h606zM289 1583v135h553v-135h-553z" />
    <glyph glyph-name="emacron" unicode="&#x113;" horiz-adv-x="1001" 
d="M539 133q58 0 98.5 13.5t60.5 36t28.5 45t8.5 48.5q0 7 -4 35l-4 17h154l6 -21q6 -42 6 -57q0 -33 -11 -68t-37 -72t-64.5 -65.5t-99 -46.5t-134.5 -18q-224 0 -344.5 136t-120.5 373q0 111 27.5 209t80.5 176.5t139.5 124t196.5 45.5q184 0 286.5 -117t102.5 -290
q0 -94 -18 -164h-647q5 -157 74.5 -248.5t214.5 -91.5zM520 893q-107 0 -176 -72.5t-86 -206.5h490q6 54 -2.5 102t-33.5 88.5t-74.5 64.5t-117.5 24zM260 1210v136h518v-136h-518z" />
    <glyph glyph-name="Ebreve" unicode="&#x114;" horiz-adv-x="1081" 
d="M958 162v-162h-786v1434h786v-162h-606v-461h566v-162h-566v-487h606zM561 1548q-138 0 -206 71t-68 198h153q0 -59 28.5 -99.5t92.5 -40.5t93.5 39.5t29.5 100.5h156q0 -118 -70.5 -193.5t-208.5 -75.5z" />
    <glyph glyph-name="ebreve" unicode="&#x115;" horiz-adv-x="1001" 
d="M539 133q58 0 98.5 13.5t60.5 36t28.5 45t8.5 48.5q0 7 -4 35l-4 17h154l6 -21q6 -42 6 -57q0 -33 -11 -68t-37 -72t-64.5 -65.5t-99 -46.5t-134.5 -18q-224 0 -344.5 136t-120.5 373q0 111 27.5 209t80.5 176.5t139.5 124t196.5 45.5q184 0 286.5 -117t102.5 -290
q0 -94 -18 -164h-647q5 -157 74.5 -248.5t214.5 -91.5zM520 893q-107 0 -176 -72.5t-86 -206.5h490q6 54 -2.5 102t-33.5 88.5t-74.5 64.5t-117.5 24zM514 1157q-137 0 -202.5 72t-65.5 201h155q0 -60 26 -102t87 -42q63 0 90 41t27 103h155q0 -118 -69 -195.5t-203 -77.5z
" />
    <glyph glyph-name="Edotaccent" unicode="&#x116;" horiz-adv-x="1081" 
d="M958 162v-162h-786v1434h786v-162h-606v-461h566v-162h-566v-487h606zM442 1681q0 51 36.5 87t90.5 36q53 0 89 -36t36 -87q0 -54 -35.5 -91.5t-89.5 -37.5t-90.5 37.5t-36.5 91.5z" />
    <glyph glyph-name="edotaccent" unicode="&#x117;" horiz-adv-x="1001" 
d="M539 133q58 0 98.5 13.5t60.5 36t28.5 45t8.5 48.5q0 7 -4 35l-4 17h154l6 -21q6 -42 6 -57q0 -33 -11 -68t-37 -72t-64.5 -65.5t-99 -46.5t-134.5 -18q-224 0 -344.5 136t-120.5 373q0 111 27.5 209t80.5 176.5t139.5 124t196.5 45.5q184 0 286.5 -117t102.5 -290
q0 -94 -18 -164h-647q5 -157 74.5 -248.5t214.5 -91.5zM520 893q-107 0 -176 -72.5t-86 -206.5h490q6 54 -2.5 102t-33.5 88.5t-74.5 64.5t-117.5 24zM395 1313q0 51 38 87t89 36q54 0 90.5 -36t36.5 -87q0 -54 -36.5 -91.5t-90.5 -37.5q-52 0 -89.5 38t-37.5 91z" />
    <glyph glyph-name="Eogonek" unicode="&#x118;" horiz-adv-x="1081" 
d="M862 0h96q3 -29 -25.5 -56t-57.5 -40.5t-54 -20.5q-48 -17 -67 -38t-19 -54q0 -38 29 -56t70 -18q93 0 120 70l97 -27q-11 -62 -68.5 -102.5t-146.5 -40.5q-105 0 -161.5 45t-56.5 125q0 75 42.5 116.5t121.5 61.5q48 12 80 35zM958 162v-162h-786v1434h786v-162h-606
v-461h566v-162h-566v-487h606z" />
    <glyph glyph-name="eogonek" unicode="&#x119;" horiz-adv-x="1001" 
d="M520 -25q51 13 70 25h96q3 -29 -25.5 -56t-57.5 -40.5t-54 -20.5q-51 -18 -68.5 -34t-17.5 -48q0 -38 31 -54.5t67 -16.5q94 0 121 69l96 -26q-5 -57 -59 -101.5t-154 -44.5q-105 0 -162 44t-57 126q0 76 45 113.5t129 64.5zM539 133q58 0 98.5 13.5t60.5 36t28.5 45
t8.5 48.5q0 7 -4 35l-4 17h154l6 -21q6 -42 6 -57q0 -33 -11 -68t-37 -72t-64.5 -65.5t-99 -46.5t-134.5 -18q-224 0 -344.5 136t-120.5 373q0 111 27.5 209t80.5 176.5t139.5 124t196.5 45.5q184 0 286.5 -117t102.5 -290q0 -94 -18 -164h-647q5 -157 74.5 -248.5
t214.5 -91.5zM520 893q-107 0 -176 -72.5t-86 -206.5h490q6 54 -2.5 102t-33.5 88.5t-74.5 64.5t-117.5 24z" />
    <glyph glyph-name="Ecaron" unicode="&#x11a;" horiz-adv-x="1081" 
d="M868 1825l-194 -269h-213l-199 269h139l162 -144l164 144h141zM958 162v-162h-786v1434h786v-162h-606v-461h566v-162h-566v-487h606z" />
    <glyph glyph-name="ecaron" unicode="&#x11b;" horiz-adv-x="1001" 
d="M823 1434l-194 -269h-213l-199 269h139l162 -144l164 144h141zM539 133q58 0 98.5 13.5t60.5 36t28.5 45t8.5 48.5q0 7 -4 35l-4 17h154l6 -21q6 -42 6 -57q0 -33 -11 -68t-37 -72t-64.5 -65.5t-99 -46.5t-134.5 -18q-224 0 -344.5 136t-120.5 373q0 111 27.5 209
t80.5 176.5t139.5 124t196.5 45.5q184 0 286.5 -117t102.5 -290q0 -94 -18 -164h-647q5 -157 74.5 -248.5t214.5 -91.5zM520 893q-107 0 -176 -72.5t-86 -206.5h490q6 54 -2.5 102t-33.5 88.5t-74.5 64.5t-117.5 24z" />
    <glyph glyph-name="Gcircumflex" unicode="&#x11c;" horiz-adv-x="1310" 
d="M807 1825l194 -269h-141l-164 144l-161 -144h-140l199 269h213zM731 1454q194 0 312 -99.5t118 -240.5q0 -57 -8 -88q-1 -8 -4 -20t-4 -15h-166l4 23q4 28 4 55q0 100 -69.5 159.5t-196.5 59.5q-199 0 -322 -164t-123 -440q0 -140 31.5 -246t88.5 -168.5t129 -93.5
t159 -31q96 0 165 36t105 98.5t52 133t16 154.5h-340v160h498v-727h-156v160q-116 -180 -350 -180q-272 0 -428 181.5t-156 522.5q0 114 23 222t73.5 208t123.5 175t181.5 120t239.5 45z" />
    <glyph glyph-name="gcircumflex" unicode="&#x11d;" horiz-adv-x="995" 
d="M606 1434l195 -269h-142l-163 144l-162 -144h-139l198 269h213zM498 293q-96 0 -164 26q-49 -30 -49 -81q0 -24 13.5 -39.5t53.5 -24t62 -11t88 -6.5l39 -3q60 -3 105.5 -10.5t96 -26.5t83 -48.5t54 -80.5t21.5 -119q0 -78 -32.5 -137t-90.5 -93.5t-130.5 -51.5
t-158.5 -17q-78 0 -145.5 13t-126.5 42t-93 83t-34 128q0 45 10 78l13 31h159q-7 -10 -10 -23q-10 -27 -10 -61q0 -75 65.5 -109.5t171.5 -34.5q122 0 185 34.5t63 115.5q0 34 -13.5 58t-33.5 38t-57.5 23t-71 12.5t-88.5 7.5q-42 1 -73.5 3.5t-71 8.5t-67.5 15t-57 24.5
t-47 36t-29 50.5t-11 67q0 99 100 178q-108 99 -108 270t110 278t277 107q141 0 241 -81l123 98l101 -127l-123 -94q41 -77 41 -181q0 -167 -102.5 -266.5t-278.5 -99.5zM494 893q-102 0 -160 -62t-58 -167q0 -97 56.5 -159.5t161.5 -62.5q102 0 160.5 60.5t58.5 159.5
q0 110 -57.5 170.5t-161.5 60.5z" />
    <glyph glyph-name="Gbreve" unicode="&#x11e;" horiz-adv-x="1310" 
d="M731 1454q194 0 312 -99.5t118 -240.5q0 -57 -8 -88q-1 -8 -4 -20t-4 -15h-166l4 23q4 28 4 55q0 100 -69.5 159.5t-196.5 59.5q-199 0 -322 -164t-123 -440q0 -140 31.5 -246t88.5 -168.5t129 -93.5t159 -31q96 0 165 36t105 98.5t52 133t16 154.5h-340v160h498v-727
h-156v160q-116 -180 -350 -180q-272 0 -428 181.5t-156 522.5q0 114 23 222t73.5 208t123.5 175t181.5 120t239.5 45zM690 1548q-138 0 -206 71t-68 198h153q0 -59 28.5 -99.5t92.5 -40.5t93.5 39.5t29.5 100.5h156q0 -118 -70.5 -193.5t-208.5 -75.5z" />
    <glyph glyph-name="gbreve" unicode="&#x11f;" horiz-adv-x="995" 
d="M498 293q-96 0 -164 26q-49 -30 -49 -81q0 -24 13.5 -39.5t53.5 -24t62 -11t88 -6.5l39 -3q60 -3 105.5 -10.5t96 -26.5t83 -48.5t54 -80.5t21.5 -119q0 -78 -32.5 -137t-90.5 -93.5t-130.5 -51.5t-158.5 -17q-78 0 -145.5 13t-126.5 42t-93 83t-34 128q0 45 10 78l13 31
h159q-7 -10 -10 -23q-10 -27 -10 -61q0 -75 65.5 -109.5t171.5 -34.5q122 0 185 34.5t63 115.5q0 34 -13.5 58t-33.5 38t-57.5 23t-71 12.5t-88.5 7.5q-42 1 -73.5 3.5t-71 8.5t-67.5 15t-57 24.5t-47 36t-29 50.5t-11 67q0 99 100 178q-108 99 -108 270t110 278t277 107
q141 0 241 -81l123 98l101 -127l-123 -94q41 -77 41 -181q0 -167 -102.5 -266.5t-278.5 -99.5zM494 893q-102 0 -160 -62t-58 -167q0 -97 56.5 -159.5t161.5 -62.5q102 0 160.5 60.5t58.5 159.5q0 110 -57.5 170.5t-161.5 60.5zM492 1157q-137 0 -203 72t-66 201h156
q0 -60 26 -102t87 -42q116 0 116 144h156q0 -118 -69 -195.5t-203 -77.5z" />
    <glyph glyph-name="Gdotaccent" unicode="&#x120;" horiz-adv-x="1310" 
d="M731 1454q194 0 312 -99.5t118 -240.5q0 -57 -8 -88q-1 -8 -4 -20t-4 -15h-166l4 23q4 28 4 55q0 100 -69.5 159.5t-196.5 59.5q-199 0 -322 -164t-123 -440q0 -140 31.5 -246t88.5 -168.5t129 -93.5t159 -31q96 0 165 36t105 98.5t52 133t16 154.5h-340v160h498v-727
h-156v160q-116 -180 -350 -180q-272 0 -428 181.5t-156 522.5q0 114 23 222t73.5 208t123.5 175t181.5 120t239.5 45zM569 1681q0 51 36.5 87t90.5 36t89.5 -36t35.5 -87q0 -54 -35.5 -91.5t-89.5 -37.5t-90.5 37.5t-36.5 91.5z" />
    <glyph glyph-name="gdotaccent" unicode="&#x121;" horiz-adv-x="995" 
d="M498 293q-96 0 -164 26q-49 -30 -49 -81q0 -24 13.5 -39.5t53.5 -24t62 -11t88 -6.5l39 -3q60 -3 105.5 -10.5t96 -26.5t83 -48.5t54 -80.5t21.5 -119q0 -78 -32.5 -137t-90.5 -93.5t-130.5 -51.5t-158.5 -17q-78 0 -145.5 13t-126.5 42t-93 83t-34 128q0 45 10 78l13 31
h159q-7 -10 -10 -23q-10 -27 -10 -61q0 -75 65.5 -109.5t171.5 -34.5q122 0 185 34.5t63 115.5q0 34 -13.5 58t-33.5 38t-57.5 23t-71 12.5t-88.5 7.5q-42 1 -73.5 3.5t-71 8.5t-67.5 15t-57 24.5t-47 36t-29 50.5t-11 67q0 99 100 178q-108 99 -108 270t110 278t277 107
q141 0 241 -81l123 98l101 -127l-123 -94q41 -77 41 -181q0 -167 -102.5 -266.5t-278.5 -99.5zM494 893q-102 0 -160 -62t-58 -167q0 -97 56.5 -159.5t161.5 -62.5q102 0 160.5 60.5t58.5 159.5q0 110 -57.5 170.5t-161.5 60.5zM358 1313q0 51 38 87t89 36q54 0 90.5 -36
t36.5 -87q0 -54 -36.5 -91.5t-90.5 -37.5q-51 0 -89 38t-38 91z" />
    <glyph glyph-name="Gcommaaccent" unicode="&#x122;" horiz-adv-x="1310" 
d="M584 -135h166l-103 -375h-139zM731 1454q194 0 312 -99.5t118 -240.5q0 -57 -8 -88q-1 -8 -4 -20t-4 -15h-166l4 23q4 28 4 55q0 100 -69.5 159.5t-196.5 59.5q-199 0 -322 -164t-123 -440q0 -140 31.5 -246t88.5 -168.5t129 -93.5t159 -31q96 0 165 36t105 98.5t52 133
t16 154.5h-340v160h498v-727h-156v160q-116 -180 -350 -180q-272 0 -428 181.5t-156 522.5q0 114 23 222t73.5 208t123.5 175t181.5 120t239.5 45z" />
    <glyph glyph-name="gcommaaccent" unicode="&#x123;" horiz-adv-x="995" 
d="M498 293q-96 0 -164 26q-49 -30 -49 -81q0 -24 13.5 -39.5t53.5 -24t62 -11t88 -6.5l39 -3q60 -3 105.5 -10.5t96 -26.5t83 -48.5t54 -80.5t21.5 -119q0 -78 -32.5 -137t-90.5 -93.5t-130.5 -51.5t-158.5 -17q-78 0 -145.5 13t-126.5 42t-93 83t-34 128q0 45 10 78l13 31
h159q-7 -10 -10 -23q-10 -27 -10 -61q0 -75 65.5 -109.5t171.5 -34.5q122 0 185 34.5t63 115.5q0 34 -13.5 58t-33.5 38t-57.5 23t-71 12.5t-88.5 7.5q-42 1 -73.5 3.5t-71 8.5t-67.5 15t-57 24.5t-47 36t-29 50.5t-11 67q0 99 100 178q-108 99 -108 270t110 278t277 107
q141 0 241 -81l123 98l101 -127l-123 -94q41 -77 41 -181q0 -167 -102.5 -266.5t-278.5 -99.5zM494 893q-102 0 -160 -62t-58 -167q0 -97 56.5 -159.5t161.5 -62.5q102 0 160.5 60.5t58.5 159.5q0 110 -57.5 170.5t-161.5 60.5zM561 1186h-168l84 336h144z" />
    <glyph glyph-name="Hcircumflex" unicode="&#x124;" horiz-adv-x="1351" 
d="M782 1825l195 -269h-141l-164 144l-162 -144h-139l198 269h213zM356 0h-184v1434h184v-631h637v631h185v-1434h-185v639h-637v-639z" />
    <glyph glyph-name="hcircumflex" unicode="&#x125;" horiz-adv-x="1101" 
d="M315 0h-165v1534h165v-637q40 65 113 106t172 41q182 0 270 -116t88 -318v-610h-170v588q0 86 -17 146.5t-48 92.5t-68 46t-84 14q-120 0 -188 -79t-68 -230v-578zM348 1851l195 -268h-140l-163 146l-162 -146h-139l198 268h211z" />
    <glyph glyph-name="Hbar" unicode="&#x126;" horiz-adv-x="1351" 
d="M356 0h-184v1434h184v-631h637v631h185v-1434h-185v639h-637v-639zM-8 1069v135h1366v-135h-1366z" />
    <glyph glyph-name="hbar" unicode="&#x127;" horiz-adv-x="1101" 
d="M-10 1198v137h753v-137h-753zM315 0h-165v1534h165v-637q40 65 113 106t172 41q182 0 270 -116t88 -318v-610h-170v588q0 86 -17 146.5t-48 92.5t-68 46t-84 14q-120 0 -188 -79t-68 -230v-578z" />
    <glyph glyph-name="Itilde" unicode="&#x128;" horiz-adv-x="528" 
d="M356 0h-186v1434h186v-1434zM412 1573q-56 0 -151 41t-122 41q-57 0 -57 -62v-18q0 -8 2 -10h-100l-7 30q-4 32 -4 56q0 72 42.5 113.5t111.5 41.5q53 0 144 -42t126 -42q60 0 60 60q0 3 -1 10t-1 10q-2 4 -2 10h102l4 -26q4 -32 4 -57q0 -73 -41.5 -114.5t-109.5 -41.5z
" />
    <glyph glyph-name="itilde" unicode="&#x129;" horiz-adv-x="471" 
d="M322 1024v-1024h-172v1024h172zM381 1194q-56 0 -150.5 41t-121.5 41q-58 0 -58 -64v-18q0 -8 2 -10h-100l-6 30q-4 32 -4 56q0 73 42 114t111 41q53 0 144.5 -41t126.5 -41q59 0 59 60q0 3 -1 10t-1 10q-2 4 -2 9h102l4 -27q4 -32 4 -57q0 -72 -42 -113t-109 -41z" />
    <glyph glyph-name="Imacron" unicode="&#x12a;" horiz-adv-x="528" 
d="M356 0h-186v1434h186v-1434zM-12 1583v135h553v-135h-553z" />
    <glyph glyph-name="imacron" unicode="&#x12b;" horiz-adv-x="471" 
d="M322 1024v-1024h-172v1024h172zM-18 1210v136h518v-136h-518z" />
    <glyph glyph-name="Ibreve" unicode="&#x12c;" horiz-adv-x="528" 
d="M356 0h-186v1434h186v-1434zM260 1548q-138 0 -206 71t-68 198h153q0 -59 28.5 -99.5t92.5 -40.5t93.5 39.5t29.5 100.5h156q0 -118 -70.5 -193.5t-208.5 -75.5z" />
    <glyph glyph-name="ibreve" unicode="&#x12d;" horiz-adv-x="471" 
d="M322 1024v-1024h-172v1024h172zM236 1157q-137 0 -203 72t-66 201h156q0 -60 26 -102t87 -42q116 0 116 144h156q0 -118 -69 -195.5t-203 -77.5z" />
    <glyph glyph-name="Iogonek" unicode="&#x12e;" horiz-adv-x="528" 
d="M356 0h-186v1434h186v-1434zM260 0h96q3 -29 -25.5 -56t-57.5 -40.5t-54 -20.5q-48 -17 -67 -38t-19 -54q0 -38 29 -56t69 -18q94 0 121 70l97 -27q-11 -62 -69 -102.5t-147 -40.5q-105 0 -161 45t-56 125q0 75 42.5 116.5t121.5 61.5q48 12 80 35z" />
    <glyph glyph-name="iogonek" unicode="&#x12f;" horiz-adv-x="471" 
d="M322 0h-172v1024h172v-1024zM98 1303q0 60 39 98.5t99 38.5t97.5 -38.5t37.5 -98.5t-37.5 -98t-97.5 -38t-99 38t-39 98zM158 -25q49 13 69 25h97q3 -29 -25.5 -56t-58 -40.5t-54.5 -20.5q-51 -18 -68.5 -34t-17.5 -48q0 -38 31 -54.5t68 -16.5q93 0 120 69l97 -26
q-5 -57 -59 -101.5t-154 -44.5q-105 0 -162 44t-57 126q0 76 45 113.5t129 64.5z" />
    <glyph glyph-name="Idotaccent" unicode="&#x130;" horiz-adv-x="528" 
d="M356 0h-186v1434h186v-1434zM135 1681q0 51 36.5 87t90.5 36t89.5 -36t35.5 -87q0 -54 -35.5 -91.5t-89.5 -37.5t-90.5 37.5t-36.5 91.5z" />
    <glyph glyph-name="dotlessi" unicode="&#x131;" horiz-adv-x="471" 
d="M322 1024v-1024h-172v1024h172z" />
    <glyph glyph-name="IJ" unicode="&#x132;" horiz-adv-x="1384" 
d="M356 0h-186v1434h186v-1434zM1229 1434v-973q0 -92 -10 -163.5t-34 -132.5t-63 -101t-99 -62t-140 -22q-91 0 -157.5 22.5t-101 60.5t-50 78t-15.5 84q0 50 10 92l13 35h163l-8 -30q-8 -24 -8 -66q0 -57 38 -90t114 -33q92 0 129 73t37 267v961h182z" />
    <glyph glyph-name="ij" unicode="&#x133;" horiz-adv-x="972" 
d="M322 0h-172v1024h172v-1024zM98 1303q0 60 39 98.5t99 38.5t97.5 -38.5t37.5 -98.5t-37.5 -98t-97.5 -38t-99 38t-39 98zM821 1024v-1006q0 -94 -6.5 -160.5t-24.5 -124t-49.5 -91.5t-81.5 -53t-120 -19q-118 0 -183 53.5t-65 155.5q0 40 8 59l8 23h146l-4 -15
q-5 -25 -5 -36q0 -89 95 -89q71 0 92.5 59.5t21.5 231.5v1012h168zM602 1303q0 60 37.5 98.5t97.5 38.5t97.5 -38.5t37.5 -98.5t-37.5 -98t-97.5 -38t-97.5 38t-37.5 98z" />
    <glyph glyph-name="Jcircumflex" unicode="&#x134;" horiz-adv-x="856" 
d="M717 1825l194 -269h-141l-164 144l-162 -144h-139l199 269h213zM702 1434v-973q0 -92 -10 -163.5t-34 -132.5t-63 -101t-99 -62t-140 -22q-74 0 -131.5 15.5t-93 40t-58.5 57.5t-31.5 65.5t-8.5 66.5q0 50 10 92l12 35h164l-8 -30q-8 -24 -8 -66q0 -58 37.5 -90.5
t113.5 -32.5q92 0 129 73t37 267v961h182z" />
    <glyph glyph-name="jcircumflex" unicode="&#x135;" horiz-adv-x="501" 
d="M352 1024v-1006q0 -94 -6.5 -160.5t-24.5 -124t-49.5 -91.5t-81.5 -53t-120 -19q-118 0 -183 53.5t-65 155.5q0 40 8 59l8 23h146l-4 -15q-5 -25 -5 -36q0 -89 95 -89q71 0 92.5 59.5t21.5 231.5v1012h168zM375 1434l194 -269h-141l-164 144l-162 -144h-139l199 269h213z
" />
    <glyph glyph-name="Kcommaaccent" unicode="&#x136;" horiz-adv-x="1157" 
d="M571 -135h166l-102 -375h-139zM352 1434v-605l516 605h234l-592 -678l643 -756h-240l-561 666v-666h-180v1434h180z" />
    <glyph glyph-name="kcommaaccent" unicode="&#x137;" horiz-adv-x="958" 
d="M442 -135h166l-102 -375h-139zM315 1534v-879l357 369h229l-448 -453l493 -571h-217l-414 479v-479h-165v1534h165z" />
    <glyph glyph-name="kgreenlandic" unicode="&#x138;" horiz-adv-x="958" 
d="M315 1024v-397l357 397h227l-446 -479l495 -545h-219l-414 451v-451h-165v1024h165z" />
    <glyph glyph-name="Lacute" unicode="&#x139;" horiz-adv-x="1005" 
d="M641 1829l-283 -268h-165l194 268h254zM942 166v-166h-770v1434h186v-1268h584z" />
    <glyph glyph-name="lacute" unicode="&#x13a;" horiz-adv-x="473" 
d="M551 1872l-238 -248h-157l147 248h248zM324 0h-174v1534h174v-1534z" />
    <glyph glyph-name="Lcommaaccent" unicode="&#x13b;" horiz-adv-x="1005" 
d="M465 -135h166l-103 -375h-139zM942 166v-166h-770v1434h186v-1268h584z" />
    <glyph glyph-name="lcommaaccent" unicode="&#x13c;" horiz-adv-x="473" 
d="M147 -135h166l-102 -375h-139zM324 0h-174v1534h174v-1534z" />
    <glyph glyph-name="Lcaron" unicode="&#x13d;" horiz-adv-x="1005" 
d="M586 1434h164l-72 -387h-137zM942 166v-166h-770v1434h186v-1268h584z" />
    <glyph glyph-name="lcaron" unicode="&#x13e;" horiz-adv-x="598" 
d="M451 1534h163l-84 -387h-137zM324 0h-174v1534h174v-1534z" />
    <glyph glyph-name="Ldot" unicode="&#x13f;" horiz-adv-x="1005" 
d="M942 166v-166h-770v1434h186v-1268h584zM616 791q0 65 43 107t105 42q63 0 106 -42t43 -107t-43 -106.5t-106 -41.5t-105.5 41.5t-42.5 106.5z" />
    <glyph glyph-name="ldot" unicode="&#x140;" horiz-adv-x="739" 
d="M324 0h-174v1534h174v-1534zM465 807q0 65 42.5 107t104.5 42q63 0 106.5 -42t43.5 -107t-43.5 -106.5t-106.5 -41.5q-62 0 -104.5 41.5t-42.5 106.5z" />
    <glyph glyph-name="Lslash" unicode="&#x141;" horiz-adv-x="1005" 
d="M18 498l-69 120l233 132l60 18l440 250l70 -121l-494 -281l-45 -12zM942 166v-166h-770v1434h186v-1268h584z" />
    <glyph glyph-name="lslash" unicode="&#x142;" horiz-adv-x="481" 
d="M47 643l-74 119l228 131l53 20l192 111l74 -117l-239 -139l-50 -16zM328 0h-174v1534h174v-1534z" />
    <glyph glyph-name="Nacute" unicode="&#x143;" horiz-adv-x="1376" 
d="M1051 1829l-283 -268h-166l195 268h254zM350 0h-178v1434h246l608 -1170v1170h178v-1434h-229l-625 1204v-1204z" />
    <glyph glyph-name="nacute" unicode="&#x144;" horiz-adv-x="1103" 
d="M856 1438l-283 -269h-161l194 269h250zM319 569v-569h-169v1024h163v-137h4q95 157 287 157q176 0 266.5 -115t90.5 -331v-598h-173v580q0 92 -18.5 155t-52 93.5t-69 42.5t-81.5 12q-114 0 -181 -77.5t-67 -236.5z" />
    <glyph glyph-name="Ncommaaccent" unicode="&#x145;" horiz-adv-x="1376" 
d="M633 -135h166l-103 -375h-139zM350 0h-178v1434h246l608 -1170v1170h178v-1434h-229l-625 1204v-1204z" />
    <glyph glyph-name="ncommaaccent" unicode="&#x146;" horiz-adv-x="1103" 
d="M494 -135h165l-102 -375h-139zM319 569v-569h-169v1024h163v-137h4q95 157 287 157q176 0 266.5 -115t90.5 -331v-598h-173v580q0 92 -18.5 155t-52 93.5t-69 42.5t-81.5 12q-114 0 -181 -77.5t-67 -236.5z" />
    <glyph glyph-name="Ncaron" unicode="&#x147;" horiz-adv-x="1376" 
d="M1006 1825l-195 -269h-213l-199 269h140l161 -144l164 144h142zM350 0h-178v1434h246l608 -1170v1170h178v-1434h-229l-625 1204v-1204z" />
    <glyph glyph-name="ncaron" unicode="&#x148;" horiz-adv-x="1103" 
d="M842 1434l-195 -269h-213l-198 269h139l162 -144l163 144h142zM319 569v-569h-169v1024h163v-137h4q95 157 287 157q176 0 266.5 -115t90.5 -331v-598h-173v580q0 92 -18.5 155t-52 93.5t-69 42.5t-81.5 12q-114 0 -181 -77.5t-67 -236.5z" />
    <glyph glyph-name="napostrophe" unicode="&#x149;" horiz-adv-x="1103" 
d="M96 1462h164l-84 -387h-137zM319 569v-569h-169v1024h163v-137h4q95 157 287 157q176 0 266.5 -115t90.5 -331v-598h-173v580q0 92 -18.5 155t-52 93.5t-69 42.5t-81.5 12q-114 0 -181 -77.5t-67 -236.5z" />
    <glyph glyph-name="Eng" unicode="&#x14a;" horiz-adv-x="1376" 
d="M350 0h-178v1434h246l608 -1104v1104h178v-1399q0 -229 -79 -347t-263 -118q-72 0 -127 14.5t-88.5 37.5t-54.5 55t-29 63t-8 65q0 47 12 93l13 34h163q-8 -16 -10 -26q-8 -21 -8 -62q0 -120 139 -120q87 0 120.5 59t41.5 217l-676 1204v-1204z" />
    <glyph glyph-name="eng" unicode="&#x14b;" horiz-adv-x="1103" 
d="M319 569v-569h-169v1024h163v-137h4q95 157 287 157q176 0 266.5 -115t90.5 -331v-600q0 -108 -12.5 -182.5t-43 -132.5t-87 -85.5t-140.5 -27.5q-118 0 -184 53.5t-66 155.5q0 40 8 59l8 23h146l-4 -15q-4 -20 -4 -36q0 -89 96 -89q67 0 88.5 57t21.5 220v582
q0 92 -18.5 155t-52 93.5t-69 42.5t-81.5 12q-114 0 -181 -77.5t-67 -236.5z" />
    <glyph glyph-name="Omacron" unicode="&#x14c;" horiz-adv-x="1409" 
d="M426 1583v135h553v-135h-553zM705 -20q-288 0 -451.5 189t-163.5 517q0 164 41.5 304t118 243.5t194 162t261.5 58.5q116 0 215 -39.5t172 -109.5t124.5 -166t77 -211t25.5 -242q0 -323 -164 -514.5t-450 -191.5zM705 1288q-138 0 -236.5 -82t-145.5 -216.5t-47 -307.5
q0 -250 109.5 -393.5t319.5 -143.5t317.5 143.5t107.5 393.5q0 179 -46 313.5t-143 213.5t-236 79z" />
    <glyph glyph-name="omacron" unicode="&#x14d;" horiz-adv-x="1071" 
d="M276 1210v136h519v-136h-519zM537 -20q-98 0 -176 28t-129.5 75.5t-86 113t-49 137.5t-14.5 153q0 87 17 167.5t54 151.5t89.5 124t128 83.5t166.5 30.5q92 0 168 -31t127.5 -84t87.5 -124.5t52.5 -151.5t16.5 -166q0 -80 -16 -152.5t-51.5 -138t-87.5 -113t-128 -75.5
t-169 -28zM537 891q-79 0 -137 -39t-87.5 -102.5t-43 -129t-13.5 -133.5q0 -47 7 -92t26.5 -94t49.5 -85t81 -59.5t117 -23.5q64 0 113.5 21t80 55t50 81t27 94.5t7.5 100.5q0 55 -7.5 107.5t-27 108t-50 96.5t-80.5 67.5t-113 26.5z" />
    <glyph glyph-name="Obreve" unicode="&#x14e;" horiz-adv-x="1409" 
d="M705 -20q-288 0 -451.5 189t-163.5 517q0 164 41.5 304t118 243.5t194 162t261.5 58.5q116 0 215 -39.5t172 -109.5t124.5 -166t77 -211t25.5 -242q0 -323 -164 -514.5t-450 -191.5zM705 1288q-138 0 -236.5 -82t-145.5 -216.5t-47 -307.5q0 -250 109.5 -393.5
t319.5 -143.5t317.5 143.5t107.5 393.5q0 179 -46 313.5t-143 213.5t-236 79zM700 1548q-138 0 -206 71t-68 198h154q0 -59 28.5 -99.5t91.5 -40.5q64 0 93.5 39.5t29.5 100.5h156q0 -118 -70.5 -193.5t-208.5 -75.5z" />
    <glyph glyph-name="obreve" unicode="&#x14f;" horiz-adv-x="1071" 
d="M537 -20q-98 0 -176 28t-129.5 75.5t-86 113t-49 137.5t-14.5 153q0 87 17 167.5t54 151.5t89.5 124t128 83.5t166.5 30.5q92 0 168 -31t127.5 -84t87.5 -124.5t52.5 -151.5t16.5 -166q0 -80 -16 -152.5t-51.5 -138t-87.5 -113t-128 -75.5t-169 -28zM537 891
q-79 0 -137 -39t-87.5 -102.5t-43 -129t-13.5 -133.5q0 -47 7 -92t26.5 -94t49.5 -85t81 -59.5t117 -23.5q64 0 113.5 21t80 55t50 81t27 94.5t7.5 100.5q0 55 -7.5 107.5t-27 108t-50 96.5t-80.5 67.5t-113 26.5zM532 1157q-137 0 -202.5 72t-65.5 201h156q0 -60 25.5 -102
t86.5 -42q63 0 90 41t27 103h156q0 -118 -69.5 -195.5t-203.5 -77.5z" />
    <glyph glyph-name="Ohungarumlaut" unicode="&#x150;" horiz-adv-x="1409" 
d="M879 1829l-283 -268h-145l194 268h234zM1206 1829l-282 -268h-146l193 268h235zM705 -20q-288 0 -451.5 189t-163.5 517q0 164 41.5 304t118 243.5t194 162t261.5 58.5q116 0 215 -39.5t172 -109.5t124.5 -166t77 -211t25.5 -242q0 -323 -164 -514.5t-450 -191.5z
M705 1288q-138 0 -236.5 -82t-145.5 -216.5t-47 -307.5q0 -250 109.5 -393.5t319.5 -143.5t317.5 143.5t107.5 393.5q0 179 -46 313.5t-143 213.5t-236 79z" />
    <glyph glyph-name="ohungarumlaut" unicode="&#x151;" horiz-adv-x="1071" 
d="M717 1438l-283 -267h-168l207 267h244zM1047 1438l-285 -267h-166l207 267h244zM537 -20q-98 0 -176 28t-129.5 75.5t-86 113t-49 137.5t-14.5 153q0 87 17 167.5t54 151.5t89.5 124t128 83.5t166.5 30.5q92 0 168 -31t127.5 -84t87.5 -124.5t52.5 -151.5t16.5 -166
q0 -80 -16 -152.5t-51.5 -138t-87.5 -113t-128 -75.5t-169 -28zM537 891q-79 0 -137 -39t-87.5 -102.5t-43 -129t-13.5 -133.5q0 -47 7 -92t26.5 -94t49.5 -85t81 -59.5t117 -23.5q64 0 113.5 21t80 55t50 81t27 94.5t7.5 100.5q0 55 -7.5 107.5t-27 108t-50 96.5
t-80.5 67.5t-113 26.5z" />
    <glyph glyph-name="OE" unicode="&#x152;" horiz-adv-x="1726" 
d="M1599 160v-160h-712q-68 -20 -174 -20q-156 0 -277.5 56t-196 153.5t-112 222.5t-37.5 270q0 100 16 194t47.5 181t83 158.5t119 125.5t159 83.5t198.5 29.5q93 0 170 -20h721v-160h-541v-463h500v-160h-500v-491h536zM713 1294q-91 0 -165 -33t-124.5 -90t-84.5 -135.5
t-49.5 -167.5t-15.5 -188q0 -112 25 -207.5t76 -172t137.5 -120t200.5 -43.5q92 0 170 25v1102q-54 30 -170 30z" />
    <glyph glyph-name="oe" unicode="&#x153;" horiz-adv-x="1720" 
d="M1264 133q102 0 146 41.5t44 104.5q0 12 -4 32q-2 6 -2 15h154l6 -21q6 -42 6 -55q0 -107 -94.5 -188.5t-251.5 -81.5q-259 0 -375 192q-118 -192 -363 -192q-98 0 -175.5 28t-128 75.5t-83.5 113t-47 137.5t-14 153q0 87 16.5 167.5t52 152t87 124t126.5 83t166 30.5
q125 0 218.5 -58.5t142.5 -156.5q50 97 142 156t216 59q122 0 211 -56.5t131.5 -147.5t42.5 -205q0 -89 -20 -166h-635q0 -153 69.5 -244.5t215.5 -91.5zM530 891q-64 0 -114 -26.5t-80.5 -68t-50 -97t-26.5 -107t-7 -105.5q0 -47 6.5 -92t25.5 -94t49 -85t80.5 -59.5
t116.5 -23.5q77 0 133.5 30t87 82t44.5 111t14 127q0 71 -14 138t-43.5 130t-87 101.5t-134.5 38.5zM1243 891q-114 0 -177.5 -80t-76.5 -197h477q2 43 -2.5 80.5t-19 75t-39 63.5t-66 42t-96.5 16z" />
    <glyph glyph-name="Racute" unicode="&#x154;" horiz-adv-x="1175" 
d="M907 1829l-282 -268h-166l194 268h254zM352 0h-180v1434h446q114 0 204 -33.5t144.5 -90t82.5 -127t28 -149.5q0 -46 -9 -90t-31 -90.5t-55 -84.5t-86 -69t-120 -47l307 -653h-202l-289 637h-240v-637zM612 1274h-260v-479h266q273 0 273 239q0 122 -76.5 181t-202.5 59z
" />
    <glyph glyph-name="racute" unicode="&#x155;" horiz-adv-x="856" 
d="M754 1438l-283 -269h-162l195 269h250zM582 1044q106 0 172.5 -65.5t66.5 -171.5q0 -44 -12 -90l-10 -35h-158q7 22 8 25q10 27 10 61q0 56 -29 87.5t-83 31.5q-103 0 -165.5 -111t-62.5 -284v-492h-169v1024h159v-147h4q98 167 269 167z" />
    <glyph glyph-name="Rcommaaccent" unicode="&#x156;" horiz-adv-x="1175" 
d="M543 -135h166l-103 -375h-139zM352 0h-180v1434h446q114 0 204 -33.5t144.5 -90t82.5 -127t28 -149.5q0 -46 -9 -90t-31 -90.5t-55 -84.5t-86 -69t-120 -47l307 -653h-202l-289 637h-240v-637zM612 1274h-260v-479h266q273 0 273 239q0 122 -76.5 181t-202.5 59z" />
    <glyph glyph-name="rcommaaccent" unicode="&#x157;" horiz-adv-x="856" 
d="M147 -135h166l-102 -375h-139zM582 1044q106 0 172.5 -65.5t66.5 -171.5q0 -44 -12 -90l-10 -35h-158q7 22 8 25q10 27 10 61q0 56 -29 87.5t-83 31.5q-103 0 -165.5 -111t-62.5 -284v-492h-169v1024h159v-147h4q98 167 269 167z" />
    <glyph glyph-name="Rcaron" unicode="&#x158;" horiz-adv-x="1175" 
d="M836 1825l-195 -269h-213l-199 269h140l161 -144l164 144h142zM352 0h-180v1434h446q114 0 204 -33.5t144.5 -90t82.5 -127t28 -149.5q0 -46 -9 -90t-31 -90.5t-55 -84.5t-86 -69t-120 -47l307 -653h-202l-289 637h-240v-637zM612 1274h-260v-479h266q273 0 273 239
q0 122 -76.5 181t-202.5 59z" />
    <glyph glyph-name="rcaron" unicode="&#x159;" horiz-adv-x="856" 
d="M737 1434l-194 -269h-213l-199 269h139l162 -144l164 144h141zM582 1044q106 0 172.5 -65.5t66.5 -171.5q0 -44 -12 -90l-10 -35h-158q7 22 8 25q10 27 10 61q0 56 -29 87.5t-83 31.5q-103 0 -165.5 -111t-62.5 -284v-492h-169v1024h159v-147h4q98 167 269 167z" />
    <glyph glyph-name="Sacute" unicode="&#x15a;" horiz-adv-x="1124" 
d="M928 1829l-283 -268h-166l195 268h254zM821 1090q0 55 -22.5 96t-59.5 63t-78 32.5t-86 10.5q-119 0 -186 -58.5t-67 -162.5q0 -29 8 -54.5t18.5 -44.5t33 -38t39 -30t50.5 -27t53.5 -23.5t61.5 -23t61 -23.5q52 -20 82.5 -32.5t78 -35.5t76 -44.5t62 -54.5t52 -68.5
t31.5 -84.5t13 -106q0 -178 -122.5 -289.5t-348.5 -111.5q-222 0 -347.5 94.5t-125.5 265.5q0 42 13 92l12 37h178q-7 -10 -10 -27q-8 -24 -8 -80q0 -109 74.5 -165t215.5 -56q80 0 137.5 19.5t88.5 54.5t45 76t14 90q0 33 -9.5 62.5t-22.5 51t-39 42t-47 34t-58.5 29.5
t-61.5 25t-67 24q-7 3 -22 8q-38 14 -57.5 21.5t-56 22t-56.5 25.5t-50.5 28.5t-48.5 34t-41 39.5t-35.5 47.5t-25 54.5t-18 65.5t-5.5 75.5q0 169 120.5 276t315.5 107q192 0 310 -92t118 -250q0 -44 -12 -90l-10 -37h-176l8 29q10 30 10 76z" />
    <glyph glyph-name="sacute" unicode="&#x15b;" horiz-adv-x="913" 
d="M791 1438l-283 -269h-162l195 269h250zM465 -23q-180 0 -279.5 72.5t-99.5 192.5q0 49 10 82l13 28h161q-7 -11 -10 -22q-8 -19 -8 -51q0 -150 217 -150q209 0 209 147q0 30 -12 54t-30 40t-49 30t-57.5 22t-68.5 18q-136 33 -183 54q-139 60 -163 191q-6 31 -6 65
q0 138 96 216t258 78q153 0 251.5 -66t98.5 -183q0 -44 -12 -80l-13 -29h-155l8 19q8 19 8 53q0 68 -48 102.5t-136 34.5q-89 0 -141 -35t-52 -106q0 -16 4 -30t8.5 -25t16 -21.5t19.5 -17.5t25.5 -15.5t27 -12.5t32.5 -11t32.5 -10t36.5 -9.5t36 -9.5q35 -8 52 -12.5
t50.5 -14.5t51.5 -18t46 -22.5t44 -29t35 -36t29 -45t17 -54.5t7 -67q0 -158 -97.5 -237t-279.5 -79z" />
    <glyph glyph-name="Scircumflex" unicode="&#x15c;" horiz-adv-x="1124" 
d="M700 1825l195 -269h-141l-164 144l-162 -144h-139l198 269h213zM821 1090q0 55 -22.5 96t-59.5 63t-78 32.5t-86 10.5q-119 0 -186 -58.5t-67 -162.5q0 -29 8 -54.5t18.5 -44.5t33 -38t39 -30t50.5 -27t53.5 -23.5t61.5 -23t61 -23.5q52 -20 82.5 -32.5t78 -35.5
t76 -44.5t62 -54.5t52 -68.5t31.5 -84.5t13 -106q0 -178 -122.5 -289.5t-348.5 -111.5q-222 0 -347.5 94.5t-125.5 265.5q0 42 13 92l12 37h178q-7 -10 -10 -27q-8 -24 -8 -80q0 -109 74.5 -165t215.5 -56q80 0 137.5 19.5t88.5 54.5t45 76t14 90q0 33 -9.5 62.5t-22.5 51
t-39 42t-47 34t-58.5 29.5t-61.5 25t-67 24q-7 3 -22 8q-38 14 -57.5 21.5t-56 22t-56.5 25.5t-50.5 28.5t-48.5 34t-41 39.5t-35.5 47.5t-25 54.5t-18 65.5t-5.5 75.5q0 169 120.5 276t315.5 107q192 0 310 -92t118 -250q0 -44 -12 -90l-10 -37h-176l8 29q10 30 10 76z" />
    <glyph glyph-name="scircumflex" unicode="&#x15d;" horiz-adv-x="913" 
d="M571 1434l195 -269h-141l-164 144l-162 -144h-139l198 269h213zM465 -23q-180 0 -279.5 72.5t-99.5 192.5q0 49 10 82l13 28h161q-7 -11 -10 -22q-8 -19 -8 -51q0 -150 217 -150q209 0 209 147q0 30 -12 54t-30 40t-49 30t-57.5 22t-68.5 18q-136 33 -183 54
q-139 60 -163 191q-6 31 -6 65q0 138 96 216t258 78q153 0 251.5 -66t98.5 -183q0 -44 -12 -80l-13 -29h-155l8 19q8 19 8 53q0 68 -48 102.5t-136 34.5q-89 0 -141 -35t-52 -106q0 -16 4 -30t8.5 -25t16 -21.5t19.5 -17.5t25.5 -15.5t27 -12.5t32.5 -11t32.5 -10t36.5 -9.5
t36 -9.5q35 -8 52 -12.5t50.5 -14.5t51.5 -18t46 -22.5t44 -29t35 -36t29 -45t17 -54.5t7 -67q0 -158 -97.5 -237t-279.5 -79z" />
    <glyph glyph-name="Scedilla" unicode="&#x15e;" horiz-adv-x="1124" 
d="M821 1090q0 55 -22.5 96t-59.5 63t-78 32.5t-86 10.5q-119 0 -186 -58.5t-67 -162.5q0 -29 8 -54.5t18.5 -44.5t33 -38t39 -30t50.5 -27t53.5 -23.5t61.5 -23t61 -23.5q52 -20 82.5 -32.5t78 -35.5t76 -44.5t62 -54.5t52 -68.5t31.5 -84.5t13 -106q0 -178 -122.5 -289.5
t-348.5 -111.5q-222 0 -347.5 94.5t-125.5 265.5q0 42 13 92l12 37h178q-7 -10 -10 -27q-8 -24 -8 -80q0 -109 74.5 -165t215.5 -56q80 0 137.5 19.5t88.5 54.5t45 76t14 90q0 33 -9.5 62.5t-22.5 51t-39 42t-47 34t-58.5 29.5t-61.5 25t-67 24q-7 3 -22 8
q-38 14 -57.5 21.5t-56 22t-56.5 25.5t-50.5 28.5t-48.5 34t-41 39.5t-35.5 47.5t-25 54.5t-18 65.5t-5.5 75.5q0 169 120.5 276t315.5 107q192 0 310 -92t118 -250q0 -44 -12 -90l-10 -37h-176l8 29q10 30 10 76zM471 -156v90l29 9q24 8 71 8q199 0 199 -154
q0 -84 -57 -136t-174 -52q-88 0 -150 35t-78 114l111 27q19 -78 127 -78q43 0 73.5 17.5t30.5 60.5q0 72 -102 72q-10 0 -59 -7z" />
    <glyph glyph-name="scedilla" unicode="&#x15f;" horiz-adv-x="913" 
d="M465 -23q-180 0 -279.5 72.5t-99.5 192.5q0 49 10 82l13 28h161q-7 -11 -10 -22q-8 -19 -8 -51q0 -150 217 -150q209 0 209 147q0 30 -12 54t-30 40t-49 30t-57.5 22t-68.5 18q-136 33 -183 54q-139 60 -163 191q-6 31 -6 65q0 138 96 216t258 78q153 0 251.5 -66
t98.5 -183q0 -44 -12 -80l-13 -29h-155l8 19q8 19 8 53q0 68 -48 102.5t-136 34.5q-89 0 -141 -35t-52 -106q0 -16 4 -30t8.5 -25t16 -21.5t19.5 -17.5t25.5 -15.5t27 -12.5t32.5 -11t32.5 -10t36.5 -9.5t36 -9.5q35 -8 52 -12.5t50.5 -14.5t51.5 -18t46 -22.5t44 -29
t35 -36t29 -45t17 -54.5t7 -67q0 -158 -97.5 -237t-279.5 -79zM385 -156v90l29 9q24 8 71 8q199 0 199 -154q0 -84 -57 -136t-174 -52q-88 0 -150 35t-78 114l111 27q19 -78 127 -78q43 0 73.5 17.5t30.5 60.5q0 72 -102 72q-10 0 -59 -7z" />
    <glyph glyph-name="Scaron" unicode="&#x160;" horiz-adv-x="1124" 
d="M872 1825l-194 -269h-213l-199 269h140l161 -144l164 144h141zM821 1090q0 55 -22.5 96t-59.5 63t-78 32.5t-86 10.5q-119 0 -186 -58.5t-67 -162.5q0 -29 8 -54.5t18.5 -44.5t33 -38t39 -30t50.5 -27t53.5 -23.5t61.5 -23t61 -23.5q52 -20 82.5 -32.5t78 -35.5t76 -44.5
t62 -54.5t52 -68.5t31.5 -84.5t13 -106q0 -178 -122.5 -289.5t-348.5 -111.5q-222 0 -347.5 94.5t-125.5 265.5q0 42 13 92l12 37h178q-7 -10 -10 -27q-8 -24 -8 -80q0 -109 74.5 -165t215.5 -56q80 0 137.5 19.5t88.5 54.5t45 76t14 90q0 33 -9.5 62.5t-22.5 51t-39 42
t-47 34t-58.5 29.5t-61.5 25t-67 24q-7 3 -22 8q-38 14 -57.5 21.5t-56 22t-56.5 25.5t-50.5 28.5t-48.5 34t-41 39.5t-35.5 47.5t-25 54.5t-18 65.5t-5.5 75.5q0 169 120.5 276t315.5 107q192 0 310 -92t118 -250q0 -44 -12 -90l-10 -37h-176l8 29q10 30 10 76z" />
    <glyph glyph-name="scaron" unicode="&#x161;" horiz-adv-x="913" 
d="M758 1434l-195 -269h-213l-198 269h139l162 -144l163 144h142zM465 -23q-180 0 -279.5 72.5t-99.5 192.5q0 49 10 82l13 28h161q-7 -11 -10 -22q-8 -19 -8 -51q0 -150 217 -150q209 0 209 147q0 30 -12 54t-30 40t-49 30t-57.5 22t-68.5 18q-136 33 -183 54
q-139 60 -163 191q-6 31 -6 65q0 138 96 216t258 78q153 0 251.5 -66t98.5 -183q0 -44 -12 -80l-13 -29h-155l8 19q8 19 8 53q0 68 -48 102.5t-136 34.5q-89 0 -141 -35t-52 -106q0 -16 4 -30t8.5 -25t16 -21.5t19.5 -17.5t25.5 -15.5t27 -12.5t32.5 -11t32.5 -10t36.5 -9.5
t36 -9.5q35 -8 52 -12.5t50.5 -14.5t51.5 -18t46 -22.5t44 -29t35 -36t29 -45t17 -54.5t7 -67q0 -158 -97.5 -237t-279.5 -79z" />
    <glyph glyph-name="Tcedilla" unicode="&#x162;" horiz-adv-x="1058" 
d="M618 0h-180v1270h-403v164h989v-164h-406v-1270zM416 -156v90l28 9q24 8 72 8q199 0 199 -154q0 -84 -57.5 -136t-174.5 -52q-197 0 -227 149l111 27q19 -78 127 -78q43 0 73.5 17.5t30.5 60.5q0 72 -102 72q-11 0 -60 -7z" />
    <glyph glyph-name="tcommaaccent" unicode="&#x163;" horiz-adv-x="784" 
d="M362 -135h166l-102 -375h-139zM211 289v588h-162v147h162v276h168v-276h283v-147h-283v-590q0 -154 108 -154q48 0 72.5 22t24.5 60q0 11 -4 39l-5 16h144q1 -3 4 -11.5t4 -14.5q8 -21 8 -58q0 -89 -69.5 -147.5t-178.5 -58.5q-61 0 -108.5 14.5t-86.5 48t-60 95.5
t-21 151z" />
    <glyph glyph-name="Tcaron" unicode="&#x164;" horiz-adv-x="1058" 
d="M831 1825l-194 -269h-213l-199 269h140l161 -144l164 144h141zM618 0h-180v1270h-403v164h989v-164h-406v-1270z" />
    <glyph glyph-name="tcaron" unicode="&#x165;" horiz-adv-x="784" 
d="M512 1546h164l-84 -387h-137zM211 289v588h-162v147h162v276h168v-276h283v-147h-283v-590q0 -154 108 -154q48 0 72.5 22t24.5 60q0 11 -4 39l-5 16h144q1 -3 4 -11.5t4 -14.5q8 -21 8 -58q0 -89 -69.5 -147.5t-178.5 -58.5q-61 0 -108.5 14.5t-86.5 48t-60 95.5
t-21 151z" />
    <glyph glyph-name="Tbar" unicode="&#x166;" horiz-adv-x="1058" 
d="M133 647v152h305v471h-403v164h989v-164h-406v-471h310v-152h-310v-647h-180v647h-305z" />
    <glyph glyph-name="tbar" unicode="&#x167;" horiz-adv-x="784" 
d="M47 545v139h612v-139h-612zM211 289v588h-162v147h162v276h168v-276h283v-147h-283v-590q0 -154 108 -154q48 0 72.5 22t24.5 60q0 11 -4 39l-5 16h144q1 -3 4 -11.5t4 -14.5q8 -21 8 -58q0 -89 -69.5 -147.5t-178.5 -58.5q-61 0 -108.5 14.5t-86.5 48t-60 95.5t-21 151z
" />
    <glyph glyph-name="Utilde" unicode="&#x168;" horiz-adv-x="1335" 
d="M1171 1434v-947q0 -73 -13.5 -141t-49.5 -136t-90.5 -118t-144 -81t-203.5 -31q-115 0 -204.5 28t-146 75t-92.5 113.5t-50.5 137.5t-14.5 153v947h186v-942q0 -97 27 -166.5t74.5 -106.5t101.5 -53t119 -16q49 0 92 9.5t85.5 33.5t73 61.5t49.5 98.5t19 139v942h182z
M809 1573q-56 0 -150.5 41t-121.5 41q-58 0 -58 -62v-18q0 -8 2 -10h-100l-6 30q-4 32 -4 56q0 72 42 113.5t111 41.5q53 0 144.5 -42t126.5 -42q59 0 59 60q0 3 -1 10t-1 10q-2 4 -2 10h102l4 -26q5 -40 5 -57q0 -73 -42 -114.5t-110 -41.5z" />
    <glyph glyph-name="utilde" unicode="&#x169;" horiz-adv-x="1099" 
d="M782 467v557h168v-1024h-155v127h-4q-94 -147 -287 -147q-181 0 -270 109t-89 335v600h168v-584q0 -79 13.5 -135.5t34 -87.5t53 -49t60.5 -22.5t67 -4.5q48 0 88.5 16t76 51.5t56 101.5t20.5 157zM692 1194q-56 0 -150.5 41t-121.5 41q-58 0 -58 -64v-18q0 -7 3 -10
h-101l-6 30q-4 32 -4 56q0 73 42.5 114t111.5 41q53 0 144 -41t126 -41q59 0 59 60q0 3 -1 10t-1 10q-2 4 -2 9h103l4 -27q4 -32 4 -57q0 -72 -42 -113t-110 -41z" />
    <glyph glyph-name="Umacron" unicode="&#x16a;" horiz-adv-x="1335" 
d="M1171 1434v-947q0 -73 -13.5 -141t-49.5 -136t-90.5 -118t-144 -81t-203.5 -31q-115 0 -204.5 28t-146 75t-92.5 113.5t-50.5 137.5t-14.5 153v947h186v-942q0 -97 27 -166.5t74.5 -106.5t101.5 -53t119 -16q49 0 92 9.5t85.5 33.5t73 61.5t49.5 98.5t19 139v942h182z
M389 1583v135h553v-135h-553z" />
    <glyph glyph-name="umacron" unicode="&#x16b;" horiz-adv-x="1099" 
d="M782 467v557h168v-1024h-155v127h-4q-94 -147 -287 -147q-181 0 -270 109t-89 335v600h168v-584q0 -79 13.5 -135.5t34 -87.5t53 -49t60.5 -22.5t67 -4.5q48 0 88.5 16t76 51.5t56 101.5t20.5 157zM291 1210v136h518v-136h-518z" />
    <glyph glyph-name="Ubreve" unicode="&#x16c;" horiz-adv-x="1335" 
d="M1171 1434v-947q0 -73 -13.5 -141t-49.5 -136t-90.5 -118t-144 -81t-203.5 -31q-115 0 -204.5 28t-146 75t-92.5 113.5t-50.5 137.5t-14.5 153v947h186v-942q0 -97 27 -166.5t74.5 -106.5t101.5 -53t119 -16q49 0 92 9.5t85.5 33.5t73 61.5t49.5 98.5t19 139v942h182z
M664 1548q-138 0 -206.5 71t-68.5 198h154q0 -59 28.5 -99.5t92.5 -40.5t93 39.5t29 100.5h156q0 -118 -70 -193.5t-208 -75.5z" />
    <glyph glyph-name="ubreve" unicode="&#x16d;" horiz-adv-x="1099" 
d="M782 467v557h168v-1024h-155v127h-4q-94 -147 -287 -147q-181 0 -270 109t-89 335v600h168v-584q0 -79 13.5 -135.5t34 -87.5t53 -49t60.5 -22.5t67 -4.5q48 0 88.5 16t76 51.5t56 101.5t20.5 157zM547 1157q-137 0 -202.5 72t-65.5 201h155q0 -60 26 -102t87 -42
q63 0 90 41t27 103h155q0 -118 -69 -195.5t-203 -77.5z" />
    <glyph glyph-name="Uring" unicode="&#x16e;" horiz-adv-x="1335" 
d="M455 1741q0 91 61.5 151t149.5 60t149.5 -60t61.5 -151q0 -89 -61.5 -148t-149.5 -59q-90 0 -150.5 56t-60.5 151zM557 1741q0 -53 30.5 -84t78.5 -31q45 0 76.5 31.5t31.5 83.5q0 55 -31.5 86t-76.5 31q-49 0 -79 -30.5t-30 -86.5zM1171 1434v-947q0 -73 -13.5 -141
t-49.5 -136t-90.5 -118t-144 -81t-203.5 -31q-115 0 -204.5 28t-146 75t-92.5 113.5t-50.5 137.5t-14.5 153v947h186v-942q0 -97 27 -166.5t74.5 -106.5t101.5 -53t119 -16q49 0 92 9.5t85.5 33.5t73 61.5t49.5 98.5t19 139v942h182z" />
    <glyph glyph-name="uring" unicode="&#x16f;" horiz-adv-x="1099" 
d="M336 1401q0 91 61.5 151t149.5 60t149.5 -60t61.5 -151q0 -89 -61.5 -148t-149.5 -59q-90 0 -150.5 56t-60.5 151zM438 1401q0 -53 30.5 -84t78.5 -31q45 0 76.5 31.5t31.5 83.5q0 55 -31.5 86t-76.5 31q-49 0 -79 -30.5t-30 -86.5zM782 467v557h168v-1024h-155v127h-4
q-94 -147 -287 -147q-181 0 -270 109t-89 335v600h168v-584q0 -79 13.5 -135.5t34 -87.5t53 -49t60.5 -22.5t67 -4.5q48 0 88.5 16t76 51.5t56 101.5t20.5 157z" />
    <glyph glyph-name="Uhungarumlaut" unicode="&#x170;" horiz-adv-x="1335" 
d="M1171 1434v-947q0 -73 -13.5 -141t-49.5 -136t-90.5 -118t-144 -81t-203.5 -31q-115 0 -204.5 28t-146 75t-92.5 113.5t-50.5 137.5t-14.5 153v947h186v-942q0 -97 27 -166.5t74.5 -106.5t101.5 -53t119 -16q49 0 92 9.5t85.5 33.5t73 61.5t49.5 98.5t19 139v942h182z
M819 1829l-282 -268h-146l195 268h233zM1147 1829l-283 -268h-145l192 268h236z" />
    <glyph glyph-name="uhungarumlaut" unicode="&#x171;" horiz-adv-x="1099" 
d="M782 467v557h168v-1024h-155v127h-4q-94 -147 -287 -147q-181 0 -270 109t-89 335v600h168v-584q0 -79 13.5 -135.5t34 -87.5t53 -49t60.5 -22.5t67 -4.5q48 0 88.5 16t76 51.5t56 101.5t20.5 157zM731 1438l-282 -267h-168l206 267h244zM1061 1438l-285 -267h-166
l207 267h244z" />
    <glyph glyph-name="Uogonek" unicode="&#x172;" horiz-adv-x="1335" 
d="M741 0h97q3 -29 -25.5 -56t-58 -40.5t-54.5 -20.5q-48 -17 -67 -38t-19 -54q0 -38 29 -56t70 -18q94 0 121 70l96 -27q-11 -62 -68.5 -102.5t-146.5 -40.5q-105 0 -161 45t-56 125q0 75 42.5 116.5t121.5 61.5q46 12 79 35zM1171 1434v-947q0 -73 -13.5 -141t-49.5 -136
t-90.5 -118t-144 -81t-203.5 -31q-115 0 -204.5 28t-146 75t-92.5 113.5t-50.5 137.5t-14.5 153v947h186v-942q0 -97 27 -166.5t74.5 -106.5t101.5 -53t119 -16q49 0 92 9.5t85.5 33.5t73 61.5t49.5 98.5t19 139v942h182z" />
    <glyph glyph-name="uogonek" unicode="&#x173;" horiz-adv-x="1099" 
d="M784 -25q51 13 70 25h96q3 -29 -25.5 -56t-57.5 -40.5t-54 -20.5q-51 -18 -68.5 -34t-17.5 -48q0 -38 31 -54.5t67 -16.5q94 0 121 69l96 -26q-5 -57 -59 -101.5t-154 -44.5q-105 0 -162 44t-57 126q0 76 45 113.5t129 64.5zM782 467v557h168v-1024h-155v127h-4
q-94 -147 -287 -147q-181 0 -270 109t-89 335v600h168v-584q0 -79 13.5 -135.5t34 -87.5t53 -49t60.5 -22.5t67 -4.5q48 0 88.5 16t76 51.5t56 101.5t20.5 157z" />
    <glyph glyph-name="Wcircumflex" unicode="&#x174;" horiz-adv-x="1824" 
d="M1020 1825l194 -269h-141l-164 144l-161 -144h-140l199 269h213zM815 1434h195l233 -1016l29 -135l16 -72l19 72l32 135l263 1016h192l-403 -1434h-205l-223 928q-8 33 -20 87t-20.5 91.5t-11.5 44.5l-49 -223l-217 -928h-211l-403 1434h194l262 -1014l33 -137l17 -74
l16 74q5 24 16 73t15 66z" />
    <glyph glyph-name="wcircumflex" unicode="&#x175;" horiz-adv-x="1527" 
d="M870 1434l195 -269h-141l-164 144l-162 -144h-139l198 269h213zM674 1024h180l188 -698l27 -103q7 -20 14 -53q2 19 13 51l26 107l178 696h185l-299 -1024h-207l-160 590l-57 223l-57 -221l-164 -592h-199l-299 1024h186l177 -696l36 -158l41 158z" />
    <glyph glyph-name="Ycircumflex" unicode="&#x176;" horiz-adv-x="1095" 
d="M457 571l-453 863h205l338 -686l340 686h205l-453 -863v-571h-182v571zM655 1825l195 -269h-141l-164 144l-162 -144h-139l198 269h213z" />
    <glyph glyph-name="ycircumflex" unicode="&#x177;" horiz-adv-x="923" 
d="M518 414l197 610h178l-352 -1008q-62 -181 -145 -276.5t-206 -95.5q-51 0 -84 10l-28 12v148q14 -10 20 -11q27 -10 64 -10q77 0 122 47t83 156l18 55l-352 973h188l199 -610q39 -140 49 -150q0 5 8.5 30t21 61.5t19.5 58.5zM569 1434l195 -269h-141l-164 144l-162 -144
h-139l198 269h213z" />
    <glyph glyph-name="Ydieresis" unicode="&#x178;" horiz-adv-x="1095" 
d="M457 571l-453 863h205l338 -686l340 686h205l-453 -863v-571h-182v571zM246 1663q0 51 35.5 86t85.5 35t84 -35t34 -86q0 -50 -34.5 -84.5t-83.5 -34.5q-50 0 -85.5 35t-35.5 84zM608 1663q0 50 35.5 85.5t83.5 35.5q51 0 86 -35t35 -86q0 -50 -35 -84.5t-86 -34.5
q-48 0 -83.5 35t-35.5 84z" />
    <glyph glyph-name="Zacute" unicode="&#x179;" horiz-adv-x="1050" 
d="M877 1829l-283 -268h-166l195 268h254zM991 1434v-152l-719 -1118h709v-164h-920v154l715 1116h-667v164h882z" />
    <glyph glyph-name="zacute" unicode="&#x17a;" horiz-adv-x="872" 
d="M784 1438l-282 -269h-162l195 269h249zM115 874v150h671v-141l-505 -733h520v-150h-713v143l502 731h-475z" />
    <glyph glyph-name="Zdotaccent" unicode="&#x17b;" horiz-adv-x="1050" 
d="M991 1434v-152l-719 -1118h709v-164h-920v154l715 1116h-667v164h882zM408 1681q0 51 36.5 87t90.5 36q53 0 88.5 -35.5t35.5 -87.5q0 -55 -35 -92t-89 -37t-90.5 37.5t-36.5 91.5z" />
    <glyph glyph-name="zdotaccent" unicode="&#x17c;" horiz-adv-x="872" 
d="M115 874v150h671v-141l-505 -733h520v-150h-713v143l502 731h-475zM322 1313q0 51 38 87t89 36q54 0 90 -36t36 -87q0 -54 -36 -91.5t-90 -37.5q-51 0 -89 38t-38 91z" />
    <glyph glyph-name="Zcaron" unicode="&#x17d;" horiz-adv-x="1050" 
d="M850 1825l-195 -269h-213l-198 269h139l162 -144l164 144h141zM991 1434v-152l-719 -1118h709v-164h-920v154l715 1116h-667v164h882z" />
    <glyph glyph-name="zcaron" unicode="&#x17e;" horiz-adv-x="872" 
d="M752 1434l-195 -269h-213l-199 269h140l161 -144l164 144h142zM115 874v150h671v-141l-505 -733h520v-150h-713v143l502 731h-475z" />
    <glyph glyph-name="florin" unicode="&#x192;" horiz-adv-x="870" 
d="M18 -430q-93 0 -156 43t-63 129q0 33 13 72q8 20 14 30h131l-6 -18q-4 -28 -4 -41q0 -64 84 -64q28 0 50 10t37 31.5t25.5 44t18 59t11.5 64t9 70.5l109 811h-131l20 143h133l13 82q31 193 103.5 285t221.5 92q101 0 158 -52t57 -120q0 -53 -30 -106h-131l10 20
q12 28 12 45q0 64 -84 64q-30 0 -53 -9t-39 -29.5t-27 -41t-18.5 -55.5t-11.5 -61.5t-9 -68.5l-6 -45h228l-23 -143h-223l-111 -811q-11 -79 -24.5 -137t-38.5 -116t-59.5 -95t-87.5 -59.5t-122 -22.5z" />
    <glyph glyph-name="Acaron" unicode="&#x1cd;" horiz-adv-x="1257" 
d="M1047 0l-129 377h-578l-129 -377h-195l514 1434h197l514 -1434h-194zM629 1227l-236 -690h471zM930 1825l-195 -269h-213l-198 269h139l162 -144l163 144h142z" />
    <glyph glyph-name="acaron" unicode="&#x1ce;" horiz-adv-x="1028" 
d="M883 664v-664h-162v123h-6q-43 -64 -122.5 -103.5t-176.5 -39.5q-162 0 -246 80.5t-84 215.5q0 71 25.5 124.5t75.5 88.5t114 56.5t152 34.5q156 24 206 59t50 113q0 44 -19.5 74t-53 44t-65 19.5t-67.5 5.5q-221 0 -221 -150q0 -32 10 -59q2 -8 10 -20h-156l-12 30
q-12 36 -12 82q0 121 100 193.5t281 72.5q260 0 342 -163q37 -75 37 -217zM717 385v145h-6q-37 -64 -236 -92q-121 -17 -171 -55t-50 -107q0 -68 44.5 -108.5t143.5 -40.5q129 0 202 76t73 182zM813 1434l-195 -269h-212l-199 269h139l162 -144l164 144h141z" />
    <glyph glyph-name="Scommaaccent" unicode="&#x218;" horiz-adv-x="1124" 
d="M504 -135h166l-103 -375h-139zM821 1090q0 55 -22.5 96t-59.5 63t-78 32.5t-86 10.5q-119 0 -186 -58.5t-67 -162.5q0 -29 8 -54.5t18.5 -44.5t33 -38t39 -30t50.5 -27t53.5 -23.5t61.5 -23t61 -23.5q52 -20 82.5 -32.5t78 -35.5t76 -44.5t62 -54.5t52 -68.5t31.5 -84.5
t13 -106q0 -178 -122.5 -289.5t-348.5 -111.5q-222 0 -347.5 94.5t-125.5 265.5q0 42 13 92l12 37h178q-7 -10 -10 -27q-8 -24 -8 -80q0 -109 74.5 -165t215.5 -56q80 0 137.5 19.5t88.5 54.5t45 76t14 90q0 33 -9.5 62.5t-22.5 51t-39 42t-47 34t-58.5 29.5t-61.5 25
t-67 24q-7 3 -22 8q-38 14 -57.5 21.5t-56 22t-56.5 25.5t-50.5 28.5t-48.5 34t-41 39.5t-35.5 47.5t-25 54.5t-18 65.5t-5.5 75.5q0 169 120.5 276t315.5 107q192 0 310 -92t118 -250q0 -44 -12 -90l-10 -37h-176l8 29q10 30 10 76z" />
    <glyph glyph-name="scommaaccent" unicode="&#x219;" horiz-adv-x="913" 
d="M401 -135h166l-102 -375h-139zM465 -23q-180 0 -279.5 72.5t-99.5 192.5q0 49 10 82l13 28h161q-7 -11 -10 -22q-8 -19 -8 -51q0 -150 217 -150q209 0 209 147q0 30 -12 54t-30 40t-49 30t-57.5 22t-68.5 18q-136 33 -183 54q-139 60 -163 191q-6 31 -6 65q0 138 96 216
t258 78q153 0 251.5 -66t98.5 -183q0 -44 -12 -80l-13 -29h-155l8 19q8 19 8 53q0 68 -48 102.5t-136 34.5q-89 0 -141 -35t-52 -106q0 -16 4 -30t8.5 -25t16 -21.5t19.5 -17.5t25.5 -15.5t27 -12.5t32.5 -11t32.5 -10t36.5 -9.5t36 -9.5q35 -8 52 -12.5t50.5 -14.5
t51.5 -18t46 -22.5t44 -29t35 -36t29 -45t17 -54.5t7 -67q0 -158 -97.5 -237t-279.5 -79z" />
    <glyph glyph-name="Tcommaaccent" unicode="&#x21a;" horiz-adv-x="1058" 
d="M440 -135h166l-102 -375h-139zM618 0h-180v1270h-403v164h989v-164h-406v-1270z" />
    <glyph glyph-name="tcedilla" unicode="&#x21b;" horiz-adv-x="784" 
d="M211 289v588h-162v147h162v276h168v-276h283v-147h-283v-590q0 -154 108 -154q48 0 72.5 22t24.5 60q0 11 -4 39l-5 16h144q1 -3 4 -11.5t4 -14.5q8 -21 8 -58q0 -89 -69.5 -147.5t-178.5 -58.5q-61 0 -108.5 14.5t-86.5 48t-60 95.5t-21 151zM338 -162v90l29 9
q24 8 71 8q199 0 199 -154q0 -84 -57 -136t-174 -52q-88 0 -150 35t-78 114l111 27q19 -78 127 -78q43 0 73.5 17.5t30.5 60.5q0 41 -27 56t-75 15q-18 0 -60 -6z" />
    <glyph glyph-name="Adotaccent" unicode="&#x226;" horiz-adv-x="1257" 
d="M1047 0l-129 377h-578l-129 -377h-195l514 1434h197l514 -1434h-194zM629 1227l-236 -690h471zM502 1681q0 51 36.5 87t90.5 36q53 0 89 -36t36 -87q0 -54 -35.5 -91.5t-89.5 -37.5t-90.5 37.5t-36.5 91.5z" />
    <glyph glyph-name="adotaccent" unicode="&#x227;" horiz-adv-x="1028" 
d="M883 664v-664h-162v123h-6q-43 -64 -122.5 -103.5t-176.5 -39.5q-162 0 -246 80.5t-84 215.5q0 71 25.5 124.5t75.5 88.5t114 56.5t152 34.5q156 24 206 59t50 113q0 44 -19.5 74t-53 44t-65 19.5t-67.5 5.5q-221 0 -221 -150q0 -32 10 -59q2 -8 10 -20h-156l-12 30
q-12 36 -12 82q0 121 100 193.5t281 72.5q260 0 342 -163q37 -75 37 -217zM717 385v145h-6q-37 -64 -236 -92q-121 -17 -171 -55t-50 -107q0 -68 44.5 -108.5t143.5 -40.5q129 0 202 76t73 182zM377 1313q0 51 38 87t89 36q54 0 90.5 -36t36.5 -87q0 -54 -36.5 -91.5
t-90.5 -37.5q-52 0 -89.5 38t-37.5 91z" />
    <glyph glyph-name="Odotaccent" unicode="&#x22e;" horiz-adv-x="1409" 
d="M705 -20q-288 0 -451.5 189t-163.5 517q0 164 41.5 304t118 243.5t194 162t261.5 58.5q116 0 215 -39.5t172 -109.5t124.5 -166t77 -211t25.5 -242q0 -323 -164 -514.5t-450 -191.5zM705 1288q-138 0 -236.5 -82t-145.5 -216.5t-47 -307.5q0 -250 109.5 -393.5
t319.5 -143.5t317.5 143.5t107.5 393.5q0 179 -46 313.5t-143 213.5t-236 79zM578 1681q0 51 36.5 87t90.5 36q53 0 88.5 -35.5t35.5 -87.5q0 -55 -35 -92t-89 -37t-90.5 37.5t-36.5 91.5z" />
    <glyph glyph-name="odotaccent" unicode="&#x22f;" horiz-adv-x="1071" 
d="M537 -20q-98 0 -176 28t-129.5 75.5t-86 113t-49 137.5t-14.5 153q0 87 17 167.5t54 151.5t89.5 124t128 83.5t166.5 30.5q92 0 168 -31t127.5 -84t87.5 -124.5t52.5 -151.5t16.5 -166q0 -80 -16 -152.5t-51.5 -138t-87.5 -113t-128 -75.5t-169 -28zM537 891
q-79 0 -137 -39t-87.5 -102.5t-43 -129t-13.5 -133.5q0 -47 7 -92t26.5 -94t49.5 -85t81 -59.5t117 -23.5q64 0 113.5 21t80 55t50 81t27 94.5t7.5 100.5q0 55 -7.5 107.5t-27 108t-50 96.5t-80.5 67.5t-113 26.5zM408 1313q0 51 38 87t89 36q54 0 90.5 -36t36.5 -87
q0 -54 -36.5 -91.5t-90.5 -37.5q-51 0 -89 38t-38 91z" />
    <glyph glyph-name="Ymacron" unicode="&#x232;" horiz-adv-x="1095" 
d="M457 571l-453 863h205l338 -686l340 686h205l-453 -863v-571h-182v571zM268 1583v135h553v-135h-553z" />
    <glyph glyph-name="ymacron" unicode="&#x233;" horiz-adv-x="923" 
d="M518 414l197 610h178l-352 -1008q-62 -181 -145 -276.5t-206 -95.5q-51 0 -84 10l-28 12v148q14 -10 20 -11q27 -10 64 -10q77 0 122 47t83 156l18 55l-352 973h188l199 -610q39 -140 49 -150q0 5 8.5 30t21 61.5t19.5 58.5zM197 1210v136h518v-136h-518z" />
    <glyph glyph-name="dotlessj" unicode="&#x237;" horiz-adv-x="501" 
d="M352 1024v-1006q0 -94 -6.5 -160.5t-24.5 -124t-49.5 -91.5t-81.5 -53t-120 -19q-118 0 -183 53.5t-65 155.5q0 40 8 59l8 23h146l-4 -15q-5 -25 -5 -36q0 -89 95 -89q71 0 92.5 59.5t21.5 231.5v1012h168z" />
    <glyph glyph-name="circumflex" unicode="&#x2c6;" horiz-adv-x="614" 
d="M416 1434l194 -269h-141l-164 144l-162 -144h-139l199 269h213z" />
    <glyph glyph-name="caron" unicode="&#x2c7;" horiz-adv-x="614" 
d="M610 1434l-194 -269h-213l-199 269h139l162 -144l164 144h141z" />
    <glyph glyph-name="uni02C9" unicode="&#x2c9;" horiz-adv-x="989" 
d="M205 1284v102h579v-102h-579z" />
    <glyph glyph-name="breve" unicode="&#x2d8;" horiz-adv-x="473" 
d="M238 1157q-137 0 -203 72t-66 201h156q0 -60 26 -102t87 -42q116 0 116 144h156q0 -118 -69 -195.5t-203 -77.5z" />
    <glyph glyph-name="dotaccent" unicode="&#x2d9;" horiz-adv-x="262" 
d="M4 1313q0 51 38 87t89 36q54 0 90.5 -36t36.5 -87q0 -54 -36.5 -91.5t-90.5 -37.5q-51 0 -89 38t-38 91z" />
    <glyph glyph-name="ring" unicode="&#x2da;" horiz-adv-x="430" 
d="M4 1401q0 91 61.5 151t149.5 60t149.5 -60t61.5 -151q0 -89 -61.5 -148t-149.5 -59q-90 0 -150.5 56t-60.5 151zM106 1401q0 -53 30.5 -84t78.5 -31q45 0 77 31.5t32 83.5q0 54 -32 85.5t-77 31.5q-49 0 -79 -30.5t-30 -86.5z" />
    <glyph glyph-name="ogonek" unicode="&#x2db;" horiz-adv-x="430" 
d="M172 -25q51 13 70 25h96q3 -29 -25.5 -56t-57.5 -40.5t-54 -20.5q-51 -18 -68.5 -34t-17.5 -48q0 -38 31 -54.5t67 -16.5q94 0 121 69l96 -26q-5 -57 -59 -101.5t-154 -44.5q-105 0 -162 44t-57 126q0 76 45 113.5t129 64.5z" />
    <glyph glyph-name="tilde" unicode="&#x2dc;" horiz-adv-x="598" 
d="M442 1194q-56 0 -150.5 41t-121.5 41q-57 0 -57 -64v-18q0 -8 2 -10h-101l-6 30q-4 32 -4 56q0 73 42.5 114t111.5 41q53 0 144 -41t126 -41q59 0 59 60q0 3 -1 10t-1 10q-2 4 -2 9h103l4 -27q4 -32 4 -57q0 -72 -42 -113t-110 -41z" />
    <glyph glyph-name="hungarumlaut" unicode="&#x2dd;" horiz-adv-x="788" 
d="M455 1438l-283 -267h-168l207 267h244zM784 1438l-284 -267h-166l207 267h243z" />
    <glyph glyph-name="pi" unicode="&#x3c0;" 
d="M428 0h-164v877h-147v147h921v-147h-153v-596q0 -43 7.5 -71t17.5 -43t33 -22.5t40.5 -8.5t54.5 -1v-139l-22 -4q-14 -2 -62 -2q-60 0 -100.5 12.5t-72 45.5t-46 94t-14.5 155v580h-293v-877z" />
    <glyph glyph-name="Wgrave" unicode="&#x1e80;" horiz-adv-x="1824" 
d="M815 1434h195l233 -1016l29 -135l16 -72l19 72l32 135l263 1016h192l-403 -1434h-205l-223 928q-8 33 -20 87t-20.5 91.5t-11.5 44.5l-49 -223l-217 -928h-211l-403 1434h194l262 -1014l33 -137l17 -74l16 74q5 24 16 73t15 66zM813 1561l-285 268h260l193 -268h-168z
" />
    <glyph glyph-name="wgrave" unicode="&#x1e81;" horiz-adv-x="1527" 
d="M674 1024h180l188 -698l27 -103q7 -20 14 -53q2 19 13 51l26 107l178 696h185l-299 -1024h-207l-160 590l-57 223l-57 -221l-164 -592h-199l-299 1024h186l177 -696l36 -158l41 158zM670 1171l-285 269h260l193 -269h-168z" />
    <glyph glyph-name="Wacute" unicode="&#x1e82;" horiz-adv-x="1824" 
d="M1290 1829l-282 -268h-166l194 268h254zM815 1434h195l233 -1016l29 -135l16 -72l19 72l32 135l263 1016h192l-403 -1434h-205l-223 928q-8 33 -20 87t-20.5 91.5t-11.5 44.5l-49 -223l-217 -928h-211l-403 1434h194l262 -1014l33 -137l17 -74l16 74q5 24 16 73t15 66z
" />
    <glyph glyph-name="wacute" unicode="&#x1e83;" horiz-adv-x="1527" 
d="M1139 1438l-283 -269h-162l195 269h250zM674 1024h180l188 -698l27 -103q7 -20 14 -53q2 19 13 51l26 107l178 696h185l-299 -1024h-207l-160 590l-57 223l-57 -221l-164 -592h-199l-299 1024h186l177 -696l36 -158l41 158z" />
    <glyph glyph-name="Wdieresis" unicode="&#x1e84;" horiz-adv-x="1824" 
d="M610 1663q0 51 35.5 86t85.5 35t84.5 -35t34.5 -86q0 -49 -35 -84t-84 -35q-50 0 -85.5 35t-35.5 84zM973 1663q0 50 35.5 85.5t83.5 35.5q51 0 85.5 -35t34.5 -86q0 -50 -34.5 -84.5t-85.5 -34.5q-48 0 -83.5 35t-35.5 84zM815 1434h195l233 -1016l29 -135l16 -72l19 72
l32 135l263 1016h192l-403 -1434h-205l-223 928q-8 33 -20 87t-20.5 91.5t-11.5 44.5l-49 -223l-217 -928h-211l-403 1434h194l262 -1014l33 -137l17 -74l16 74q5 24 16 73t15 66z" />
    <glyph glyph-name="wdieresis" unicode="&#x1e85;" horiz-adv-x="1527" 
d="M461 1319q0 50 35.5 84.5t85.5 34.5t84 -34t34 -85t-34 -86t-84 -35t-85.5 35t-35.5 86zM823 1319q0 50 35.5 84.5t83.5 34.5q51 0 86 -34t35 -85t-35 -86t-86 -35q-48 0 -83.5 35.5t-35.5 85.5zM674 1024h180l188 -698l27 -103q7 -20 14 -53q2 19 13 51l26 107l178 696
h185l-299 -1024h-207l-160 590l-57 223l-57 -221l-164 -592h-199l-299 1024h186l177 -696l36 -158l41 158z" />
    <glyph glyph-name="uni1E9E" unicode="&#x1e9e;" horiz-adv-x="2256" 
d="M821 1090q0 55 -22.5 96t-59.5 63t-78 32.5t-86 10.5q-119 0 -186 -58.5t-67 -162.5q0 -29 8 -54.5t18.5 -44.5t33 -38t39 -30t50.5 -27t53.5 -23.5t61.5 -23t61 -23.5q52 -20 82.5 -32.5t78 -35.5t76 -44.5t62 -54.5t52 -68.5t31.5 -84.5t13 -106q0 -178 -122.5 -289.5
t-348.5 -111.5q-222 0 -347.5 94.5t-125.5 265.5q0 42 13 92l12 37h178q-7 -10 -10 -27q-8 -24 -8 -80q0 -109 74.5 -165t215.5 -56q80 0 137.5 19.5t88.5 54.5t45 76t14 90q0 33 -9.5 62.5t-22.5 51t-39 42t-47 34t-58.5 29.5t-61.5 25t-67 24q-7 3 -22 8
q-38 14 -57.5 21.5t-56 22t-56.5 25.5t-50.5 28.5t-48.5 34t-41 39.5t-35.5 47.5t-25 54.5t-18 65.5t-5.5 75.5q0 169 120.5 276t315.5 107q192 0 310 -92t118 -250q0 -44 -12 -90l-10 -37h-176l8 29q10 30 10 76zM1952 1090q0 55 -22.5 96t-59.5 63t-78 32.5t-86 10.5
q-119 0 -186.5 -58.5t-67.5 -162.5q0 -29 8 -54.5t18.5 -44.5t33 -37.5t39.5 -30t51 -27t53.5 -23.5t61 -23.5t61.5 -23.5q52 -20 82.5 -32.5t78 -35.5t76 -44.5t62 -54.5t52 -68.5t31.5 -84.5t13 -106q0 -178 -122.5 -289.5t-348.5 -111.5q-222 0 -347.5 94.5t-125.5 265.5
q0 46 12 92l12 37h179q-8 -12 -11 -27q-8 -24 -8 -80q0 -109 75 -165t216 -56q80 0 137.5 19.5t88.5 54.5t45 76t14 90q0 33 -9.5 62.5t-23 51t-39 42t-46.5 34t-59 29.5t-61.5 25t-67.5 24q-156 57 -215 89q-153 85 -188 229q-12 48 -12 104q0 169 120.5 276t315.5 107
q192 0 310 -92t118 -250q0 -44 -12 -90l-11 -37h-176l9 29q10 30 10 76z" />
    <glyph glyph-name="Ygrave" unicode="&#x1ef2;" horiz-adv-x="1095" 
d="M457 571l-453 863h205l338 -686l340 686h205l-453 -863v-571h-182v571zM489 1561l-284 268h260l192 -268h-168z" />
    <glyph glyph-name="ygrave" unicode="&#x1ef3;" horiz-adv-x="923" 
d="M518 414l197 610h178l-352 -1008q-62 -181 -145 -276.5t-206 -95.5q-51 0 -84 10l-28 12v148q14 -10 20 -11q27 -10 64 -10q77 0 122 47t83 156l18 55l-352 973h188l199 -610q39 -140 49 -150q0 5 8.5 30t21 61.5t19.5 58.5zM410 1171l-285 269h260l193 -269h-168z" />
    <glyph glyph-name="endash" unicode="&#x2013;" horiz-adv-x="1034" 
d="M104 535v151h826v-151h-826z" />
    <glyph glyph-name="emdash" unicode="&#x2014;" horiz-adv-x="1546" 
d="M104 535v151h1338v-151h-1338z" />
    <glyph glyph-name="quoteleft" unicode="&#x2018;" horiz-adv-x="411" 
d="M190 1434h148l-105 -508h-147z" />
    <glyph glyph-name="quoteright" unicode="&#x2019;" horiz-adv-x="411" 
d="M190 1434h148l-105 -508h-147z" />
    <glyph glyph-name="quotesinglbase" unicode="&#x201a;" horiz-adv-x="413" 
d="M160 213h149l-104 -508h-150z" />
    <glyph glyph-name="quotedblleft" unicode="&#x201c;" horiz-adv-x="696" 
d="M190 1434h150l-104 -508h-150zM473 1434h150l-105 -508h-149z" />
    <glyph glyph-name="quotedblright" unicode="&#x201d;" horiz-adv-x="696" 
d="M190 1434h150l-104 -508h-150zM473 1434h150l-105 -508h-149z" />
    <glyph glyph-name="quotedblbase" unicode="&#x201e;" horiz-adv-x="696" 
d="M160 213h149l-104 -508h-150zM442 213h150l-105 -508h-149z" />
    <glyph glyph-name="dagger" unicode="&#x2020;" 
d="M973 852h-320v-852h-151v852h-324v141h324v398h151v-398h320v-141z" />
    <glyph glyph-name="daggerdbl" unicode="&#x2021;" 
d="M973 440h-320v-440h-151v440h-324v140h324v331h-324v142h324v338h151v-338h320v-142h-320v-331h320v-140z" />
    <glyph glyph-name="bullet" unicode="&#x2022;" horiz-adv-x="772" 
d="M158 578q0 95 67 161t160 66q94 0 161.5 -66t67.5 -161q0 -96 -67 -162t-162 -66q-93 0 -160 66t-67 162z" />
    <glyph glyph-name="ellipsis" unicode="&#x2026;" horiz-adv-x="1458" 
d="M145 119q0 55 36 90t91 35t91 -35t36 -90t-36.5 -92t-90.5 -37t-90.5 37t-36.5 92zM602 119q0 55 36 90t91 35t91 -35t36 -90t-36.5 -92t-90.5 -37t-90.5 37t-36.5 92zM1061 119q0 55 36 90t91 35t91 -35t36 -90t-36.5 -92t-90.5 -37t-90.5 37t-36.5 92z" />
    <glyph glyph-name="perthousand" unicode="&#x2030;" horiz-adv-x="2129" 
d="M367 1413q61 0 106.5 -21t74.5 -56.5t47 -90t25 -114.5t7 -136t-6.5 -134.5t-23.5 -113t-45.5 -90t-75 -56.5t-109.5 -21t-110 21t-75.5 56.5t-46 90t-23.5 113t-6 134.5q0 95 12 166.5t40.5 130.5t81 90t127.5 31zM367 1290q-34 0 -58 -15.5t-38 -40.5t-22 -65.5
t-10.5 -81.5t-2.5 -98q0 -68 5.5 -116.5t19 -89t40 -61t66.5 -20.5q41 0 68 19.5t41 60.5t19 89t5 118q0 72 -4.5 120.5t-18 93t-41 66t-69.5 21.5zM1010 1466l69 -18l-567 -1501l-72 14zM1141 813q61 0 106.5 -21t74.5 -56.5t47 -90t25 -114.5t7 -136t-6.5 -134.5
t-23.5 -113t-45.5 -90t-75 -56.5t-109.5 -21t-110 21t-75.5 56.5t-45.5 90t-23 113t-6 134.5q0 95 12 166.5t40 130.5t80.5 90t127.5 31zM1141 690q-34 0 -58 -15.5t-38 -40.5t-22 -65.5t-10.5 -81.5t-2.5 -98q0 -68 5.5 -116.5t19 -89t40 -61t66.5 -20.5q41 0 68 19.5
t41 60.5t19 89t5 118q0 72 -4.5 120.5t-18 93t-41 66t-69.5 21.5zM1763 813q61 0 106.5 -21t74.5 -56.5t47 -90t25 -114.5t7 -136t-6.5 -134.5t-23.5 -113t-45.5 -90t-75 -56.5t-109.5 -21t-110 21t-75.5 56.5t-45.5 90t-23 113t-6 134.5q0 95 12 166.5t40 130.5t80.5 90
t127.5 31zM1763 690q-34 0 -58 -15.5t-38 -40.5t-22 -65.5t-10.5 -81.5t-2.5 -98q0 -68 5.5 -116.5t19 -89t40 -61t66.5 -20.5q41 0 68 19.5t41 60.5t19 89t5 118q0 72 -4.5 120.5t-18 93t-41 66t-69.5 21.5z" />
    <glyph glyph-name="guilsinglleft" unicode="&#x2039;" horiz-adv-x="686" 
d="M410 121l-322 411l322 412h178l-322 -412l322 -411h-178z" />
    <glyph glyph-name="guilsinglright" unicode="&#x203a;" horiz-adv-x="686" 
d="M600 532l-321 -411h-181l322 411l-322 412h181z" />
    <glyph glyph-name="fraction" unicode="&#x2044;" horiz-adv-x="337" 
d="M420 1473l69 -21l-567 -1501l-72 16z" />
    <glyph glyph-name="zero.superior" unicode="&#x2070;" horiz-adv-x="733" 
d="M367 760q-156 0 -221.5 107t-65.5 311q0 72 7 132t26 119.5t50 100t83 65.5t121 25q58 0 103.5 -17t76.5 -48.5t52 -71.5t32.5 -92t16.5 -102.5t5 -110.5q0 -204 -65 -311t-221 -107zM367 1491q-44 0 -73.5 -26t-43.5 -73.5t-19.5 -95.5t-5.5 -110q0 -155 30.5 -226
t111.5 -71t112 70.5t31 226.5q0 62 -5.5 110t-19.5 95.5t-44 73.5t-74 26z" />
    <glyph glyph-name="four.superior" unicode="&#x2074;" horiz-adv-x="681" 
d="M342 1608h193v-510h94v-125h-94v-201h-140v201h-346v119zM188 1098h207v370z" />
    <glyph glyph-name="five.superior" unicode="&#x2075;" horiz-adv-x="647" 
d="M309 887q133 0 133 151q0 158 -137 158q-33 0 -69 -16l-29 -15l-103 92l43 351h398v-127h-279l-22 -176l22 6q19 8 62 8q114 0 185 -72.5t71 -208.5q0 -133 -74 -205.5t-199 -72.5q-114 0 -184 53.5t-70 144.5q0 31 9 52l10 20h129l-6 -16q-6 -15 -6 -41q0 -42 31.5 -64
t84.5 -22z" />
    <glyph glyph-name="six.superior" unicode="&#x2076;" horiz-adv-x="675" 
d="M356 1198q-69 0 -100 -49.5t-31 -120.5q0 -62 31.5 -100.5t99.5 -38.5q117 0 117 139q0 72 -27 121t-90 49zM457 1421q0 31 -25.5 51.5t-66.5 20.5q-68 0 -101.5 -58.5t-38.5 -181.5q16 16 37 31q52 33 111 33q119 0 180 -81.5t61 -205.5q0 -126 -67 -198t-195 -72
q-126 0 -198 73.5t-72 231.5q0 299 64 427t225 128q96 0 157.5 -51t61.5 -129q0 -24 -8 -43l-7 -17h-124q0 7 2 13q4 16 4 28z" />
    <glyph glyph-name="seven.superior" unicode="&#x2077;" horiz-adv-x="565" 
d="M301 772h-158q3 408 248 703h-366v133h518v-121q-136 -164 -189 -325t-53 -390z" />
    <glyph glyph-name="eight.superior" unicode="&#x2078;" horiz-adv-x="712" 
d="M356 889q62 0 102 33.5t40 93.5q0 123 -142 151q-141 -28 -141 -151q0 -60 39.5 -93.5t101.5 -33.5zM356 1282q51 11 81 41t30 76q0 42 -31.5 67t-79.5 25t-79 -25t-31 -67q0 -90 110 -117zM356 760q-122 0 -202 64t-80 184q0 88 42 142t105 77q-117 64 -117 180
q0 87 66 150t186 63t186 -63t66 -150q0 -117 -116 -180q63 -23 105 -77t42 -142q0 -119 -80 -183.5t-203 -64.5z" />
    <glyph glyph-name="nine.superior" unicode="&#x2079;" horiz-adv-x="677" 
d="M324 1184q131 0 131 162q0 64 -31 104.5t-94 40.5q-65 0 -96 -42t-31 -110q0 -73 31 -114t90 -41zM596 1247q0 -118 -12.5 -204.5t-34.5 -140.5t-57.5 -86t-75.5 -44t-94 -12q-110 0 -169 50t-59 122q0 31 6 49l6 20h132q-2 -1 -5 -12q-4 -20 -4 -31q0 -35 27 -52t68 -17
q70 0 101 55.5t36 177.5q-61 -61 -146 -61q-125 0 -188.5 73t-63.5 199q0 125 67.5 206t195.5 81q137 0 203.5 -88t66.5 -285z" />
    <glyph glyph-name="zero.inferior" unicode="&#x2080;" horiz-adv-x="733" 
d="M367 -315q-156 0 -221.5 107t-65.5 310q0 73 7 132.5t26 119t50 100t83 66t121 25.5t121 -25.5t83 -66t50 -100t25.5 -119t6.5 -132.5q0 -204 -65 -310.5t-221 -106.5zM367 416q-44 0 -73.5 -26t-43.5 -73.5t-19.5 -95.5t-5.5 -110q0 -155 30.5 -226t111.5 -71t112 70.5
t31 226.5q0 62 -5.5 110t-19.5 95.5t-44 73.5t-74 26z" />
    <glyph glyph-name="one.inferior" unicode="&#x2081;" horiz-adv-x="622" 
d="M74 -303v125h188v485h-190v103q106 0 155.5 26t61.5 96h117v-710h174v-125h-506z" />
    <glyph glyph-name="two.inferior" unicode="&#x2082;" horiz-adv-x="647" 
d="M410 -16l-160 -162h342v-125h-522v121l209 213q85 87 119 141.5t34 122.5q0 59 -31.5 90t-81.5 31t-77 -22t-27 -58q0 -21 2 -25l4 -12h-129l-6 18q-6 15 -6 43q0 78 65 131.5t172 53.5q119 0 190 -63t71 -177q0 -153 -168 -321z" />
    <glyph glyph-name="three.inferior" unicode="&#x2083;" horiz-adv-x="649" 
d="M104 406v126h449v-120l-197 -207q100 0 166 -63.5t66 -190.5t-70 -196.5t-194 -69.5q-107 0 -178.5 52t-71.5 146q0 32 8 51l8 21h131l-6 -16q-4 -28 -4 -41q0 -42 31 -64t86 -22q58 0 89.5 36t31.5 107q0 75 -34.5 110t-90.5 35q-33 0 -52 -8l-20 -6l-76 90l211 230
h-283z" />
    <glyph glyph-name="four.inferior" unicode="&#x2084;" horiz-adv-x="681" 
d="M342 532h193v-509h94v-125h-94v-201h-140v201h-346v118zM188 23h207v370z" />
    <glyph glyph-name="five.inferior" unicode="&#x2085;" horiz-adv-x="647" 
d="M309 -188q133 0 133 151q0 158 -137 158q-31 0 -69 -17l-29 -14l-103 92l43 350h398v-126h-279l-22 -177l22 7q19 8 62 8q114 0 185 -72.5t71 -208.5q0 -133 -74 -205.5t-199 -72.5q-114 0 -184 53.5t-70 144.5q0 30 9 51l10 21h129l-6 -16q-6 -15 -6 -41q0 -42 31.5 -64
t84.5 -22z" />
    <glyph glyph-name="six.inferior" unicode="&#x2086;" horiz-adv-x="675" 
d="M356 123q-69 0 -100 -49.5t-31 -120.5q0 -62 31.5 -100.5t99.5 -38.5q117 0 117 139q0 72 -27 121t-90 49zM457 346q0 31 -25.5 51.5t-66.5 20.5q-68 0 -101.5 -58.5t-38.5 -181.5q16 16 37 31q52 33 111 33q119 0 180 -81.5t61 -205.5q0 -126 -67 -198t-195 -72
q-126 0 -198 73.5t-72 231.5q0 299 64 427t225 128q96 0 157.5 -51t61.5 -129q0 -24 -8 -43l-7 -17h-124q0 6 2 12q4 16 4 29z" />
    <glyph glyph-name="seven.inferior" unicode="&#x2087;" horiz-adv-x="565" 
d="M301 -303h-158q3 407 248 702h-366v133h518v-120q-136 -164 -189 -325t-53 -390z" />
    <glyph glyph-name="eight.inferior" unicode="&#x2088;" horiz-adv-x="712" 
d="M356 -186q62 0 102 33.5t40 93.5q0 123 -142 151q-141 -28 -141 -151q0 -60 39.5 -93.5t101.5 -33.5zM356 207q51 11 81 41t30 76q0 42 -31.5 67t-79.5 25t-79 -25t-31 -67q0 -90 110 -117zM356 -315q-123 0 -202.5 63.5t-79.5 183.5q0 88 42.5 142.5t104.5 77.5
q-117 64 -117 180q0 87 66 150t186 63t186 -63t66 -150q0 -117 -116 -180q62 -23 104.5 -77.5t42.5 -142.5q0 -119 -80 -183t-203 -64z" />
    <glyph glyph-name="nine.inferior" unicode="&#x2089;" horiz-adv-x="677" 
d="M324 109q131 0 131 161q0 64 -31 105t-94 41q-65 0 -96 -42t-31 -110q0 -73 31 -114t90 -41zM596 172q0 -118 -12.5 -204.5t-34.5 -140.5t-57.5 -86t-75.5 -44t-94 -12q-110 0 -169 50t-59 122q0 31 6 49l6 20h132q-2 -2 -5 -12q-4 -20 -4 -31q0 -35 27 -52t68 -17
q70 0 101 55.5t36 177.5q-61 -61 -146 -61q-125 0 -188.5 73t-63.5 199q0 125 67.5 206t195.5 81q137 0 203.5 -88t66.5 -285z" />
    <glyph glyph-name="Euro" unicode="&#x20ac;" horiz-adv-x="1261" 
d="M96 506v117h164v59q0 79 4 102h-168v117h183q19 108 58.5 197.5t102 161.5t155 112.5t206.5 40.5q169 0 263.5 -81t94.5 -214q0 -50 -8 -71q-1 -2 -8 -25h-164l4 20q6 42 6 54q0 67 -45 112t-149 45q-74 0 -134 -28t-100 -78t-65.5 -111t-38.5 -135h420v-117h-437
q-2 -33 -2 -96v-65h439v-117h-428q44 -367 331 -367q110 0 163.5 50t53.5 133q0 42 -8 63l-6 25h164q1 -3 2.5 -8.5t3 -11.5t2.5 -11q10 -38 10 -80q0 -64 -22.5 -119.5t-67.5 -101t-121 -72t-174 -26.5q-456 0 -512 526h-172z" />
    <glyph glyph-name="trademark" unicode="&#x2122;" horiz-adv-x="1112" 
d="M823 838h-121l-116 497v-497h-92v596h161l107 -500l119 500h147v-596h-92v497zM307 838h-94v514h-147v82h383v-82h-142v-514z" />
    <glyph glyph-name="onethird" unicode="&#x2153;" horiz-adv-x="1609" 
d="M74 565v125h188v486h-190v102q106 0 155.5 26.5t61.5 96.5h117v-711h174v-125h-506zM1040 1473l70 -21l-567 -1501l-72 16zM1053 709v127h448v-121l-196 -207q100 0 165.5 -63.5t65.5 -190.5t-70 -196.5t-194 -69.5q-107 0 -178.5 52t-71.5 146q0 33 8 52l8 20h131
l-6 -16q-4 -28 -4 -41q0 -42 31 -64t86 -22q58 0 89.5 36t31.5 107q0 75 -34.5 110t-90.5 35q-32 0 -51 -8l-21 -6l-76 90l211 230h-282z" />
    <glyph glyph-name="twothirds" unicode="&#x2154;" horiz-adv-x="1632" 
d="M410 852l-160 -162h342v-125h-522v121l209 213q85 87 119 141.5t34 122.5q0 59 -31.5 90t-81.5 31t-77 -22t-27 -58q0 -20 2 -24l4 -13h-129l-6 19q-6 15 -6 43q0 78 65 131t172 53q119 0 190 -62.5t71 -176.5q0 -154 -168 -322zM1065 1473l70 -21l-568 -1501l-71 16z
M1063 709v127h448v-121l-196 -207q100 0 165.5 -63.5t65.5 -190.5t-70 -196.5t-194 -69.5q-107 0 -178.5 52t-71.5 146q0 33 8 52l9 20h131l-6 -16q-5 -35 -5 -41q0 -42 31 -64t86 -22q58 0 89.5 36t31.5 107q0 75 -34.5 110t-90.5 35q-32 0 -51 -8l-21 -6l-75 90l211 230
h-283z" />
    <glyph glyph-name="onefifth" unicode="&#x2155;" horiz-adv-x="1605" 
d="M1040 1473l70 -21l-567 -1501l-72 16zM74 565v125h188v486h-190v102q106 0 155.5 26.5t61.5 96.5h117v-711h174v-125h-506zM1217 115q133 0 133 151q0 158 -138 158q-33 0 -69 -16l-29 -15l-102 92l43 351h397v-127h-278l-23 -177l23 7q19 8 61 8q114 0 185 -72.5
t71 -208.5q0 -133 -73.5 -205.5t-198.5 -72.5q-114 0 -184 53.5t-70 144.5q0 33 8 52l10 20h129l-6 -16q-6 -15 -6 -41q0 -42 32 -64t85 -22z" />
    <glyph glyph-name="twofifths" unicode="&#x2156;" horiz-adv-x="1630" 
d="M410 852l-160 -162h342v-125h-522v121l209 213q85 87 119 141.5t34 122.5q0 59 -31.5 90t-81.5 31t-77 -22t-27 -58q0 -20 2 -24l4 -13h-129l-6 19q-6 15 -6 43q0 78 65 131t172 53q119 0 190 -62.5t71 -176.5q0 -154 -168 -322zM1065 1473l70 -21l-568 -1501l-71 16z
M1245 115q133 0 133 151q0 158 -137 158q-34 0 -70 -16l-28 -15l-103 92l43 351h398v-127h-279l-22 -177l22 7q19 8 62 8q114 0 185 -72.5t71 -208.5q0 -133 -74 -205.5t-199 -72.5q-114 0 -184 53.5t-70 144.5q0 33 8 52l11 20h129l-6 -16q-7 -18 -7 -41q0 -42 32 -64
t85 -22z" />
    <glyph glyph-name="threefifths" unicode="&#x2157;" horiz-adv-x="1632" 
d="M1067 1473l70 -21l-568 -1501l-71 16zM1249 115q133 0 133 151q0 158 -137 158q-33 0 -69 -16l-29 -15l-103 92l43 351h398v-127h-279l-22 -177l22 7q19 8 62 8q114 0 185 -72.5t71 -208.5q0 -133 -74 -205.5t-199 -72.5q-114 0 -184 53.5t-70 144.5q0 31 9 52l10 20h129
l-6 -16q-6 -15 -6 -41q0 -42 31.5 -64t84.5 -22zM121 1274v127h448v-121l-196 -207q100 0 165.5 -63.5t65.5 -190.5t-70 -196.5t-194 -69.5q-107 0 -178.5 52.5t-71.5 146.5q0 32 8 51l8 20h132l-7 -16q-4 -28 -4 -41q0 -42 31 -64t86 -22q58 0 89.5 36t31.5 107
q0 75 -35 110.5t-90 35.5q-32 0 -51 -8l-21 -7l-75 90l210 230h-282z" />
    <glyph glyph-name="fourfifths" unicode="&#x2158;" horiz-adv-x="1665" 
d="M350 1401h193v-510h94v-125h-94v-201h-140v201h-346v119zM197 891h206v371zM1102 1473l69 -21l-567 -1501l-72 16zM1284 115q133 0 133 151q0 158 -137 158q-34 0 -70 -16l-28 -15l-103 92l43 351h398v-127h-279l-22 -177l22 7q19 8 62 8q114 0 185 -72.5t71 -208.5
q0 -133 -74 -205.5t-199 -72.5q-114 0 -184 53.5t-70 144.5q0 33 8 52l11 20h129l-6 -16q-7 -18 -7 -41q0 -42 32 -64t85 -22z" />
    <glyph glyph-name="onesixth" unicode="&#x2159;" horiz-adv-x="1636" 
d="M1251 426q-69 0 -100 -49.5t-31 -120.5q0 -62 31.5 -100.5t99.5 -38.5q117 0 117 139q0 72 -27 121t-90 49zM1352 649q0 31 -25.5 51.5t-66.5 20.5q-68 0 -101.5 -58.5t-38.5 -181.5q16 16 37 31q52 33 111 33q119 0 180 -81.5t61 -205.5q0 -126 -67 -198t-195 -72
q-126 0 -198 73.5t-72 231.5q0 299 64 427t225 128q96 0 157.5 -51t61.5 -129q0 -24 -8 -43l-7 -17h-124q0 7 2 13q4 16 4 28zM74 565v125h188v486h-190v102q106 0 155.5 26.5t61.5 96.5h117v-711h174v-125h-506zM1040 1473l70 -21l-567 -1501l-72 16z" />
    <glyph glyph-name="fivesixths" unicode="&#x215a;" horiz-adv-x="1660" 
d="M1272 426q-69 0 -100 -49.5t-31 -120.5q0 -62 31.5 -100.5t99.5 -38.5q117 0 117 139q0 72 -27 121t-90 49zM1372 649q0 31 -25.5 51.5t-66.5 20.5q-68 0 -101 -58.5t-38 -181.5q16 16 37 31q52 33 110 33q119 0 180.5 -81.5t61.5 -205.5q0 -126 -67 -198t-195 -72
q-126 0 -198.5 73.5t-72.5 231.5q0 299 64 427t225 128q96 0 157.5 -51t61.5 -129q0 -24 -8 -43l-6 -17h-125q0 7 2 13q4 16 4 28zM319 680q134 0 134 151q0 158 -138 158q-33 0 -69 -16l-29 -15l-102 93l43 350h397v-127h-279l-22 -176l22 6q19 8 62 8q114 0 185 -72.5
t71 -208.5q0 -133 -73.5 -205.5t-198.5 -72.5q-114 0 -184 54t-70 145q0 32 8 51l10 20h129l-6 -16q-6 -15 -6 -41q0 -42 31.5 -64t84.5 -22zM1065 1473l70 -21l-568 -1501l-71 16z" />
    <glyph glyph-name="oneeighth" unicode="&#x215b;" horiz-adv-x="1671" 
d="M1040 1473l70 -21l-567 -1501l-72 16zM74 565v125h188v486h-190v102q106 0 155.5 26.5t61.5 96.5h117v-711h174v-125h-506zM1266 117q62 0 101.5 33.5t39.5 93.5q0 123 -141 151q-142 -28 -142 -151q0 -60 40 -93.5t102 -33.5zM1266 510q51 11 80.5 41t29.5 76
q0 42 -31 67t-79 25t-79.5 -25t-31.5 -67q0 -90 111 -117zM1266 -12q-123 0 -203 64t-80 184q0 88 42 142t105 77q-116 63 -116 180q0 87 66 150t186 63t186 -63t66 -150q0 -116 -117 -180q63 -23 105 -77t42 -142q0 -120 -79.5 -184t-202.5 -64z" />
    <glyph glyph-name="threeeighths" unicode="&#x215c;" horiz-adv-x="1697" 
d="M1067 1473l70 -21l-568 -1501l-71 16zM1290 117q62 0 102 33.5t40 93.5q0 123 -142 151q-141 -28 -141 -151q0 -60 39.5 -93.5t101.5 -33.5zM1290 510q51 11 81 41t30 76q0 42 -31.5 67t-79.5 25t-79 -25t-31 -67q0 -90 110 -117zM1290 -12q-122 0 -202 64t-80 184
q0 88 42 142t105 77q-117 64 -117 180q0 87 66 150t186 63t186 -63t66 -150q0 -116 -117 -180q63 -24 105.5 -78t42.5 -141q0 -119 -80 -183.5t-203 -64.5zM119 1274v127h448v-121l-196 -207q100 0 165.5 -63.5t65.5 -190.5t-70 -196.5t-194 -69.5q-107 0 -178.5 52.5
t-71.5 146.5q0 32 8 51l8 20h132l-7 -16q-4 -28 -4 -41q0 -42 31 -64t86 -22q58 0 89.5 36t31.5 107q0 75 -35 110.5t-90 35.5q-32 0 -51 -8l-21 -7l-76 90l211 230h-282z" />
    <glyph glyph-name="fiveeighths" unicode="&#x215d;" horiz-adv-x="1695" 
d="M324 680q133 0 133 151q0 158 -138 158q-33 0 -69 -16l-29 -15l-102 93l43 350h397v-127h-278l-23 -176l23 6q19 8 61 8q114 0 185 -72.5t71 -208.5q0 -133 -73.5 -205.5t-198.5 -72.5q-114 0 -184 54t-70 145q0 32 8 51l10 20h129l-6 -16q-6 -15 -6 -41q0 -42 32 -64
t85 -22zM1065 1473l70 -21l-568 -1501l-71 16zM1278 117q62 0 101.5 33.5t39.5 93.5q0 123 -141 151q-141 -28 -141 -151q0 -60 39.5 -93.5t101.5 -33.5zM1278 510q51 11 81 41t30 76q0 42 -31.5 67t-79.5 25t-79.5 -25t-31.5 -67q0 -90 111 -117zM1278 -12q-123 0 -203 64
t-80 184q0 87 42.5 141t105.5 78q-117 64 -117 180q0 87 66 150t186 63t186 -63t66 -150q0 -116 -117 -180q63 -24 105.5 -78t42.5 -141q0 -119 -80 -183.5t-203 -64.5z" />
    <glyph glyph-name="seveneighths" unicode="&#x215e;" horiz-adv-x="1613" 
d="M373 565h-158q3 408 248 703h-367v133h518v-121q-135 -164 -188 -325t-53 -390zM983 1473l70 -21l-568 -1501l-71 16zM1204 117q62 0 102 33.5t40 93.5q0 123 -142 151q-141 -28 -141 -151q0 -60 39.5 -93.5t101.5 -33.5zM1204 510q51 11 81 41t30 76q0 42 -31.5 67
t-79.5 25t-79 -25t-31 -67q0 -90 110 -117zM1204 -12q-122 0 -202 64t-80 184q0 88 42 142t105 77q-117 64 -117 180q0 87 66 150t186 63t186 -63t66 -150q0 -116 -117 -180q63 -24 105.5 -78t42.5 -141q0 -119 -80 -183.5t-203 -64.5z" />
    <glyph glyph-name="onefraction" unicode="&#x215f;" horiz-adv-x="960" 
d="M74 565v125h188v486h-190v102q106 0 155.5 26.5t61.5 96.5h117v-711h174v-125h-506zM1040 1473l70 -21l-567 -1501l-72 16z" />
    <glyph glyph-name="minus" unicode="&#x2212;" 
d="M133 463v147h887v-147h-887z" />
    <glyph glyph-name="uni2215" unicode="&#x2215;" horiz-adv-x="718" 
d="M631 1483l57 -21l-567 -1501l-60 16z" />
    <glyph glyph-name="uni2219" unicode="&#x2219;" horiz-adv-x="585" 
d="M168 575q0 50 37.5 85.5t87.5 35.5q53 0 88 -35t35 -86q0 -54 -34.5 -89t-88.5 -35q-51 0 -88 35.5t-37 88.5z" />
    <glyph glyph-name="radical" unicode="&#x221a;" 
d="M174 1024l221 -819l346 1268h377v-148h-254l-372 -1325h-191l-293 1024h166z" />
    <glyph glyph-name="integral" unicode="&#x222b;" horiz-adv-x="784" 
d="M250 -72v1114q0 371 291 371q61 0 112 -20t86 -67t35 -114q0 -15 -2 -30t-5 -29.5t-3 -17.5h-137q4 28 4 45q0 84 -88 84q-32 0 -55.5 -12t-37 -31t-21.5 -49t-10.5 -60t-2.5 -70v-1138q0 -44 -4.5 -82.5t-21 -87.5t-44.5 -83t-79.5 -57.5t-121.5 -23.5q-99 0 -171 53
t-72 150q0 21 4 49l6 24h137q-2 -4 -2 -12q-2 -6 -2 -27q0 -42 25 -65t67 -23q26 0 46 8t32 25t19.5 34.5t10.5 45t4 47t1 49.5z" />
    <glyph glyph-name="approxequal" unicode="&#x2248;" 
d="M381 870q53 0 101.5 -19t85 -46t70 -54t69.5 -46t69 -19q74 0 74 82q0 35 -12 63h145l6 -24q8 -19 8 -55q0 -98 -62.5 -153.5t-164.5 -55.5q-59 0 -119.5 28.5t-102 62.5t-88 62.5t-79.5 28.5q-36 0 -58 -19.5t-22 -54.5q0 -48 10 -71h-141l-8 24q-8 19 -8 55
q0 98 62 154.5t165 56.5zM381 492q53 0 101.5 -19t85 -46t70 -54.5t69.5 -46.5t69 -19q35 0 54.5 21t19.5 59q0 44 -12 64h145l6 -25q8 -19 8 -55q0 -97 -62.5 -152t-164.5 -55q-59 0 -119.5 28.5t-102 62.5t-88 62.5t-79.5 28.5q-36 0 -58 -20t-22 -56q0 -46 10 -69h-141
l-8 24q-8 19 -8 56q0 98 62 154.5t165 56.5z" />
    <glyph glyph-name="notequal" unicode="&#x2260;" 
d="M133 639v149h447l86 224h153l-86 -224h287v-149h-342l-80 -209h422v-147h-477l-86 -226h-154l86 226h-256v147h311l80 209h-391z" />
    <glyph glyph-name="lessequal" unicode="&#x2264;" 
d="M133 555v147l887 304v-160l-680 -217l680 -217v-160zM1020 147v-147h-887v147h887z" />
    <glyph glyph-name="greaterequal" unicode="&#x2265;" 
d="M1020 702v-147l-887 -303v160l680 217l-680 217v160zM133 0v147h887v-147h-887z" />
    <glyph glyph-name="lozenge" unicode="&#x25ca;" 
d="M627 -18h-103l-338 733l338 733h103l336 -733zM807 715l-232 514l-231 -514l231 -512z" />
    <glyph glyph-name="Dotaccent" unicode="&#xefed;" horiz-adv-x="385" 
d="M66 1681q0 51 36.5 87t90.5 36q53 0 88.5 -35.5t35.5 -87.5q0 -55 -35 -92t-89 -37t-90.5 37.5t-36.5 91.5z" />
    <glyph glyph-name="Breve" unicode="&#xefee;" horiz-adv-x="473" 
d="M238 1548q-138 0 -206.5 71t-68.5 198h154q0 -59 28.5 -99.5t92.5 -40.5t93 39.5t29 100.5h156q0 -118 -70 -193.5t-208 -75.5z" />
    <glyph glyph-name="Ogonek" unicode="&#xeff1;" horiz-adv-x="430" 
d="M242 0h96q3 -29 -25.5 -56t-57.5 -40.5t-54 -20.5q-48 -17 -67 -38t-19 -54q0 -38 29 -56t69 -18q94 0 121 70l96 -27q-11 -62 -68.5 -102.5t-146.5 -40.5q-105 0 -161 45t-56 125q0 75 42.5 116.5t121.5 61.5q48 12 80 35z" />
    <glyph glyph-name="Cedilla" unicode="&#xeff2;" horiz-adv-x="444" 
d="M152 -156v90l28 9q24 8 72 8q199 0 199 -154q0 -84 -57.5 -136t-174.5 -52q-197 0 -227 149l110 27q19 -78 127 -78q43 0 74 17.5t31 60.5q0 72 -103 72q-10 0 -59 -7z" />
    <glyph glyph-name="Ring" unicode="&#xeff3;" horiz-adv-x="430" 
d="M4 1741q0 91 61.5 151t149.5 60t149.5 -60t61.5 -151q0 -89 -61.5 -148t-149.5 -59q-90 0 -150.5 56t-60.5 151zM106 1741q0 -53 30.5 -84t78.5 -31q45 0 77 31.5t32 83.5q0 54 -32 85.5t-77 31.5q-49 0 -79 -30.5t-30 -86.5z" />
    <glyph glyph-name="Tilde" unicode="&#xeff5;" horiz-adv-x="598" 
d="M442 1573q-56 0 -150.5 41t-121.5 41q-57 0 -57 -62v-18q0 -8 2 -10h-101l-6 30q-4 32 -4 56q0 72 42.5 113.5t111.5 41.5q53 0 144 -42t126 -42q59 0 59 60q0 3 -1 10t-1 10q-2 4 -2 10h103l4 -26q4 -32 4 -57q0 -73 -42 -114.5t-110 -41.5z" />
    <glyph glyph-name="Circumflex" unicode="&#xeff7;" horiz-adv-x="614" 
d="M416 1825l194 -269h-141l-164 144l-162 -144h-139l199 269h213z" />
    <glyph glyph-name="one.superior" unicode="&#xf06d;" horiz-adv-x="622" 
d="M74 772v125h188v485h-190v103q106 0 155.5 26.5t61.5 96.5h117v-711h174v-125h-506z" />
    <glyph glyph-name="two.superior" unicode="&#xf06e;" horiz-adv-x="647" 
d="M410 1059l-160 -162h342v-125h-522v121l209 213q85 87 119 141.5t34 122.5q0 59 -31.5 90t-81.5 31t-77 -22t-27 -58q0 -21 2 -25l4 -12h-129l-6 19q-6 15 -6 43q0 78 65 131t172 53q119 0 190 -63t71 -177q0 -153 -168 -321z" />
    <glyph glyph-name="three.superior" unicode="&#xf06f;" horiz-adv-x="649" 
d="M104 1481v127h449v-121l-197 -207q100 0 166 -63.5t66 -190.5t-70 -196.5t-194 -69.5q-107 0 -178.5 52t-71.5 146q0 33 8 52l8 20h131l-6 -16q-4 -28 -4 -41q0 -42 31 -64t86 -22q58 0 89.5 36t31.5 107q0 75 -35 110.5t-90 35.5q-31 0 -52 -9l-20 -6l-76 90l211 230
h-283z" />
    <glyph glyph-name="Mcircumflex" unicode="&#xf116;" horiz-adv-x="1722" 
d="M969 1825l194 -269h-141l-164 144l-162 -144h-139l199 269h213zM948 10h-176l-430 1258q0 -55 2 -86q4 -102 4 -183v-999h-176v1434h295l393 -1198l406 1198h284v-1434h-176v997q0 142 2 191l4 80z" />
    <glyph glyph-name="mcircumflex" unicode="&#xf117;" horiz-adv-x="1622" 
d="M918 1434l194 -269h-141l-164 144l-162 -144h-139l199 269h213zM313 901h4q19 33 62 72q87 71 199 71q117 0 200 -83q40 -40 60 -84q25 43 69 84q95 83 219 83q351 0 351 -444v-600h-168v580q0 163 -49 233t-150 70q-105 0 -159 -72.5t-54 -230.5v-580h-168v582
q0 160 -49.5 230.5t-149.5 70.5q-99 0 -157 -75t-58 -228v-580h-165v1024h163v-123z" />
    <glyph glyph-name="Gtilde" unicode="&#xf11b;" horiz-adv-x="1310" 
d="M731 1454q194 0 312 -99.5t118 -240.5q0 -57 -8 -88q-1 -8 -4 -20t-4 -15h-166l4 23q4 28 4 55q0 100 -69.5 159.5t-196.5 59.5q-199 0 -322 -164t-123 -440q0 -140 31.5 -246t88.5 -168.5t129 -93.5t159 -31q96 0 165 36t105 98.5t52 133t16 154.5h-340v160h498v-727
h-156v160q-116 -180 -350 -180q-272 0 -428 181.5t-156 522.5q0 114 23 222t73.5 208t123.5 175t181.5 120t239.5 45zM836 1573q-56 0 -151 41t-122 41q-57 0 -57 -62v-18q0 -8 2 -10h-100l-7 30q-4 32 -4 56q0 72 42.5 113.5t111.5 41.5q53 0 144 -42t126 -42q60 0 60 60
q0 3 -1 10t-1 10q-2 4 -2 10h102l4 -26q4 -32 4 -57q0 -73 -41.5 -114.5t-109.5 -41.5z" />
    <glyph glyph-name="gtilde" unicode="&#xf11c;" horiz-adv-x="995" 
d="M498 293q-96 0 -164 26q-49 -30 -49 -81q0 -24 13.5 -39.5t53.5 -24t62 -11t88 -6.5l39 -3q60 -3 105.5 -10.5t96 -26.5t83 -48.5t54 -80.5t21.5 -119q0 -78 -32.5 -137t-90.5 -93.5t-130.5 -51.5t-158.5 -17q-78 0 -145.5 13t-126.5 42t-93 83t-34 128q0 45 10 78l13 31
h159q-7 -10 -10 -23q-10 -27 -10 -61q0 -75 65.5 -109.5t171.5 -34.5q122 0 185 34.5t63 115.5q0 34 -13.5 58t-33.5 38t-57.5 23t-71 12.5t-88.5 7.5q-42 1 -73.5 3.5t-71 8.5t-67.5 15t-57 24.5t-47 36t-29 50.5t-11 67q0 99 100 178q-108 99 -108 270t110 278t277 107
q141 0 241 -81l123 98l101 -127l-123 -94q41 -77 41 -181q0 -167 -102.5 -266.5t-278.5 -99.5zM494 893q-102 0 -160 -62t-58 -167q0 -97 56.5 -159.5t161.5 -62.5q102 0 160.5 60.5t58.5 159.5q0 110 -57.5 170.5t-161.5 60.5zM637 1194q-56 0 -150.5 41t-121.5 41
q-58 0 -58 -64v-18q0 -8 2 -10h-100l-6 30q-4 32 -4 56q0 73 42 114t111 41q53 0 144.5 -41t126.5 -41q59 0 59 60q0 3 -1 10t-1 10q-2 4 -2 9h102l4 -27q4 -32 4 -57q0 -72 -42 -113t-109 -41z" />
    <glyph glyph-name="Ncircumflex" unicode="&#xf127;" horiz-adv-x="1376" 
d="M813 1825l195 -269h-142l-164 144l-161 -144h-140l199 269h213zM350 0h-178v1434h246l608 -1170v1170h178v-1434h-229l-625 1204v-1204z" />
    <glyph glyph-name="ncircumflex" unicode="&#xf128;" horiz-adv-x="1103" 
d="M655 1434l195 -269h-141l-164 144l-162 -144h-139l198 269h213zM319 569v-569h-169v1024h163v-137h4q95 157 287 157q176 0 266.5 -115t90.5 -331v-598h-173v580q0 92 -18.5 155t-52 93.5t-69 42.5t-81.5 12q-114 0 -181 -77.5t-67 -236.5z" />
    <glyph glyph-name="Commaaccent" unicode="&#xf12a;" horiz-adv-x="331" 
d="M137 -135h166l-102 -375h-140z" />
    <glyph glyph-name="Ndieresis" unicode="&#xf12c;" horiz-adv-x="1376" 
d="M403 1663q0 51 35.5 86t85.5 35t84.5 -35t34.5 -86q0 -49 -34.5 -84t-84.5 -35t-85.5 35t-35.5 84zM766 1663q0 50 35.5 85.5t83.5 35.5q51 0 86 -35t35 -86q0 -50 -35 -84.5t-86 -34.5q-48 0 -83.5 35t-35.5 84zM350 0h-178v1434h246l608 -1170v1170h178v-1434h-229
l-625 1204v-1204z" />
    <glyph glyph-name="ndieresis" unicode="&#xf12d;" horiz-adv-x="1103" 
d="M233 1319q0 50 35.5 84.5t85.5 34.5t84.5 -34t34.5 -85t-34.5 -86t-84.5 -35t-85.5 35t-35.5 86zM596 1319q0 50 35.5 84.5t83.5 34.5q51 0 86 -34t35 -85t-35 -86t-86 -35q-48 0 -83.5 35.5t-35.5 85.5zM319 569v-569h-169v1024h163v-137h4q95 157 287 157
q176 0 266.5 -115t90.5 -331v-598h-173v580q0 92 -18.5 155t-52 93.5t-69 42.5t-81.5 12q-114 0 -181 -77.5t-67 -236.5z" />
    <glyph glyph-name="zeroone" unicode="&#xf150;" horiz-adv-x="1693" 
d="M438 553q-156 0 -221 107t-65 311q0 60 5 110.5t16.5 102.5t32.5 92t52 71.5t76.5 48.5t103.5 17q69 0 121 -25t83 -65.5t50 -100t26 -119.5t7 -132q0 -204 -65.5 -311t-221.5 -107zM438 1284q-44 0 -73.5 -26t-43.5 -73.5t-19 -95.5t-5 -110q0 -155 30 -226t111 -71
t112.5 71t31.5 226q0 305 -144 305zM1120 0v125h189v485h-191v103q106 0 155.5 26.5t61.5 96.5h117v-711h174v-125h-506zM1153 1473l70 -21l-568 -1501l-71 16z" />
    <glyph glyph-name="oneone" unicode="&#xf151;" horiz-adv-x="1583" 
d="M74 565v125h188v486h-190v102q106 0 155.5 26.5t61.5 96.5h117v-711h174v-125h-506zM1014 0v125h188v485h-190v103q106 0 155.5 26.5t61.5 96.5h117v-711h174v-125h-506zM1040 1473l70 -21l-567 -1501l-72 16z" />
    <glyph glyph-name="commaascender" unicode="&#xf206;" horiz-adv-x="376" 
d="M131 1534h164l-84 -387h-137z" />
    <glyph glyph-name="Commaascender" unicode="&#xf237;" horiz-adv-x="362" 
d="M119 1434h164l-72 -387h-137z" />
    <glyph glyph-name="zerozero" unicode="&#xf303;" horiz-adv-x="1804" 
d="M438 553q-156 0 -221 107t-65 311q0 60 5 110.5t16.5 102.5t32.5 92t52 71.5t76.5 48.5t103.5 17q69 0 121 -25t83 -65.5t50 -100t26 -119.5t7 -132q0 -204 -65.5 -311t-221.5 -107zM438 1284q-44 0 -73.5 -26t-43.5 -73.5t-19 -95.5t-5 -110q0 -155 30 -226t111 -71
t112.5 71t31.5 226q0 305 -144 305zM1364 -12q-156 0 -221.5 107t-65.5 311q0 72 7 132t26 119.5t50 100t83 65.5t121 25t121 -25t83 -65.5t50 -100t26 -119.5t7 -132q0 -204 -65.5 -311t-221.5 -107zM1364 719q-44 0 -73.5 -26t-43.5 -73.5t-19 -95.5t-5 -110
q0 -155 30 -226t111 -71t112 70.5t31 226.5q0 62 -5.5 110t-19.5 95.5t-44 73.5t-74 26zM1155 1473l70 -21l-568 -1501l-71 16z" />
    <glyph glyph-name="cedillatog" unicode="&#xf30f;" horiz-adv-x="606" 
d="M367 1186h-168l84 336h143z" />
    <glyph glyph-name="zero.numerator" unicode="&#xf655;" horiz-adv-x="733" 
d="M367 553q-156 0 -221.5 107t-65.5 311q0 72 7 132t26 119.5t50 100t83 65.5t121 25q58 0 103.5 -17t76.5 -48.5t52 -71.5t32.5 -92t16.5 -102.5t5 -110.5q0 -204 -65 -311t-221 -107zM367 1284q-44 0 -73.5 -26t-43.5 -73.5t-19.5 -95.5t-5.5 -110q0 -155 30.5 -226
t111.5 -71t112 70.5t31 226.5q0 62 -5.5 110t-19.5 95.5t-44 73.5t-74 26z" />
    <glyph glyph-name="one.numerator" unicode="&#xf656;" horiz-adv-x="622" 
d="M74 565v125h188v486h-190v102q106 0 155.5 26.5t61.5 96.5h117v-711h174v-125h-506z" />
    <glyph glyph-name="two.numerator" unicode="&#xf657;" horiz-adv-x="647" 
d="M410 852l-160 -162h342v-125h-522v121l209 213q85 87 119 141.5t34 122.5q0 59 -31.5 90t-81.5 31t-77 -22t-27 -58q0 -20 2 -24l4 -13h-129l-6 19q-6 15 -6 43q0 78 65 131t172 53q119 0 190 -62.5t71 -176.5q0 -154 -168 -322z" />
    <glyph glyph-name="three.numerator" unicode="&#xf658;" horiz-adv-x="649" 
d="M104 1274v127h449v-121l-197 -207q100 0 166 -63.5t66 -190.5t-70 -196.5t-194 -69.5q-107 0 -178.5 52.5t-71.5 146.5q0 32 8 51l8 20h131l-6 -16q-4 -28 -4 -41q0 -42 31 -64t86 -22q58 0 89.5 36t31.5 107q0 75 -35 110.5t-90 35.5q-33 0 -52 -8l-20 -7l-76 90
l211 230h-283z" />
    <glyph glyph-name="four.numerator" unicode="&#xf659;" horiz-adv-x="681" 
d="M342 1401h193v-510h94v-125h-94v-201h-140v201h-346v119zM188 891h207v371z" />
    <glyph glyph-name="five.numerator" unicode="&#xf65a;" horiz-adv-x="647" 
d="M309 680q133 0 133 151q0 158 -137 158q-33 0 -69 -16l-29 -15l-103 93l43 350h398v-127h-279l-22 -176l22 6q19 8 62 8q114 0 185 -72.5t71 -208.5q0 -133 -74 -205.5t-199 -72.5q-114 0 -184 54t-70 145q0 30 9 51l10 20h129l-6 -16q-6 -15 -6 -41q0 -42 31.5 -64
t84.5 -22z" />
    <glyph glyph-name="six.numerator" unicode="&#xf65b;" horiz-adv-x="675" 
d="M356 991q-69 0 -100 -49.5t-31 -120.5q0 -62 31.5 -100.5t99.5 -38.5q117 0 117 139q0 72 -27 121t-90 49zM457 1214q0 31 -25.5 51.5t-66.5 20.5q-68 0 -101.5 -58t-38.5 -181q13 13 37 30q52 33 111 33q119 0 180 -81.5t61 -205.5q0 -126 -67 -198t-195 -72
q-126 0 -198 73.5t-72 231.5q0 299 64 427t225 128q96 0 157.5 -51t61.5 -129q0 -24 -8 -43l-7 -16h-124q0 6 2 12q4 16 4 28z" />
    <glyph glyph-name="seven.numerator" unicode="&#xf65c;" horiz-adv-x="565" 
d="M301 565h-158q3 408 248 703h-366v133h518v-121q-136 -164 -189 -325t-53 -390z" />
    <glyph glyph-name="eight.numerator" unicode="&#xf65d;" horiz-adv-x="712" 
d="M356 682q62 0 102 33.5t40 93.5q0 124 -142 152q-141 -28 -141 -152q0 -60 39.5 -93.5t101.5 -33.5zM356 1075q51 11 81 41t30 76q0 42 -31.5 67t-79.5 25t-79 -25t-31 -67q0 -90 110 -117zM356 553q-122 0 -202 64t-80 184q0 88 42 142t105 77q-117 64 -117 180
q0 87 66 150t186 63t186 -63t66 -150q0 -117 -116 -180q63 -23 105 -77t42 -142q0 -119 -80 -183.5t-203 -64.5z" />
    <glyph glyph-name="nine.numerator" unicode="&#xf65e;" horiz-adv-x="677" 
d="M324 977q131 0 131 162q0 64 -31 104.5t-94 40.5q-65 0 -96 -41.5t-31 -109.5q0 -73 31 -114.5t90 -41.5zM596 1040q0 -118 -12.5 -204.5t-34.5 -140.5t-57.5 -86t-75.5 -44t-94 -12q-110 0 -169 50t-59 122q0 31 6 49l6 21h132q-1 -1 -5 -13q-4 -20 -4 -30
q0 -35 27 -52.5t68 -17.5q70 0 101 55.5t36 177.5q-61 -61 -146 -61q-125 0 -188.5 73t-63.5 199q0 125 67.5 206t195.5 81q137 0 203.5 -88t66.5 -285z" />
    <glyph glyph-name="zero.denominator" unicode="&#xf661;" horiz-adv-x="733" 
d="M367 -12q-156 0 -221.5 107t-65.5 311q0 72 7 132t26 119.5t50 100t83 65.5t121 25q58 0 103.5 -17t76.5 -48.5t52 -71.5t32.5 -92t16.5 -102.5t5 -110.5q0 -204 -65 -311t-221 -107zM367 719q-44 0 -73.5 -26t-43.5 -73.5t-19.5 -95.5t-5.5 -110q0 -155 30.5 -226
t111.5 -71t112 70.5t31 226.5q0 62 -5.5 110t-19.5 95.5t-44 73.5t-74 26z" />
    <glyph glyph-name="one.denominator" unicode="&#xf662;" horiz-adv-x="622" 
d="M74 0v125h188v485h-190v103q106 0 155.5 26.5t61.5 96.5h117v-711h174v-125h-506z" />
    <glyph glyph-name="two.denominator" unicode="&#xf663;" horiz-adv-x="647" 
d="M410 287l-160 -162h342v-125h-522v121l209 213q85 87 119 141.5t34 122.5q0 59 -31.5 90t-81.5 31t-77 -22t-27 -58q0 -21 2 -25l4 -12h-129l-6 19q-6 15 -6 43q0 78 65 131t172 53q119 0 190 -63t71 -177q0 -153 -168 -321z" />
    <glyph glyph-name="three.denominator" unicode="&#xf664;" horiz-adv-x="649" 
d="M104 709v127h449v-121l-197 -207q100 0 166 -63.5t66 -190.5t-70 -196.5t-194 -69.5q-107 0 -178.5 52t-71.5 146q0 33 8 52l8 20h131l-6 -16q-4 -28 -4 -41q0 -42 31 -64t86 -22q58 0 89.5 36t31.5 107q0 75 -34.5 110t-90.5 35q-33 0 -52 -8l-20 -6l-76 90l211 230
h-283z" />
    <glyph glyph-name="four.denominator" unicode="&#xf665;" horiz-adv-x="681" 
d="M342 836h193v-510h94v-125h-94v-201h-140v201h-346v118zM188 326h207v370z" />
    <glyph glyph-name="five.denominator" unicode="&#xf666;" horiz-adv-x="647" 
d="M309 115q133 0 133 151q0 158 -137 158q-33 0 -69 -16l-29 -15l-103 92l43 351h398v-127h-279l-22 -177l22 7q19 8 62 8q114 0 185 -72.5t71 -208.5q0 -133 -74 -205.5t-199 -72.5q-114 0 -184 53.5t-70 144.5q0 31 9 52l10 20h129l-6 -16q-6 -15 -6 -41q0 -42 31.5 -64
t84.5 -22z" />
    <glyph glyph-name="six.denominator" unicode="&#xf667;" horiz-adv-x="675" 
d="M356 426q-69 0 -100 -49.5t-31 -120.5q0 -62 31.5 -100.5t99.5 -38.5q117 0 117 139q0 72 -27 121t-90 49zM457 649q0 31 -25.5 51.5t-66.5 20.5q-68 0 -101.5 -58.5t-38.5 -181.5q16 16 37 31q52 33 111 33q119 0 180 -81.5t61 -205.5q0 -126 -67 -198t-195 -72
q-126 0 -198 73.5t-72 231.5q0 299 64 427t225 128q96 0 157.5 -51t61.5 -129q0 -24 -8 -43l-7 -17h-124q0 7 2 13q4 16 4 28z" />
    <glyph glyph-name="seven.denominator" unicode="&#xf668;" horiz-adv-x="565" 
d="M301 0h-158q3 407 248 702h-366v134h518v-121q-136 -164 -189 -325t-53 -390z" />
    <glyph glyph-name="eight.denominator" unicode="&#xf669;" horiz-adv-x="712" 
d="M356 117q62 0 102 33.5t40 93.5q0 123 -142 151q-141 -28 -141 -151q0 -60 39.5 -93.5t101.5 -33.5zM356 510q51 11 81 41t30 76q0 42 -31.5 67t-79.5 25t-79 -25t-31 -67q0 -90 110 -117zM356 -12q-122 0 -202 64t-80 184q0 88 42 142t105 77q-117 64 -117 180
q0 87 66 150t186 63t186 -63t66 -150q0 -117 -116 -180q63 -23 105 -77t42 -142q0 -119 -80 -183.5t-203 -64.5z" />
    <glyph glyph-name="nine.denominator" unicode="&#xf66a;" horiz-adv-x="677" 
d="M324 412q131 0 131 161q0 64 -31 105t-94 41q-65 0 -96 -42t-31 -110q0 -73 31 -114t90 -41zM596 475q0 -118 -12.5 -204.5t-34.5 -140.5t-57.5 -86t-75.5 -44t-94 -12q-110 0 -169 50t-59 122q0 31 6 49l6 20h132q-2 -1 -5 -12q-4 -20 -4 -31q0 -35 27 -52t68 -17
q70 0 101 55.5t36 177.5q-61 -61 -146 -61q-125 0 -188.5 73t-63.5 199q0 125 67.5 206t195.5 81q137 0 203.5 -88t66.5 -285z" />
    <glyph glyph-name="commaaccent" unicode="&#xf6c3;" horiz-adv-x="331" 
d="M137 -135h166l-102 -375h-140z" />
    <glyph glyph-name="Acute" unicode="&#xf6c9;" horiz-adv-x="462" 
d="M455 1829l-283 -268h-166l195 268h254z" />
    <glyph glyph-name="Caron" unicode="&#xf6ca;" horiz-adv-x="614" 
d="M610 1825l-194 -269h-213l-199 269h139l162 -144l164 144h141z" />
    <glyph glyph-name="Dieresis" unicode="&#xf6cb;" horiz-adv-x="610" 
d="M4 1663q0 51 35.5 86t85.5 35t84.5 -35t34.5 -86q0 -49 -35 -84t-84 -35q-50 0 -85.5 35t-35.5 84zM367 1663q0 50 35 85.5t83 35.5q51 0 86 -35t35 -86q0 -50 -35 -84.5t-86 -34.5q-48 0 -83 35t-35 84z" />
    <glyph glyph-name="Grave" unicode="&#xf6ce;" horiz-adv-x="464" 
d="M291 1561l-285 268h260l193 -268h-168z" />
    <glyph glyph-name="Hungarumlaut" unicode="&#xf6cf;" horiz-adv-x="600" 
d="M432 1829l-282 -268h-146l195 268h233zM760 1829l-283 -268h-145l192 268h236z" />
    <glyph glyph-name="Macron" unicode="&#xf6d0;" horiz-adv-x="526" 
d="M-12 1583v135h553v-135h-553z" />
    <glyph glyph-name="Dieresissmall" unicode="&#xf7a8;" horiz-adv-x="579" 
d="M4 1663q0 50 35.5 84.5t85.5 34.5t84.5 -34t34.5 -85t-34.5 -86t-84.5 -35t-85.5 35t-35.5 86zM336 1663q0 50 35.5 84.5t85.5 34.5t84 -34t34 -85t-34 -86t-84 -35t-85.5 35t-35.5 86z" />
    <glyph glyph-name="apple" unicode="&#xf8ff;" horiz-adv-x="1415" 
d="M106 0v866q0 156 80 293.5t219 221t300 83.5q163 0 302.5 -83.5t219.5 -221t80 -293.5v-866h-58l-133 133l-139 -133l-129 133l-146 -133l-141 133l-129 -133l-137 133l-135 -133h-54zM823 772q0 -60 42 -101.5t102 -41.5t103.5 41.5t43.5 101.5q0 61 -43.5 104.5
t-103.5 43.5t-102 -43t-42 -105zM301 772q0 -60 42.5 -101.5t102.5 -41.5q61 0 103.5 41.5t42.5 101.5q0 62 -42.5 105t-103.5 43q-60 0 -102.5 -43.5t-42.5 -104.5z" />
    <glyph glyph-name="CR" horiz-adv-x="460" 
 />
    <glyph glyph-name="Stroketod" horiz-adv-x="706" 
d="M4 815h698v-153h-698v153z" />
    <glyph glyph-name="Stroketol" horiz-adv-x="813" 
d="M74 520l-70 121l234 131l59 19l440 249l70 -120l-494 -281l-45 -12z" />
    <glyph glyph-name="dieresissmall" horiz-adv-x="561" 
d="M4 1319q0 50 35.5 84.5t85.5 34.5t84.5 -34t34.5 -85t-34.5 -86t-84.5 -35t-85.5 35t-35.5 86zM317 1319q0 51 34.5 85t84.5 34t84.5 -34t34.5 -85t-34.5 -86t-84.5 -35t-84.5 35t-34.5 86z" />
    <glyph glyph-name="stroketol" horiz-adv-x="555" 
d="M78 643l-74 119l227 131l54 20l192 111l74 -117l-240 -139l-49 -16z" />
    <glyph glyph-name="plus.alt" horiz-adv-x="1030" 
d="M86 618v89h383v385h92v-385h381v-89h-381v-382h-92v382h-383z" />
    <glyph glyph-name="minus.alt" horiz-adv-x="1071" 
d="M106 618v89h857v-89h-857z" />
    <glyph glyph-name="Dotcatalan" horiz-adv-x="432" 
d="M131 578q0 65 43 107t105 42q63 0 106 -42t43 -107t-43 -106.5t-106 -41.5t-105.5 41.5t-42.5 106.5z" />
    <glyph glyph-name="Stroketoh" horiz-adv-x="1333" 
d="M-16 1069v135h1366v-135h-1366z" />
    <glyph glyph-name="acutetol" horiz-adv-x="413" 
d="M469 1872l-238 -248h-157l147 248h248z" />
    <glyph glyph-name="circumflextoh" horiz-adv-x="829" 
d="M362 1843l195 -268h-139l-164 145l-162 -145h-139l199 268h210z" />
    <glyph glyph-name="dotcatalan" horiz-adv-x="432" 
d="M131 578q0 65 43 107t105 42q63 0 106 -42t43 -107t-43 -106.5t-106 -41.5t-105.5 41.5t-42.5 106.5z" />
    <glyph glyph-name="stroketod" horiz-adv-x="909" 
d="M-10 1198v137h753v-137h-753z" />
    <glyph glyph-name="stroketot" horiz-adv-x="688" 
d="M20 545v139h613v-139h-613z" />
    <glyph glyph-name="comma.alt" horiz-adv-x="415" 
d="M197 213h108l-104 -508h-109z" />
    <glyph glyph-name="semicolon.alt" horiz-adv-x="585" 
d="M172 909q0 59 39 97t96 38t96 -38t39 -97t-39 -97t-96 -38t-96 38t-39 97zM264 213h109l-105 -508h-108z" />
    <glyph glyph-name="quoteleft.alt" horiz-adv-x="376" 
d="M199 1434h88l-105 -508h-88z" />
    <glyph glyph-name="quoteright.alt" horiz-adv-x="376" 
d="M199 1434h88l-105 -508h-88z" />
    <glyph glyph-name="quotedblleft.alt" horiz-adv-x="604" 
d="M199 1434h88l-105 -508h-88zM426 1434h88l-104 -508h-88z" />
    <glyph glyph-name="quotedblright.alt" horiz-adv-x="604" 
d="M199 1434h88l-105 -508h-88zM426 1434h88l-104 -508h-88z" />
    <glyph glyph-name="quotedblbase.alt" horiz-adv-x="604" 
d="M401 213h88l-104 -508h-88zM176 213h88l-104 -508h-88z" />
    <glyph glyph-name="quotesinglbase.alt" horiz-adv-x="387" 
d="M176 213h96l-104 -508h-96z" />
    <glyph glyph-name="periodcentered.alt" horiz-adv-x="585" 
d="M168 573q0 53 36.5 89t88.5 36q54 0 89.5 -35.5t35.5 -89.5t-35.5 -89t-89.5 -35q-52 0 -88.5 35.5t-36.5 88.5z" />
    <glyph glyph-name="guilsinglleft.alt" horiz-adv-x="602" 
d="M403 121l-321 411l321 410h97l-322 -410l322 -411h-97z" />
    <glyph glyph-name="guilsinglright.alt" horiz-adv-x="600" 
d="M518 532l-319 -411h-97l322 411l-322 410h97z" />
    <glyph glyph-name="guillemotleft.alt" horiz-adv-x="899" 
d="M367 532l319 410h109l-322 -410l322 -411h-109zM82 532l321 410h109l-322 -410l322 -411h-109z" />
    <glyph glyph-name="guillemotright.alt" horiz-adv-x="899" 
d="M532 532l-319 -411h-111l322 411l-322 410h111zM815 532l-319 -411h-111l322 411l-322 410h111z" />
    <glyph glyph-name="parenleft.alt" horiz-adv-x="444" 
d="M334 1456h88q-72 -122 -121 -256q-119 -331 -119 -692q0 -392 117 -701q50 -130 119 -227h-88q-68 96 -119 225q-117 305 -117 695q0 361 119 696q53 145 121 260z" />
    <glyph glyph-name="parenright.alt" horiz-adv-x="448" 
d="M27 1456h90q69 -126 119 -262q120 -338 120 -690q0 -389 -118 -697q-53 -136 -117 -227h-90q62 88 116 227q119 315 119 701q0 356 -121 692q-49 133 -118 256z" />
    <glyph glyph-name="braceleft.alt" horiz-adv-x="731" 
d="M170 563q45 -14 79 -32t57.5 -36t39 -46.5t24.5 -52t13 -64.5t5 -72t1 -86v-151q0 -68 3.5 -113t13 -85.5t28 -63.5t48 -36.5t71.5 -13.5q73 0 125 15v-84q-61 -13 -135 -13q-48 0 -85.5 11t-63.5 29t-44 48t-28.5 59.5t-16 72t-7 78.5t-1.5 85v160q0 60 -2.5 98.5
t-12 77t-25.5 62t-44.5 45.5t-69 37.5t-98.5 29.5v80q86 20 135.5 42.5t75.5 60t33.5 79.5t7.5 117v125q0 54 2 94t8 87t17 80.5t31 67t48 54t69 33t93 12.5q49 0 113 -12v-84q-52 14 -100 14q-113 0 -151 -75.5t-38 -249.5v-134q0 -46 -1 -73t-5.5 -63.5t-13 -58t-24 -48
t-39 -44t-57.5 -34.5t-79 -29z" />
    <glyph glyph-name="braceright.alt" horiz-adv-x="731" 
d="M561 563q-45 12 -79 29t-57.5 34.5t-39 44t-24 48t-13 58t-5.5 63.5t-1 73v134q0 175 -38 250t-150 75q-49 0 -101 -14v84q65 12 113 12q60 0 105 -15.5t73.5 -47t46.5 -67.5t26.5 -89.5t11.5 -99t3 -109.5v-125q0 -75 7.5 -117.5t34.5 -79.5t76.5 -59.5t135.5 -42.5v-80
q-70 -17 -115.5 -37.5t-73.5 -45.5t-42 -66t-18.5 -84.5t-4.5 -116.5v-160q0 -50 -1.5 -85t-7 -78t-15.5 -72.5t-28 -59.5t-43.5 -48t-63 -29t-85.5 -11q-74 0 -135 13v84q53 -15 125 -15q42 0 71.5 13.5t48 36.5t28 63.5t13 85.5t3.5 113v151q0 55 1 86t5 72t13 64.5
t24.5 52t39 46.5t57.5 36t79 32z" />
    <glyph glyph-name="bracketleft.alt" horiz-adv-x="473" 
d="M231 1374v-1710h177v-74h-265v1858h265v-74h-177z" />
    <glyph glyph-name="bracketright.alt" horiz-adv-x="473" 
d="M227 -336v1710h-176v74h264v-1858h-264v74h176z" />
    <glyph glyph-name="underscore.alt" horiz-adv-x="1120" 
d="M45 -121v98h1028v-98h-1028z" />
    <glyph glyph-name="slash.alt" horiz-adv-x="817" 
d="M623 1434h114l-542 -1434h-115z" />
    <glyph glyph-name="backslash.alt" horiz-adv-x="817" 
d="M80 1434h113l542 -1434h-112z" />
    <glyph glyph-name="bar.alt" horiz-adv-x="481" 
d="M195 1434h92v-1766h-92v1766z" />
    <glyph glyph-name="brokenbar.alt" horiz-adv-x="481" 
d="M195 385h92v-717h-92v717zM287 778h-92v656h92v-656z" />
    <glyph glyph-name="dagger.alt" horiz-adv-x="937" 
d="M66 934v90h358v410h92v-410h356v-90h-356v-1307h-92v1307h-358z" />
    <glyph glyph-name="daggerdbl.alt" horiz-adv-x="937" 
d="M66 934v90h358v410h92v-410h356v-90h-356v-825h356v-91h-356v-428h-92v428h-358v91h358v825h-358z" />
    <glyph glyph-name="quotesingle.alt" horiz-adv-x="305" 
d="M106 1434h93v-424h-93v424z" />
    <glyph glyph-name="quotedbl.alt" horiz-adv-x="512" 
d="M96 1434h92v-424h-92v424zM324 1434h92v-424h-92v424z" />
    <glyph glyph-name="plusminus.alt" horiz-adv-x="1030" 
d="M86 618v89h383v385h92v-385h381v-89h-381v-382h-92v382h-383zM86 0v88h856v-88h-856z" />
    <glyph glyph-name="multiply.alt" horiz-adv-x="1001" 
d="M127 963l68 67l307 -307l305 307l65 -67l-305 -306l305 -307l-65 -65l-307 307l-307 -307l-66 65l307 305z" />
    <glyph glyph-name="divide.alt" horiz-adv-x="1112" 
d="M127 618v89h856v-89h-856zM416 1001q0 59 39.5 97.5t95.5 38.5t95.5 -38.5t39.5 -97.5t-39 -97t-96 -38t-96 38t-39 97zM416 307q0 59 39 97t96 38t96 -38t39 -97t-39 -97t-96 -38t-96 38t-39 97z" />
    <glyph glyph-name="greater.alt" horiz-adv-x="1017" 
d="M870 709v-105l-723 -354v108l613 297l-602 293v109z" />
    <glyph glyph-name="less.alt" horiz-adv-x="1017" 
d="M147 604v105l713 348v-109l-602 -293l612 -297v-108z" />
    <glyph glyph-name="equal.alt" horiz-adv-x="1183" 
d="M168 766v88h846v-88h-846zM168 487v88h846v-88h-846z" />
    <glyph glyph-name="notequal.alt" horiz-adv-x="1183" 
d="M168 766v88h436l90 240h99l-91 -240h312v-88h-346l-70 -191h416v-88h-451l-90 -247h-98l90 247h-297v88h332l71 191h-403z" />
    <glyph glyph-name="greaterequal.alt" horiz-adv-x="976" 
d="M133 0v88h713v-88h-713zM850 709v-105l-723 -354v108l612 297l-602 293v109z" />
    <glyph glyph-name="lessequal.alt" horiz-adv-x="978" 
d="M133 0v88h711v-88h-711zM129 604v105l713 348v-109l-602 -293l610 -297v-108z" />
    <glyph glyph-name="approxequal.alt" horiz-adv-x="999" 
d="M713 467q106 0 106 115q0 11 -6 41l-4 14h86l4 -21q6 -42 6 -49q0 -87 -54 -138.5t-146 -51.5q-50 0 -96 19t-81.5 46.5t-69 55t-71.5 46.5t-76 19q-110 0 -110 -114q0 -11 4 -39l6 -17h-86l-6 21q-6 18 -6 49q0 88 55 140t147 52q50 0 96 -19.5t81 -47t69 -55t73 -47
t79 -19.5zM713 799q106 0 106 114q0 9 -6 39l-4 17h86l4 -23q6 -42 6 -47q0 -88 -54 -139t-146 -51q-50 0 -96 19t-81.5 46.5t-69 55t-71.5 46.5t-76 19q-110 0 -110 -115q0 -21 4 -41l6 -14h-86l-6 20q-6 18 -6 50q0 86 55 138t147 52q50 0 96 -19t81 -46.5t69 -55
t73 -46.5t79 -19z" />
    <glyph glyph-name="asciitilde.alt" horiz-adv-x="991" 
d="M311 682q-110 0 -110 -115q0 -19 4 -39l6 -16h-86l-6 20q-6 18 -6 50q0 88 55 140t147 52q50 0 96 -19.5t81 -47t69 -55t73 -47t79 -19.5q106 0 106 114q0 9 -6 39l-4 17h86l4 -21q6 -42 6 -49q0 -88 -54 -139t-146 -51q-50 0 -96 19t-81.5 46.5t-69 55t-71.5 46.5
t-76 19z" />
    <glyph glyph-name="lozenge.alt" horiz-adv-x="929" 
d="M516 -18h-102l-318 733l318 733h102l315 -733zM727 715l-262 626l-262 -626l262 -627z" />
    <glyph glyph-name="radical.alt" horiz-adv-x="1294" 
d="M227 1024l246 -907l387 1356h422v-93h-346l-397 -1380h-133l-283 1024h104z" />
    <glyph glyph-name="pi.alt" horiz-adv-x="1263" 
d="M410 0h-170v924h-168v100h1122v-100h-164v-527q0 -71 3 -111t10.5 -72t24.5 -45.5t41 -19.5t65 -6v-155h-23q-162 0 -226.5 82.5t-64.5 296.5v557h-450v-924z" />
    <glyph glyph-name="asciicircum.alt" horiz-adv-x="1198" 
d="M563 1434h72l403 -744h-102l-338 637l-336 -637h-104z" />
    <glyph glyph-name="numbersign.alt" horiz-adv-x="1341" 
d="M1092 1434h96l-162 -453h238v-86h-267l-106 -303h239v-86h-270l-176 -506h-96l176 506h-348l-176 -506h-97l176 506h-241v86h272l107 303h-244v86h272l162 453h96l-161 -453h350zM553 895l-107 -303h349l106 303h-348z" />
    </font>
</defs>
</svg>
